<svg xmlns="http://www.w3.org/2000/svg" version="1.1" xmlns:xlink="http://www.w3.org/1999/xlink" xmlns:svgjs="http://svgjs.com/svgjs" width="3000" height="1080" preserveAspectRatio="none" viewBox="0 0 3000 1080"><g mask="url(&quot;#SvgjsMask1057&quot;)" fill="none"><rect width="3000" height="1080" x="0" y="0" fill="#0e2a47"></rect><path d="M46.6 136.65L76.91 154.15L76.91 189.15L46.6 206.65L16.29 189.15L16.29 154.15zM16.29 189.15L46.6 206.65L46.6 241.65L16.29 259.15L-14.02 241.65L-14.02 206.65zM46.6 241.65L76.91 259.15L76.91 294.15L46.6 311.65L16.29 294.15L16.29 259.15zM46.6 346.65L76.91 364.15L76.91 399.15L46.6 416.65L16.29 399.15L16.29 364.15zM46.6 766.65L76.91 784.15L76.91 819.15L46.6 836.65L16.29 819.15L16.29 784.15zM46.6 1081.65L76.91 1099.15L76.91 1134.15L46.6 1151.65L16.29 1134.15L16.29 1099.15zM107.23 31.65L137.54 49.15L137.54 84.15L107.23 101.65L76.91 84.15L76.91 49.15zM76.91 84.15L107.23 101.65L107.23 136.65L76.91 154.15L46.6 136.65L46.6 101.65zM107.23 241.65L137.54 259.15L137.54 294.15L107.23 311.65L76.91 294.15L76.91 259.15zM107.23 451.65L137.54 469.15L137.54 504.15L107.23 521.65L76.91 504.15L76.91 469.15zM76.91 714.15L107.23 731.65L107.23 766.65L76.91 784.15L46.6 766.65L46.6 731.65zM107.23 871.65L137.54 889.15L137.54 924.15L107.23 941.65L76.91 924.15L76.91 889.15zM167.85 346.65L198.16 364.15L198.16 399.15L167.85 416.65L137.54 399.15L137.54 364.15zM137.54 609.15L167.85 626.65L167.85 661.65L137.54 679.15L107.23 661.65L107.23 626.65zM167.85 766.65L198.16 784.15L198.16 819.15L167.85 836.65L137.54 819.15L137.54 784.15zM198.16 84.15L228.47 101.65L228.47 136.65L198.16 154.15L167.85 136.65L167.85 101.65zM198.16 189.15L228.47 206.65L228.47 241.65L198.16 259.15L167.85 241.65L167.85 206.65zM198.16 294.15L228.47 311.65L228.47 346.65L198.16 364.15L167.85 346.65L167.85 311.65zM198.16 399.15L228.47 416.65L228.47 451.65L198.16 469.15L167.85 451.65L167.85 416.65zM228.47 1081.65L258.78 1099.15L258.78 1134.15L228.47 1151.65L198.16 1134.15L198.16 1099.15zM289.1 136.65L319.41 154.15L319.41 189.15L289.1 206.65L258.78 189.15L258.78 154.15zM258.78 189.15L289.1 206.65L289.1 241.65L258.78 259.15L228.47 241.65L228.47 206.65zM289.1 556.65L319.41 574.15L319.41 609.15L289.1 626.65L258.78 609.15L258.78 574.15zM289.1 661.65L319.41 679.15L319.41 714.15L289.1 731.65L258.78 714.15L258.78 679.15zM289.1 871.65L319.41 889.15L319.41 924.15L289.1 941.65L258.78 924.15L258.78 889.15zM349.72 136.65L380.03 154.15L380.03 189.15L349.72 206.65L319.41 189.15L319.41 154.15zM349.72 346.65L380.03 364.15L380.03 399.15L349.72 416.65L319.41 399.15L319.41 364.15zM319.41 504.15L349.72 521.65L349.72 556.65L319.41 574.15L289.1 556.65L289.1 521.65zM349.72 871.65L380.03 889.15L380.03 924.15L349.72 941.65L319.41 924.15L319.41 889.15zM380.03 504.15L410.34 521.65L410.34 556.65L380.03 574.15L349.72 556.65L349.72 521.65zM470.97 241.65L501.28 259.15L501.28 294.15L470.97 311.65L440.65 294.15L440.65 259.15zM440.65 399.15L470.97 416.65L470.97 451.65L440.65 469.15L410.34 451.65L410.34 416.65zM470.97 556.65L501.28 574.15L501.28 609.15L470.97 626.65L440.65 609.15L440.65 574.15zM440.65 609.15L470.97 626.65L470.97 661.65L440.65 679.15L410.34 661.65L410.34 626.65zM470.97 661.65L501.28 679.15L501.28 714.15L470.97 731.65L440.65 714.15L440.65 679.15zM531.59 136.65L561.9 154.15L561.9 189.15L531.59 206.65L501.28 189.15L501.28 154.15zM531.59 241.65L561.9 259.15L561.9 294.15L531.59 311.65L501.28 294.15L501.28 259.15zM531.59 766.65L561.9 784.15L561.9 819.15L531.59 836.65L501.28 819.15L501.28 784.15zM501.28 1029.15L531.59 1046.65L531.59 1081.65L501.28 1099.15L470.97 1081.65L470.97 1046.65zM561.9 294.15L592.21 311.65L592.21 346.65L561.9 364.15L531.59 346.65L531.59 311.65zM561.9 504.15L592.21 521.65L592.21 556.65L561.9 574.15L531.59 556.65L531.59 521.65zM592.21 556.65L622.52 574.15L622.52 609.15L592.21 626.65L561.9 609.15L561.9 574.15zM592.21 661.65L622.52 679.15L622.52 714.15L592.21 731.65L561.9 714.15L561.9 679.15zM592.21 1081.65L622.52 1099.15L622.52 1134.15L592.21 1151.65L561.9 1134.15L561.9 1099.15zM652.84 451.65L683.15 469.15L683.15 504.15L652.84 521.65L622.52 504.15L622.52 469.15zM652.84 661.65L683.15 679.15L683.15 714.15L652.84 731.65L622.52 714.15L622.52 679.15zM652.84 871.65L683.15 889.15L683.15 924.15L652.84 941.65L622.52 924.15L622.52 889.15zM713.46 136.65L743.77 154.15L743.77 189.15L713.46 206.65L683.15 189.15L683.15 154.15zM713.46 346.65L743.77 364.15L743.77 399.15L713.46 416.65L683.15 399.15L683.15 364.15zM683.15 399.15L713.46 416.65L713.46 451.65L683.15 469.15L652.84 451.65L652.84 416.65zM683.15 504.15L713.46 521.65L713.46 556.65L683.15 574.15L652.84 556.65L652.84 521.65zM683.15 819.15L713.46 836.65L713.46 871.65L683.15 889.15L652.84 871.65L652.84 836.65zM743.77 -20.85L774.08 -3.35L774.08 31.65L743.77 49.15L713.46 31.65L713.46 -3.35zM743.77 84.15L774.08 101.65L774.08 136.65L743.77 154.15L713.46 136.65L713.46 101.65zM774.08 136.65L804.4 154.15L804.4 189.15L774.08 206.65L743.77 189.15L743.77 154.15zM804.4 189.15L834.71 206.65L834.71 241.65L804.4 259.15L774.08 241.65L774.08 206.65zM834.71 241.65L865.02 259.15L865.02 294.15L834.71 311.65L804.4 294.15L804.4 259.15zM804.4 294.15L834.71 311.65L834.71 346.65L804.4 364.15L774.08 346.65L774.08 311.65zM834.71 346.65L865.02 364.15L865.02 399.15L834.71 416.65L804.4 399.15L804.4 364.15zM804.4 399.15L834.71 416.65L834.71 451.65L804.4 469.15L774.08 451.65L774.08 416.65zM834.71 451.65L865.02 469.15L865.02 504.15L834.71 521.65L804.4 504.15L804.4 469.15zM804.4 609.15L834.71 626.65L834.71 661.65L804.4 679.15L774.08 661.65L774.08 626.65zM834.71 871.65L865.02 889.15L865.02 924.15L834.71 941.65L804.4 924.15L804.4 889.15zM804.4 924.15L834.71 941.65L834.71 976.65L804.4 994.15L774.08 976.65L774.08 941.65zM834.71 976.65L865.02 994.15L865.02 1029.15L834.71 1046.65L804.4 1029.15L804.4 994.15zM834.71 1081.65L865.02 1099.15L865.02 1134.15L834.71 1151.65L804.4 1134.15L804.4 1099.15zM895.33 136.65L925.64 154.15L925.64 189.15L895.33 206.65L865.02 189.15L865.02 154.15zM895.33 241.65L925.64 259.15L925.64 294.15L895.33 311.65L865.02 294.15L865.02 259.15zM865.02 399.15L895.33 416.65L895.33 451.65L865.02 469.15L834.71 451.65L834.71 416.65zM895.33 556.65L925.64 574.15L925.64 609.15L895.33 626.65L865.02 609.15L865.02 574.15zM895.33 976.65L925.64 994.15L925.64 1029.15L895.33 1046.65L865.02 1029.15L865.02 994.15zM955.95 31.65L986.27 49.15L986.27 84.15L955.95 101.65L925.64 84.15L925.64 49.15zM955.95 346.65L986.27 364.15L986.27 399.15L955.95 416.65L925.64 399.15L925.64 364.15zM955.95 451.65L986.27 469.15L986.27 504.15L955.95 521.65L925.64 504.15L925.64 469.15zM955.95 661.65L986.27 679.15L986.27 714.15L955.95 731.65L925.64 714.15L925.64 679.15zM955.95 1081.65L986.27 1099.15L986.27 1134.15L955.95 1151.65L925.64 1134.15L925.64 1099.15zM1016.58 346.65L1046.89 364.15L1046.89 399.15L1016.58 416.65L986.27 399.15L986.27 364.15zM986.27 504.15L1016.58 521.65L1016.58 556.65L986.27 574.15L955.95 556.65L955.95 521.65zM1016.58 766.65L1046.89 784.15L1046.89 819.15L1016.58 836.65L986.27 819.15L986.27 784.15zM1016.58 871.65L1046.89 889.15L1046.89 924.15L1016.58 941.65L986.27 924.15L986.27 889.15zM986.27 924.15L1016.58 941.65L1016.58 976.65L986.27 994.15L955.95 976.65L955.95 941.65zM1046.89 84.15L1077.2 101.65L1077.2 136.65L1046.89 154.15L1016.58 136.65L1016.58 101.65zM1077.2 136.65L1107.51 154.15L1107.51 189.15L1077.2 206.65L1046.89 189.15L1046.89 154.15zM1077.2 346.65L1107.51 364.15L1107.51 399.15L1077.2 416.65L1046.89 399.15L1046.89 364.15zM1137.82 346.65L1168.14 364.15L1168.14 399.15L1137.82 416.65L1107.51 399.15L1107.51 364.15zM1107.51 399.15L1137.82 416.65L1137.82 451.65L1107.51 469.15L1077.2 451.65L1077.2 416.65zM1137.82 451.65L1168.14 469.15L1168.14 504.15L1137.82 521.65L1107.51 504.15L1107.51 469.15zM1107.51 504.15L1137.82 521.65L1137.82 556.65L1107.51 574.15L1077.2 556.65L1077.2 521.65zM1198.45 241.65L1228.76 259.15L1228.76 294.15L1198.45 311.65L1168.14 294.15L1168.14 259.15zM1168.14 294.15L1198.45 311.65L1198.45 346.65L1168.14 364.15L1137.82 346.65L1137.82 311.65zM1168.14 504.15L1198.45 521.65L1198.45 556.65L1168.14 574.15L1137.82 556.65L1137.82 521.65zM1168.14 714.15L1198.45 731.65L1198.45 766.65L1168.14 784.15L1137.82 766.65L1137.82 731.65zM1168.14 1029.15L1198.45 1046.65L1198.45 1081.65L1168.14 1099.15L1137.82 1081.65L1137.82 1046.65zM1259.07 451.65L1289.38 469.15L1289.38 504.15L1259.07 521.65L1228.76 504.15L1228.76 469.15zM1228.76 609.15L1259.07 626.65L1259.07 661.65L1228.76 679.15L1198.45 661.65L1198.45 626.65zM1259.07 661.65L1289.38 679.15L1289.38 714.15L1259.07 731.65L1228.76 714.15L1228.76 679.15zM1228.76 714.15L1259.07 731.65L1259.07 766.65L1228.76 784.15L1198.45 766.65L1198.45 731.65zM1228.76 819.15L1259.07 836.65L1259.07 871.65L1228.76 889.15L1198.45 871.65L1198.45 836.65zM1319.7 31.65L1350.01 49.15L1350.01 84.15L1319.7 101.65L1289.38 84.15L1289.38 49.15zM1319.7 241.65L1350.01 259.15L1350.01 294.15L1319.7 311.65L1289.38 294.15L1289.38 259.15zM1289.38 294.15L1319.7 311.65L1319.7 346.65L1289.38 364.15L1259.07 346.65L1259.07 311.65zM1289.38 399.15L1319.7 416.65L1319.7 451.65L1289.38 469.15L1259.07 451.65L1259.07 416.65zM1319.7 451.65L1350.01 469.15L1350.01 504.15L1319.7 521.65L1289.38 504.15L1289.38 469.15zM1289.38 924.15L1319.7 941.65L1319.7 976.65L1289.38 994.15L1259.07 976.65L1259.07 941.65zM1350.01 504.15L1380.32 521.65L1380.32 556.65L1350.01 574.15L1319.7 556.65L1319.7 521.65zM1350.01 819.15L1380.32 836.65L1380.32 871.65L1350.01 889.15L1319.7 871.65L1319.7 836.65zM1380.32 871.65L1410.63 889.15L1410.63 924.15L1380.32 941.65L1350.01 924.15L1350.01 889.15zM1410.63 399.15L1440.94 416.65L1440.94 451.65L1410.63 469.15L1380.32 451.65L1380.32 416.65zM1440.94 661.65L1471.25 679.15L1471.25 714.15L1440.94 731.65L1410.63 714.15L1410.63 679.15zM1440.94 766.65L1471.25 784.15L1471.25 819.15L1440.94 836.65L1410.63 819.15L1410.63 784.15zM1501.57 136.65L1531.88 154.15L1531.88 189.15L1501.57 206.65L1471.25 189.15L1471.25 154.15zM1501.57 766.65L1531.88 784.15L1531.88 819.15L1501.57 836.65L1471.25 819.15L1471.25 784.15zM1501.57 871.65L1531.88 889.15L1531.88 924.15L1501.57 941.65L1471.25 924.15L1471.25 889.15zM1471.25 924.15L1501.57 941.65L1501.57 976.65L1471.25 994.15L1440.94 976.65L1440.94 941.65zM1471.25 1029.15L1501.57 1046.65L1501.57 1081.65L1471.25 1099.15L1440.94 1081.65L1440.94 1046.65zM1501.57 1081.65L1531.88 1099.15L1531.88 1134.15L1501.57 1151.65L1471.25 1134.15L1471.25 1099.15zM1531.88 84.15L1562.19 101.65L1562.19 136.65L1531.88 154.15L1501.57 136.65L1501.57 101.65zM1562.19 976.65L1592.5 994.15L1592.5 1029.15L1562.19 1046.65L1531.88 1029.15L1531.88 994.15zM1531.88 1029.15L1562.19 1046.65L1562.19 1081.65L1531.88 1099.15L1501.57 1081.65L1501.57 1046.65zM1592.5 -20.85L1622.81 -3.35L1622.81 31.65L1592.5 49.15L1562.19 31.65L1562.19 -3.35zM1622.81 346.65L1653.12 364.15L1653.12 399.15L1622.81 416.65L1592.5 399.15L1592.5 364.15zM1592.5 504.15L1622.81 521.65L1622.81 556.65L1592.5 574.15L1562.19 556.65L1562.19 521.65zM1622.81 556.65L1653.12 574.15L1653.12 609.15L1622.81 626.65L1592.5 609.15L1592.5 574.15zM1622.81 661.65L1653.12 679.15L1653.12 714.15L1622.81 731.65L1592.5 714.15L1592.5 679.15zM1592.5 714.15L1622.81 731.65L1622.81 766.65L1592.5 784.15L1562.19 766.65L1562.19 731.65zM1592.5 819.15L1622.81 836.65L1622.81 871.65L1592.5 889.15L1562.19 871.65L1562.19 836.65zM1592.5 1029.15L1622.81 1046.65L1622.81 1081.65L1592.5 1099.15L1562.19 1081.65L1562.19 1046.65zM1653.12 -20.85L1683.44 -3.35L1683.44 31.65L1653.12 49.15L1622.81 31.65L1622.81 -3.35zM1653.12 189.15L1683.44 206.65L1683.44 241.65L1653.12 259.15L1622.81 241.65L1622.81 206.65zM1653.12 294.15L1683.44 311.65L1683.44 346.65L1653.12 364.15L1622.81 346.65L1622.81 311.65zM1683.44 451.65L1713.75 469.15L1713.75 504.15L1683.44 521.65L1653.12 504.15L1653.12 469.15zM1653.12 609.15L1683.44 626.65L1683.44 661.65L1653.12 679.15L1622.81 661.65L1622.81 626.65zM1683.44 661.65L1713.75 679.15L1713.75 714.15L1683.44 731.65L1653.12 714.15L1653.12 679.15zM1713.75 84.15L1744.06 101.65L1744.06 136.65L1713.75 154.15L1683.44 136.65L1683.44 101.65zM1713.75 294.15L1744.06 311.65L1744.06 346.65L1713.75 364.15L1683.44 346.65L1683.44 311.65zM1713.75 714.15L1744.06 731.65L1744.06 766.65L1713.75 784.15L1683.44 766.65L1683.44 731.65zM1744.06 766.65L1774.37 784.15L1774.37 819.15L1744.06 836.65L1713.75 819.15L1713.75 784.15zM1744.06 871.65L1774.37 889.15L1774.37 924.15L1744.06 941.65L1713.75 924.15L1713.75 889.15zM1774.37 84.15L1804.68 101.65L1804.68 136.65L1774.37 154.15L1744.06 136.65L1744.06 101.65zM1774.37 294.15L1804.68 311.65L1804.68 346.65L1774.37 364.15L1744.06 346.65L1744.06 311.65zM1774.37 399.15L1804.68 416.65L1804.68 451.65L1774.37 469.15L1744.06 451.65L1744.06 416.65zM1804.68 976.65L1835 994.15L1835 1029.15L1804.68 1046.65L1774.37 1029.15L1774.37 994.15zM1834.99 -20.85L1865.31 -3.35L1865.31 31.65L1834.99 49.15L1804.68 31.65L1804.68 -3.35zM1865.31 31.65L1895.62 49.15L1895.62 84.15L1865.31 101.65L1834.99 84.15L1834.99 49.15zM1834.99 189.15L1865.31 206.65L1865.31 241.65L1834.99 259.15L1804.68 241.65L1804.68 206.65zM1834.99 294.15L1865.31 311.65L1865.31 346.65L1834.99 364.15L1804.68 346.65L1804.68 311.65zM1865.31 346.65L1895.62 364.15L1895.62 399.15L1865.31 416.65L1834.99 399.15L1834.99 364.15zM1865.31 766.65L1895.62 784.15L1895.62 819.15L1865.31 836.65L1834.99 819.15L1834.99 784.15zM1895.62 84.15L1925.93 101.65L1925.93 136.65L1895.62 154.15L1865.31 136.65L1865.31 101.65zM1925.93 136.65L1956.24 154.15L1956.24 189.15L1925.93 206.65L1895.62 189.15L1895.62 154.15zM1895.62 504.15L1925.93 521.65L1925.93 556.65L1895.62 574.15L1865.31 556.65L1865.31 521.65zM1925.93 556.65L1956.24 574.15L1956.24 609.15L1925.93 626.65L1895.62 609.15L1895.62 574.15zM1925.93 976.65L1956.24 994.15L1956.24 1029.15L1925.93 1046.65L1895.62 1029.15L1895.62 994.15zM1925.93 1081.65L1956.24 1099.15L1956.24 1134.15L1925.93 1151.65L1895.62 1134.15L1895.62 1099.15zM1986.55 31.65L2016.87 49.15L2016.87 84.15L1986.55 101.65L1956.24 84.15L1956.24 49.15zM1956.24 609.15L1986.55 626.65L1986.55 661.65L1956.24 679.15L1925.93 661.65L1925.93 626.65zM1956.24 819.15L1986.55 836.65L1986.55 871.65L1956.24 889.15L1925.93 871.65L1925.93 836.65zM2016.87 84.15L2047.18 101.65L2047.18 136.65L2016.87 154.15L1986.55 136.65L1986.55 101.65zM2016.87 714.15L2047.18 731.65L2047.18 766.65L2016.87 784.15L1986.55 766.65L1986.55 731.65zM2047.18 871.65L2077.49 889.15L2077.49 924.15L2047.18 941.65L2016.87 924.15L2016.87 889.15zM2016.87 1029.15L2047.18 1046.65L2047.18 1081.65L2016.87 1099.15L1986.55 1081.65L1986.55 1046.65zM2077.49 84.15L2107.8 101.65L2107.8 136.65L2077.49 154.15L2047.18 136.65L2047.18 101.65zM2107.8 346.65L2138.11 364.15L2138.11 399.15L2107.8 416.65L2077.49 399.15L2077.49 364.15zM2077.49 609.15L2107.8 626.65L2107.8 661.65L2077.49 679.15L2047.18 661.65L2047.18 626.65zM2107.8 871.65L2138.11 889.15L2138.11 924.15L2107.8 941.65L2077.49 924.15L2077.49 889.15zM2077.49 924.15L2107.8 941.65L2107.8 976.65L2077.49 994.15L2047.18 976.65L2047.18 941.65zM2138.11 294.15L2168.42 311.65L2168.42 346.65L2138.11 364.15L2107.8 346.65L2107.8 311.65zM2168.42 661.65L2198.74 679.15L2198.74 714.15L2168.42 731.65L2138.11 714.15L2138.11 679.15zM2138.11 1029.15L2168.42 1046.65L2168.42 1081.65L2138.11 1099.15L2107.8 1081.65L2107.8 1046.65zM2229.05 241.65L2259.36 259.15L2259.36 294.15L2229.05 311.65L2198.74 294.15L2198.74 259.15zM2229.05 346.65L2259.36 364.15L2259.36 399.15L2229.05 416.65L2198.74 399.15L2198.74 364.15zM2289.67 346.65L2319.98 364.15L2319.98 399.15L2289.67 416.65L2259.36 399.15L2259.36 364.15zM2289.67 451.65L2319.98 469.15L2319.98 504.15L2289.67 521.65L2259.36 504.15L2259.36 469.15zM2259.36 504.15L2289.67 521.65L2289.67 556.65L2259.36 574.15L2229.05 556.65L2229.05 521.65zM2289.67 556.65L2319.98 574.15L2319.98 609.15L2289.67 626.65L2259.36 609.15L2259.36 574.15zM2289.67 976.65L2319.98 994.15L2319.98 1029.15L2289.67 1046.65L2259.36 1029.15L2259.36 994.15zM2289.67 1081.65L2319.98 1099.15L2319.98 1134.15L2289.67 1151.65L2259.36 1134.15L2259.36 1099.15zM2319.98 189.15L2350.29 206.65L2350.29 241.65L2319.98 259.15L2289.67 241.65L2289.67 206.65zM2319.98 294.15L2350.29 311.65L2350.29 346.65L2319.98 364.15L2289.67 346.65L2289.67 311.65zM2350.29 661.65L2380.61 679.15L2380.61 714.15L2350.29 731.65L2319.98 714.15L2319.98 679.15zM2319.98 924.15L2350.29 941.65L2350.29 976.65L2319.98 994.15L2289.67 976.65L2289.67 941.65zM2380.61 609.15L2410.92 626.65L2410.92 661.65L2380.61 679.15L2350.29 661.65L2350.29 626.65zM2410.92 661.65L2441.23 679.15L2441.23 714.15L2410.92 731.65L2380.61 714.15L2380.61 679.15zM2441.23 -20.85L2471.54 -3.35L2471.54 31.65L2441.23 49.15L2410.92 31.65L2410.92 -3.35zM2471.54 346.65L2501.85 364.15L2501.85 399.15L2471.54 416.65L2441.23 399.15L2441.23 364.15zM2471.54 661.65L2501.85 679.15L2501.85 714.15L2471.54 731.65L2441.23 714.15L2441.23 679.15zM2441.23 714.15L2471.54 731.65L2471.54 766.65L2441.23 784.15L2410.92 766.65L2410.92 731.65zM2562.48 504.15L2592.79 521.65L2592.79 556.65L2562.48 574.15L2532.17 556.65L2532.17 521.65zM2592.79 556.65L2623.1 574.15L2623.1 609.15L2592.79 626.65L2562.48 609.15L2562.48 574.15zM2592.79 976.65L2623.1 994.15L2623.1 1029.15L2592.79 1046.65L2562.48 1029.15L2562.48 994.15zM2592.79 1081.65L2623.1 1099.15L2623.1 1134.15L2592.79 1151.65L2562.48 1134.15L2562.48 1099.15zM2623.1 84.15L2653.41 101.65L2653.41 136.65L2623.1 154.15L2592.79 136.65L2592.79 101.65zM2623.1 294.15L2653.41 311.65L2653.41 346.65L2623.1 364.15L2592.79 346.65L2592.79 311.65zM2653.41 451.65L2683.72 469.15L2683.72 504.15L2653.41 521.65L2623.1 504.15L2623.1 469.15zM2623.1 714.15L2653.41 731.65L2653.41 766.65L2623.1 784.15L2592.79 766.65L2592.79 731.65zM2653.41 871.65L2683.72 889.15L2683.72 924.15L2653.41 941.65L2623.1 924.15L2623.1 889.15zM2653.41 976.65L2683.72 994.15L2683.72 1029.15L2653.41 1046.65L2623.1 1029.15L2623.1 994.15zM2623.1 1029.15L2653.41 1046.65L2653.41 1081.65L2623.1 1099.15L2592.79 1081.65L2592.79 1046.65zM2653.41 1081.65L2683.72 1099.15L2683.72 1134.15L2653.41 1151.65L2623.1 1134.15L2623.1 1099.15zM2714.04 136.65L2744.35 154.15L2744.35 189.15L2714.04 206.65L2683.72 189.15L2683.72 154.15zM2683.72 399.15L2714.04 416.65L2714.04 451.65L2683.72 469.15L2653.41 451.65L2653.41 416.65zM2683.72 504.15L2714.04 521.65L2714.04 556.65L2683.72 574.15L2653.41 556.65L2653.41 521.65zM2714.04 1081.65L2744.35 1099.15L2744.35 1134.15L2714.04 1151.65L2683.72 1134.15L2683.72 1099.15zM2774.66 31.65L2804.97 49.15L2804.97 84.15L2774.66 101.65L2744.35 84.15L2744.35 49.15zM2774.66 451.65L2804.97 469.15L2804.97 504.15L2774.66 521.65L2744.35 504.15L2744.35 469.15zM2774.66 871.65L2804.97 889.15L2804.97 924.15L2774.66 941.65L2744.35 924.15L2744.35 889.15zM2835.28 241.65L2865.59 259.15L2865.59 294.15L2835.28 311.65L2804.97 294.15L2804.97 259.15zM2835.28 556.65L2865.59 574.15L2865.59 609.15L2835.28 626.65L2804.97 609.15L2804.97 574.15zM2835.28 871.65L2865.59 889.15L2865.59 924.15L2835.28 941.65L2804.97 924.15L2804.97 889.15zM2804.97 924.15L2835.28 941.65L2835.28 976.65L2804.97 994.15L2774.66 976.65L2774.66 941.65zM2804.97 1029.15L2835.28 1046.65L2835.28 1081.65L2804.97 1099.15L2774.66 1081.65L2774.66 1046.65zM2835.28 1081.65L2865.59 1099.15L2865.59 1134.15L2835.28 1151.65L2804.97 1134.15L2804.97 1099.15zM2865.59 84.15L2895.91 101.65L2895.91 136.65L2865.59 154.15L2835.28 136.65L2835.28 101.65zM2895.91 136.65L2926.22 154.15L2926.22 189.15L2895.91 206.65L2865.59 189.15L2865.59 154.15zM2895.91 451.65L2926.22 469.15L2926.22 504.15L2895.91 521.65L2865.59 504.15L2865.59 469.15zM2895.91 766.65L2926.22 784.15L2926.22 819.15L2895.91 836.65L2865.59 819.15L2865.59 784.15zM2956.53 451.65L2986.84 469.15L2986.84 504.15L2956.53 521.65L2926.22 504.15L2926.22 469.15zM2986.84 189.15L3017.15 206.65L3017.15 241.65L2986.84 259.15L2956.53 241.65L2956.53 206.65zM2986.84 714.15L3017.15 731.65L3017.15 766.65L2986.84 784.15L2956.53 766.65L2956.53 731.65zM3017.15 871.65L3047.46 889.15L3047.46 924.15L3017.15 941.65L2986.84 924.15L2986.84 889.15zM3017.15 1081.65L3047.46 1099.15L3047.46 1134.15L3017.15 1151.65L2986.84 1134.15L2986.84 1099.15z" stroke="#03305d" stroke-width="2"></path><path d="M43.1 136.65 a3.5 3.5 0 1 0 7 0 a3.5 3.5 0 1 0 -7 0zM73.41 154.15 a3.5 3.5 0 1 0 7 0 a3.5 3.5 0 1 0 -7 0zM73.41 189.15 a3.5 3.5 0 1 0 7 0 a3.5 3.5 0 1 0 -7 0zM43.1 206.65 a3.5 3.5 0 1 0 7 0 a3.5 3.5 0 1 0 -7 0zM12.79 189.15 a3.5 3.5 0 1 0 7 0 a3.5 3.5 0 1 0 -7 0zM12.79 154.15 a3.5 3.5 0 1 0 7 0 a3.5 3.5 0 1 0 -7 0zM43.1 241.65 a3.5 3.5 0 1 0 7 0 a3.5 3.5 0 1 0 -7 0zM12.79 259.15 a3.5 3.5 0 1 0 7 0 a3.5 3.5 0 1 0 -7 0zM-17.52 241.65 a3.5 3.5 0 1 0 7 0 a3.5 3.5 0 1 0 -7 0zM-17.52 206.65 a3.5 3.5 0 1 0 7 0 a3.5 3.5 0 1 0 -7 0zM73.41 259.15 a3.5 3.5 0 1 0 7 0 a3.5 3.5 0 1 0 -7 0zM73.41 294.15 a3.5 3.5 0 1 0 7 0 a3.5 3.5 0 1 0 -7 0zM43.1 311.65 a3.5 3.5 0 1 0 7 0 a3.5 3.5 0 1 0 -7 0zM12.79 294.15 a3.5 3.5 0 1 0 7 0 a3.5 3.5 0 1 0 -7 0zM43.1 346.65 a3.5 3.5 0 1 0 7 0 a3.5 3.5 0 1 0 -7 0zM73.41 364.15 a3.5 3.5 0 1 0 7 0 a3.5 3.5 0 1 0 -7 0zM73.41 399.15 a3.5 3.5 0 1 0 7 0 a3.5 3.5 0 1 0 -7 0zM43.1 416.65 a3.5 3.5 0 1 0 7 0 a3.5 3.5 0 1 0 -7 0zM12.79 399.15 a3.5 3.5 0 1 0 7 0 a3.5 3.5 0 1 0 -7 0zM12.79 364.15 a3.5 3.5 0 1 0 7 0 a3.5 3.5 0 1 0 -7 0zM43.1 766.65 a3.5 3.5 0 1 0 7 0 a3.5 3.5 0 1 0 -7 0zM73.41 784.15 a3.5 3.5 0 1 0 7 0 a3.5 3.5 0 1 0 -7 0zM73.41 819.15 a3.5 3.5 0 1 0 7 0 a3.5 3.5 0 1 0 -7 0zM43.1 836.65 a3.5 3.5 0 1 0 7 0 a3.5 3.5 0 1 0 -7 0zM12.79 819.15 a3.5 3.5 0 1 0 7 0 a3.5 3.5 0 1 0 -7 0zM12.79 784.15 a3.5 3.5 0 1 0 7 0 a3.5 3.5 0 1 0 -7 0zM43.1 1081.65 a3.5 3.5 0 1 0 7 0 a3.5 3.5 0 1 0 -7 0zM73.41 1099.15 a3.5 3.5 0 1 0 7 0 a3.5 3.5 0 1 0 -7 0zM73.41 1134.15 a3.5 3.5 0 1 0 7 0 a3.5 3.5 0 1 0 -7 0zM43.1 1151.65 a3.5 3.5 0 1 0 7 0 a3.5 3.5 0 1 0 -7 0zM12.79 1134.15 a3.5 3.5 0 1 0 7 0 a3.5 3.5 0 1 0 -7 0zM12.79 1099.15 a3.5 3.5 0 1 0 7 0 a3.5 3.5 0 1 0 -7 0zM103.73 31.65 a3.5 3.5 0 1 0 7 0 a3.5 3.5 0 1 0 -7 0zM134.04 49.15 a3.5 3.5 0 1 0 7 0 a3.5 3.5 0 1 0 -7 0zM134.04 84.15 a3.5 3.5 0 1 0 7 0 a3.5 3.5 0 1 0 -7 0zM103.73 101.65 a3.5 3.5 0 1 0 7 0 a3.5 3.5 0 1 0 -7 0zM73.41 84.15 a3.5 3.5 0 1 0 7 0 a3.5 3.5 0 1 0 -7 0zM73.41 49.15 a3.5 3.5 0 1 0 7 0 a3.5 3.5 0 1 0 -7 0zM103.73 136.65 a3.5 3.5 0 1 0 7 0 a3.5 3.5 0 1 0 -7 0zM43.1 101.65 a3.5 3.5 0 1 0 7 0 a3.5 3.5 0 1 0 -7 0zM103.73 241.65 a3.5 3.5 0 1 0 7 0 a3.5 3.5 0 1 0 -7 0zM134.04 259.15 a3.5 3.5 0 1 0 7 0 a3.5 3.5 0 1 0 -7 0zM134.04 294.15 a3.5 3.5 0 1 0 7 0 a3.5 3.5 0 1 0 -7 0zM103.73 311.65 a3.5 3.5 0 1 0 7 0 a3.5 3.5 0 1 0 -7 0zM103.73 451.65 a3.5 3.5 0 1 0 7 0 a3.5 3.5 0 1 0 -7 0zM134.04 469.15 a3.5 3.5 0 1 0 7 0 a3.5 3.5 0 1 0 -7 0zM134.04 504.15 a3.5 3.5 0 1 0 7 0 a3.5 3.5 0 1 0 -7 0zM103.73 521.65 a3.5 3.5 0 1 0 7 0 a3.5 3.5 0 1 0 -7 0zM73.41 504.15 a3.5 3.5 0 1 0 7 0 a3.5 3.5 0 1 0 -7 0zM73.41 469.15 a3.5 3.5 0 1 0 7 0 a3.5 3.5 0 1 0 -7 0zM73.41 714.15 a3.5 3.5 0 1 0 7 0 a3.5 3.5 0 1 0 -7 0zM103.73 731.65 a3.5 3.5 0 1 0 7 0 a3.5 3.5 0 1 0 -7 0zM103.73 766.65 a3.5 3.5 0 1 0 7 0 a3.5 3.5 0 1 0 -7 0zM43.1 731.65 a3.5 3.5 0 1 0 7 0 a3.5 3.5 0 1 0 -7 0zM103.73 871.65 a3.5 3.5 0 1 0 7 0 a3.5 3.5 0 1 0 -7 0zM134.04 889.15 a3.5 3.5 0 1 0 7 0 a3.5 3.5 0 1 0 -7 0zM134.04 924.15 a3.5 3.5 0 1 0 7 0 a3.5 3.5 0 1 0 -7 0zM103.73 941.65 a3.5 3.5 0 1 0 7 0 a3.5 3.5 0 1 0 -7 0zM73.41 924.15 a3.5 3.5 0 1 0 7 0 a3.5 3.5 0 1 0 -7 0zM73.41 889.15 a3.5 3.5 0 1 0 7 0 a3.5 3.5 0 1 0 -7 0zM164.35 346.65 a3.5 3.5 0 1 0 7 0 a3.5 3.5 0 1 0 -7 0zM194.66 364.15 a3.5 3.5 0 1 0 7 0 a3.5 3.5 0 1 0 -7 0zM194.66 399.15 a3.5 3.5 0 1 0 7 0 a3.5 3.5 0 1 0 -7 0zM164.35 416.65 a3.5 3.5 0 1 0 7 0 a3.5 3.5 0 1 0 -7 0zM134.04 399.15 a3.5 3.5 0 1 0 7 0 a3.5 3.5 0 1 0 -7 0zM134.04 364.15 a3.5 3.5 0 1 0 7 0 a3.5 3.5 0 1 0 -7 0zM134.04 609.15 a3.5 3.5 0 1 0 7 0 a3.5 3.5 0 1 0 -7 0zM164.35 626.65 a3.5 3.5 0 1 0 7 0 a3.5 3.5 0 1 0 -7 0zM164.35 661.65 a3.5 3.5 0 1 0 7 0 a3.5 3.5 0 1 0 -7 0zM134.04 679.15 a3.5 3.5 0 1 0 7 0 a3.5 3.5 0 1 0 -7 0zM103.73 661.65 a3.5 3.5 0 1 0 7 0 a3.5 3.5 0 1 0 -7 0zM103.73 626.65 a3.5 3.5 0 1 0 7 0 a3.5 3.5 0 1 0 -7 0zM164.35 766.65 a3.5 3.5 0 1 0 7 0 a3.5 3.5 0 1 0 -7 0zM194.66 784.15 a3.5 3.5 0 1 0 7 0 a3.5 3.5 0 1 0 -7 0zM194.66 819.15 a3.5 3.5 0 1 0 7 0 a3.5 3.5 0 1 0 -7 0zM164.35 836.65 a3.5 3.5 0 1 0 7 0 a3.5 3.5 0 1 0 -7 0zM134.04 819.15 a3.5 3.5 0 1 0 7 0 a3.5 3.5 0 1 0 -7 0zM134.04 784.15 a3.5 3.5 0 1 0 7 0 a3.5 3.5 0 1 0 -7 0zM194.66 84.15 a3.5 3.5 0 1 0 7 0 a3.5 3.5 0 1 0 -7 0zM224.97 101.65 a3.5 3.5 0 1 0 7 0 a3.5 3.5 0 1 0 -7 0zM224.97 136.65 a3.5 3.5 0 1 0 7 0 a3.5 3.5 0 1 0 -7 0zM194.66 154.15 a3.5 3.5 0 1 0 7 0 a3.5 3.5 0 1 0 -7 0zM164.35 136.65 a3.5 3.5 0 1 0 7 0 a3.5 3.5 0 1 0 -7 0zM164.35 101.65 a3.5 3.5 0 1 0 7 0 a3.5 3.5 0 1 0 -7 0zM194.66 189.15 a3.5 3.5 0 1 0 7 0 a3.5 3.5 0 1 0 -7 0zM224.97 206.65 a3.5 3.5 0 1 0 7 0 a3.5 3.5 0 1 0 -7 0zM224.97 241.65 a3.5 3.5 0 1 0 7 0 a3.5 3.5 0 1 0 -7 0zM194.66 259.15 a3.5 3.5 0 1 0 7 0 a3.5 3.5 0 1 0 -7 0zM164.35 241.65 a3.5 3.5 0 1 0 7 0 a3.5 3.5 0 1 0 -7 0zM164.35 206.65 a3.5 3.5 0 1 0 7 0 a3.5 3.5 0 1 0 -7 0zM194.66 294.15 a3.5 3.5 0 1 0 7 0 a3.5 3.5 0 1 0 -7 0zM224.97 311.65 a3.5 3.5 0 1 0 7 0 a3.5 3.5 0 1 0 -7 0zM224.97 346.65 a3.5 3.5 0 1 0 7 0 a3.5 3.5 0 1 0 -7 0zM164.35 311.65 a3.5 3.5 0 1 0 7 0 a3.5 3.5 0 1 0 -7 0zM224.97 416.65 a3.5 3.5 0 1 0 7 0 a3.5 3.5 0 1 0 -7 0zM224.97 451.65 a3.5 3.5 0 1 0 7 0 a3.5 3.5 0 1 0 -7 0zM194.66 469.15 a3.5 3.5 0 1 0 7 0 a3.5 3.5 0 1 0 -7 0zM164.35 451.65 a3.5 3.5 0 1 0 7 0 a3.5 3.5 0 1 0 -7 0zM224.97 1081.65 a3.5 3.5 0 1 0 7 0 a3.5 3.5 0 1 0 -7 0zM255.28 1099.15 a3.5 3.5 0 1 0 7 0 a3.5 3.5 0 1 0 -7 0zM255.28 1134.15 a3.5 3.5 0 1 0 7 0 a3.5 3.5 0 1 0 -7 0zM224.97 1151.65 a3.5 3.5 0 1 0 7 0 a3.5 3.5 0 1 0 -7 0zM194.66 1134.15 a3.5 3.5 0 1 0 7 0 a3.5 3.5 0 1 0 -7 0zM194.66 1099.15 a3.5 3.5 0 1 0 7 0 a3.5 3.5 0 1 0 -7 0zM285.6 136.65 a3.5 3.5 0 1 0 7 0 a3.5 3.5 0 1 0 -7 0zM315.91 154.15 a3.5 3.5 0 1 0 7 0 a3.5 3.5 0 1 0 -7 0zM315.91 189.15 a3.5 3.5 0 1 0 7 0 a3.5 3.5 0 1 0 -7 0zM285.6 206.65 a3.5 3.5 0 1 0 7 0 a3.5 3.5 0 1 0 -7 0zM255.28 189.15 a3.5 3.5 0 1 0 7 0 a3.5 3.5 0 1 0 -7 0zM255.28 154.15 a3.5 3.5 0 1 0 7 0 a3.5 3.5 0 1 0 -7 0zM285.6 241.65 a3.5 3.5 0 1 0 7 0 a3.5 3.5 0 1 0 -7 0zM255.28 259.15 a3.5 3.5 0 1 0 7 0 a3.5 3.5 0 1 0 -7 0zM285.6 556.65 a3.5 3.5 0 1 0 7 0 a3.5 3.5 0 1 0 -7 0zM315.91 574.15 a3.5 3.5 0 1 0 7 0 a3.5 3.5 0 1 0 -7 0zM315.91 609.15 a3.5 3.5 0 1 0 7 0 a3.5 3.5 0 1 0 -7 0zM285.6 626.65 a3.5 3.5 0 1 0 7 0 a3.5 3.5 0 1 0 -7 0zM255.28 609.15 a3.5 3.5 0 1 0 7 0 a3.5 3.5 0 1 0 -7 0zM255.28 574.15 a3.5 3.5 0 1 0 7 0 a3.5 3.5 0 1 0 -7 0zM285.6 661.65 a3.5 3.5 0 1 0 7 0 a3.5 3.5 0 1 0 -7 0zM315.91 679.15 a3.5 3.5 0 1 0 7 0 a3.5 3.5 0 1 0 -7 0zM315.91 714.15 a3.5 3.5 0 1 0 7 0 a3.5 3.5 0 1 0 -7 0zM285.6 731.65 a3.5 3.5 0 1 0 7 0 a3.5 3.5 0 1 0 -7 0zM255.28 714.15 a3.5 3.5 0 1 0 7 0 a3.5 3.5 0 1 0 -7 0zM255.28 679.15 a3.5 3.5 0 1 0 7 0 a3.5 3.5 0 1 0 -7 0zM285.6 871.65 a3.5 3.5 0 1 0 7 0 a3.5 3.5 0 1 0 -7 0zM315.91 889.15 a3.5 3.5 0 1 0 7 0 a3.5 3.5 0 1 0 -7 0zM315.91 924.15 a3.5 3.5 0 1 0 7 0 a3.5 3.5 0 1 0 -7 0zM285.6 941.65 a3.5 3.5 0 1 0 7 0 a3.5 3.5 0 1 0 -7 0zM255.28 924.15 a3.5 3.5 0 1 0 7 0 a3.5 3.5 0 1 0 -7 0zM255.28 889.15 a3.5 3.5 0 1 0 7 0 a3.5 3.5 0 1 0 -7 0zM346.22 136.65 a3.5 3.5 0 1 0 7 0 a3.5 3.5 0 1 0 -7 0zM376.53 154.15 a3.5 3.5 0 1 0 7 0 a3.5 3.5 0 1 0 -7 0zM376.53 189.15 a3.5 3.5 0 1 0 7 0 a3.5 3.5 0 1 0 -7 0zM346.22 206.65 a3.5 3.5 0 1 0 7 0 a3.5 3.5 0 1 0 -7 0zM346.22 346.65 a3.5 3.5 0 1 0 7 0 a3.5 3.5 0 1 0 -7 0zM376.53 364.15 a3.5 3.5 0 1 0 7 0 a3.5 3.5 0 1 0 -7 0zM376.53 399.15 a3.5 3.5 0 1 0 7 0 a3.5 3.5 0 1 0 -7 0zM346.22 416.65 a3.5 3.5 0 1 0 7 0 a3.5 3.5 0 1 0 -7 0zM315.91 399.15 a3.5 3.5 0 1 0 7 0 a3.5 3.5 0 1 0 -7 0zM315.91 364.15 a3.5 3.5 0 1 0 7 0 a3.5 3.5 0 1 0 -7 0zM315.91 504.15 a3.5 3.5 0 1 0 7 0 a3.5 3.5 0 1 0 -7 0zM346.22 521.65 a3.5 3.5 0 1 0 7 0 a3.5 3.5 0 1 0 -7 0zM346.22 556.65 a3.5 3.5 0 1 0 7 0 a3.5 3.5 0 1 0 -7 0zM285.6 521.65 a3.5 3.5 0 1 0 7 0 a3.5 3.5 0 1 0 -7 0zM346.22 871.65 a3.5 3.5 0 1 0 7 0 a3.5 3.5 0 1 0 -7 0zM376.53 889.15 a3.5 3.5 0 1 0 7 0 a3.5 3.5 0 1 0 -7 0zM376.53 924.15 a3.5 3.5 0 1 0 7 0 a3.5 3.5 0 1 0 -7 0zM346.22 941.65 a3.5 3.5 0 1 0 7 0 a3.5 3.5 0 1 0 -7 0zM376.53 504.15 a3.5 3.5 0 1 0 7 0 a3.5 3.5 0 1 0 -7 0zM406.84 521.65 a3.5 3.5 0 1 0 7 0 a3.5 3.5 0 1 0 -7 0zM406.84 556.65 a3.5 3.5 0 1 0 7 0 a3.5 3.5 0 1 0 -7 0zM376.53 574.15 a3.5 3.5 0 1 0 7 0 a3.5 3.5 0 1 0 -7 0zM467.47 241.65 a3.5 3.5 0 1 0 7 0 a3.5 3.5 0 1 0 -7 0zM497.78 259.15 a3.5 3.5 0 1 0 7 0 a3.5 3.5 0 1 0 -7 0zM497.78 294.15 a3.5 3.5 0 1 0 7 0 a3.5 3.5 0 1 0 -7 0zM467.47 311.65 a3.5 3.5 0 1 0 7 0 a3.5 3.5 0 1 0 -7 0zM437.15 294.15 a3.5 3.5 0 1 0 7 0 a3.5 3.5 0 1 0 -7 0zM437.15 259.15 a3.5 3.5 0 1 0 7 0 a3.5 3.5 0 1 0 -7 0zM437.15 399.15 a3.5 3.5 0 1 0 7 0 a3.5 3.5 0 1 0 -7 0zM467.47 416.65 a3.5 3.5 0 1 0 7 0 a3.5 3.5 0 1 0 -7 0zM467.47 451.65 a3.5 3.5 0 1 0 7 0 a3.5 3.5 0 1 0 -7 0zM437.15 469.15 a3.5 3.5 0 1 0 7 0 a3.5 3.5 0 1 0 -7 0zM406.84 451.65 a3.5 3.5 0 1 0 7 0 a3.5 3.5 0 1 0 -7 0zM406.84 416.65 a3.5 3.5 0 1 0 7 0 a3.5 3.5 0 1 0 -7 0zM467.47 556.65 a3.5 3.5 0 1 0 7 0 a3.5 3.5 0 1 0 -7 0zM497.78 574.15 a3.5 3.5 0 1 0 7 0 a3.5 3.5 0 1 0 -7 0zM497.78 609.15 a3.5 3.5 0 1 0 7 0 a3.5 3.5 0 1 0 -7 0zM467.47 626.65 a3.5 3.5 0 1 0 7 0 a3.5 3.5 0 1 0 -7 0zM437.15 609.15 a3.5 3.5 0 1 0 7 0 a3.5 3.5 0 1 0 -7 0zM437.15 574.15 a3.5 3.5 0 1 0 7 0 a3.5 3.5 0 1 0 -7 0zM467.47 661.65 a3.5 3.5 0 1 0 7 0 a3.5 3.5 0 1 0 -7 0zM437.15 679.15 a3.5 3.5 0 1 0 7 0 a3.5 3.5 0 1 0 -7 0zM406.84 661.65 a3.5 3.5 0 1 0 7 0 a3.5 3.5 0 1 0 -7 0zM406.84 626.65 a3.5 3.5 0 1 0 7 0 a3.5 3.5 0 1 0 -7 0zM497.78 679.15 a3.5 3.5 0 1 0 7 0 a3.5 3.5 0 1 0 -7 0zM497.78 714.15 a3.5 3.5 0 1 0 7 0 a3.5 3.5 0 1 0 -7 0zM467.47 731.65 a3.5 3.5 0 1 0 7 0 a3.5 3.5 0 1 0 -7 0zM437.15 714.15 a3.5 3.5 0 1 0 7 0 a3.5 3.5 0 1 0 -7 0zM528.09 136.65 a3.5 3.5 0 1 0 7 0 a3.5 3.5 0 1 0 -7 0zM558.4 154.15 a3.5 3.5 0 1 0 7 0 a3.5 3.5 0 1 0 -7 0zM558.4 189.15 a3.5 3.5 0 1 0 7 0 a3.5 3.5 0 1 0 -7 0zM528.09 206.65 a3.5 3.5 0 1 0 7 0 a3.5 3.5 0 1 0 -7 0zM497.78 189.15 a3.5 3.5 0 1 0 7 0 a3.5 3.5 0 1 0 -7 0zM497.78 154.15 a3.5 3.5 0 1 0 7 0 a3.5 3.5 0 1 0 -7 0zM528.09 241.65 a3.5 3.5 0 1 0 7 0 a3.5 3.5 0 1 0 -7 0zM558.4 259.15 a3.5 3.5 0 1 0 7 0 a3.5 3.5 0 1 0 -7 0zM558.4 294.15 a3.5 3.5 0 1 0 7 0 a3.5 3.5 0 1 0 -7 0zM528.09 311.65 a3.5 3.5 0 1 0 7 0 a3.5 3.5 0 1 0 -7 0zM528.09 766.65 a3.5 3.5 0 1 0 7 0 a3.5 3.5 0 1 0 -7 0zM558.4 784.15 a3.5 3.5 0 1 0 7 0 a3.5 3.5 0 1 0 -7 0zM558.4 819.15 a3.5 3.5 0 1 0 7 0 a3.5 3.5 0 1 0 -7 0zM528.09 836.65 a3.5 3.5 0 1 0 7 0 a3.5 3.5 0 1 0 -7 0zM497.78 819.15 a3.5 3.5 0 1 0 7 0 a3.5 3.5 0 1 0 -7 0zM497.78 784.15 a3.5 3.5 0 1 0 7 0 a3.5 3.5 0 1 0 -7 0zM497.78 1029.15 a3.5 3.5 0 1 0 7 0 a3.5 3.5 0 1 0 -7 0zM528.09 1046.65 a3.5 3.5 0 1 0 7 0 a3.5 3.5 0 1 0 -7 0zM528.09 1081.65 a3.5 3.5 0 1 0 7 0 a3.5 3.5 0 1 0 -7 0zM497.78 1099.15 a3.5 3.5 0 1 0 7 0 a3.5 3.5 0 1 0 -7 0zM467.47 1081.65 a3.5 3.5 0 1 0 7 0 a3.5 3.5 0 1 0 -7 0zM467.47 1046.65 a3.5 3.5 0 1 0 7 0 a3.5 3.5 0 1 0 -7 0zM588.71 311.65 a3.5 3.5 0 1 0 7 0 a3.5 3.5 0 1 0 -7 0zM588.71 346.65 a3.5 3.5 0 1 0 7 0 a3.5 3.5 0 1 0 -7 0zM558.4 364.15 a3.5 3.5 0 1 0 7 0 a3.5 3.5 0 1 0 -7 0zM528.09 346.65 a3.5 3.5 0 1 0 7 0 a3.5 3.5 0 1 0 -7 0zM558.4 504.15 a3.5 3.5 0 1 0 7 0 a3.5 3.5 0 1 0 -7 0zM588.71 521.65 a3.5 3.5 0 1 0 7 0 a3.5 3.5 0 1 0 -7 0zM588.71 556.65 a3.5 3.5 0 1 0 7 0 a3.5 3.5 0 1 0 -7 0zM558.4 574.15 a3.5 3.5 0 1 0 7 0 a3.5 3.5 0 1 0 -7 0zM528.09 556.65 a3.5 3.5 0 1 0 7 0 a3.5 3.5 0 1 0 -7 0zM528.09 521.65 a3.5 3.5 0 1 0 7 0 a3.5 3.5 0 1 0 -7 0zM619.02 574.15 a3.5 3.5 0 1 0 7 0 a3.5 3.5 0 1 0 -7 0zM619.02 609.15 a3.5 3.5 0 1 0 7 0 a3.5 3.5 0 1 0 -7 0zM588.71 626.65 a3.5 3.5 0 1 0 7 0 a3.5 3.5 0 1 0 -7 0zM558.4 609.15 a3.5 3.5 0 1 0 7 0 a3.5 3.5 0 1 0 -7 0zM588.71 661.65 a3.5 3.5 0 1 0 7 0 a3.5 3.5 0 1 0 -7 0zM619.02 679.15 a3.5 3.5 0 1 0 7 0 a3.5 3.5 0 1 0 -7 0zM619.02 714.15 a3.5 3.5 0 1 0 7 0 a3.5 3.5 0 1 0 -7 0zM588.71 731.65 a3.5 3.5 0 1 0 7 0 a3.5 3.5 0 1 0 -7 0zM558.4 714.15 a3.5 3.5 0 1 0 7 0 a3.5 3.5 0 1 0 -7 0zM558.4 679.15 a3.5 3.5 0 1 0 7 0 a3.5 3.5 0 1 0 -7 0zM588.71 1081.65 a3.5 3.5 0 1 0 7 0 a3.5 3.5 0 1 0 -7 0zM619.02 1099.15 a3.5 3.5 0 1 0 7 0 a3.5 3.5 0 1 0 -7 0zM619.02 1134.15 a3.5 3.5 0 1 0 7 0 a3.5 3.5 0 1 0 -7 0zM588.71 1151.65 a3.5 3.5 0 1 0 7 0 a3.5 3.5 0 1 0 -7 0zM558.4 1134.15 a3.5 3.5 0 1 0 7 0 a3.5 3.5 0 1 0 -7 0zM558.4 1099.15 a3.5 3.5 0 1 0 7 0 a3.5 3.5 0 1 0 -7 0zM649.34 451.65 a3.5 3.5 0 1 0 7 0 a3.5 3.5 0 1 0 -7 0zM679.65 469.15 a3.5 3.5 0 1 0 7 0 a3.5 3.5 0 1 0 -7 0zM679.65 504.15 a3.5 3.5 0 1 0 7 0 a3.5 3.5 0 1 0 -7 0zM649.34 521.65 a3.5 3.5 0 1 0 7 0 a3.5 3.5 0 1 0 -7 0zM619.02 504.15 a3.5 3.5 0 1 0 7 0 a3.5 3.5 0 1 0 -7 0zM619.02 469.15 a3.5 3.5 0 1 0 7 0 a3.5 3.5 0 1 0 -7 0zM649.34 661.65 a3.5 3.5 0 1 0 7 0 a3.5 3.5 0 1 0 -7 0zM679.65 679.15 a3.5 3.5 0 1 0 7 0 a3.5 3.5 0 1 0 -7 0zM679.65 714.15 a3.5 3.5 0 1 0 7 0 a3.5 3.5 0 1 0 -7 0zM649.34 731.65 a3.5 3.5 0 1 0 7 0 a3.5 3.5 0 1 0 -7 0zM649.34 871.65 a3.5 3.5 0 1 0 7 0 a3.5 3.5 0 1 0 -7 0zM679.65 889.15 a3.5 3.5 0 1 0 7 0 a3.5 3.5 0 1 0 -7 0zM679.65 924.15 a3.5 3.5 0 1 0 7 0 a3.5 3.5 0 1 0 -7 0zM649.34 941.65 a3.5 3.5 0 1 0 7 0 a3.5 3.5 0 1 0 -7 0zM619.02 924.15 a3.5 3.5 0 1 0 7 0 a3.5 3.5 0 1 0 -7 0zM619.02 889.15 a3.5 3.5 0 1 0 7 0 a3.5 3.5 0 1 0 -7 0zM709.96 136.65 a3.5 3.5 0 1 0 7 0 a3.5 3.5 0 1 0 -7 0zM740.27 154.15 a3.5 3.5 0 1 0 7 0 a3.5 3.5 0 1 0 -7 0zM740.27 189.15 a3.5 3.5 0 1 0 7 0 a3.5 3.5 0 1 0 -7 0zM709.96 206.65 a3.5 3.5 0 1 0 7 0 a3.5 3.5 0 1 0 -7 0zM679.65 189.15 a3.5 3.5 0 1 0 7 0 a3.5 3.5 0 1 0 -7 0zM679.65 154.15 a3.5 3.5 0 1 0 7 0 a3.5 3.5 0 1 0 -7 0zM709.96 346.65 a3.5 3.5 0 1 0 7 0 a3.5 3.5 0 1 0 -7 0zM740.27 364.15 a3.5 3.5 0 1 0 7 0 a3.5 3.5 0 1 0 -7 0zM740.27 399.15 a3.5 3.5 0 1 0 7 0 a3.5 3.5 0 1 0 -7 0zM709.96 416.65 a3.5 3.5 0 1 0 7 0 a3.5 3.5 0 1 0 -7 0zM679.65 399.15 a3.5 3.5 0 1 0 7 0 a3.5 3.5 0 1 0 -7 0zM679.65 364.15 a3.5 3.5 0 1 0 7 0 a3.5 3.5 0 1 0 -7 0zM709.96 451.65 a3.5 3.5 0 1 0 7 0 a3.5 3.5 0 1 0 -7 0zM649.34 416.65 a3.5 3.5 0 1 0 7 0 a3.5 3.5 0 1 0 -7 0zM709.96 521.65 a3.5 3.5 0 1 0 7 0 a3.5 3.5 0 1 0 -7 0zM709.96 556.65 a3.5 3.5 0 1 0 7 0 a3.5 3.5 0 1 0 -7 0zM679.65 574.15 a3.5 3.5 0 1 0 7 0 a3.5 3.5 0 1 0 -7 0zM649.34 556.65 a3.5 3.5 0 1 0 7 0 a3.5 3.5 0 1 0 -7 0zM679.65 819.15 a3.5 3.5 0 1 0 7 0 a3.5 3.5 0 1 0 -7 0zM709.96 836.65 a3.5 3.5 0 1 0 7 0 a3.5 3.5 0 1 0 -7 0zM709.96 871.65 a3.5 3.5 0 1 0 7 0 a3.5 3.5 0 1 0 -7 0zM649.34 836.65 a3.5 3.5 0 1 0 7 0 a3.5 3.5 0 1 0 -7 0zM740.27 -20.85 a3.5 3.5 0 1 0 7 0 a3.5 3.5 0 1 0 -7 0zM770.58 -3.35 a3.5 3.5 0 1 0 7 0 a3.5 3.5 0 1 0 -7 0zM770.58 31.65 a3.5 3.5 0 1 0 7 0 a3.5 3.5 0 1 0 -7 0zM740.27 49.15 a3.5 3.5 0 1 0 7 0 a3.5 3.5 0 1 0 -7 0zM709.96 31.65 a3.5 3.5 0 1 0 7 0 a3.5 3.5 0 1 0 -7 0zM709.96 -3.35 a3.5 3.5 0 1 0 7 0 a3.5 3.5 0 1 0 -7 0zM740.27 84.15 a3.5 3.5 0 1 0 7 0 a3.5 3.5 0 1 0 -7 0zM770.58 101.65 a3.5 3.5 0 1 0 7 0 a3.5 3.5 0 1 0 -7 0zM770.58 136.65 a3.5 3.5 0 1 0 7 0 a3.5 3.5 0 1 0 -7 0zM709.96 101.65 a3.5 3.5 0 1 0 7 0 a3.5 3.5 0 1 0 -7 0zM800.9 154.15 a3.5 3.5 0 1 0 7 0 a3.5 3.5 0 1 0 -7 0zM800.9 189.15 a3.5 3.5 0 1 0 7 0 a3.5 3.5 0 1 0 -7 0zM770.58 206.65 a3.5 3.5 0 1 0 7 0 a3.5 3.5 0 1 0 -7 0zM831.21 206.65 a3.5 3.5 0 1 0 7 0 a3.5 3.5 0 1 0 -7 0zM831.21 241.65 a3.5 3.5 0 1 0 7 0 a3.5 3.5 0 1 0 -7 0zM800.9 259.15 a3.5 3.5 0 1 0 7 0 a3.5 3.5 0 1 0 -7 0zM770.58 241.65 a3.5 3.5 0 1 0 7 0 a3.5 3.5 0 1 0 -7 0zM861.52 259.15 a3.5 3.5 0 1 0 7 0 a3.5 3.5 0 1 0 -7 0zM861.52 294.15 a3.5 3.5 0 1 0 7 0 a3.5 3.5 0 1 0 -7 0zM831.21 311.65 a3.5 3.5 0 1 0 7 0 a3.5 3.5 0 1 0 -7 0zM800.9 294.15 a3.5 3.5 0 1 0 7 0 a3.5 3.5 0 1 0 -7 0zM831.21 346.65 a3.5 3.5 0 1 0 7 0 a3.5 3.5 0 1 0 -7 0zM800.9 364.15 a3.5 3.5 0 1 0 7 0 a3.5 3.5 0 1 0 -7 0zM770.58 346.65 a3.5 3.5 0 1 0 7 0 a3.5 3.5 0 1 0 -7 0zM770.58 311.65 a3.5 3.5 0 1 0 7 0 a3.5 3.5 0 1 0 -7 0zM861.52 364.15 a3.5 3.5 0 1 0 7 0 a3.5 3.5 0 1 0 -7 0zM861.52 399.15 a3.5 3.5 0 1 0 7 0 a3.5 3.5 0 1 0 -7 0zM831.21 416.65 a3.5 3.5 0 1 0 7 0 a3.5 3.5 0 1 0 -7 0zM800.9 399.15 a3.5 3.5 0 1 0 7 0 a3.5 3.5 0 1 0 -7 0zM831.21 451.65 a3.5 3.5 0 1 0 7 0 a3.5 3.5 0 1 0 -7 0zM800.9 469.15 a3.5 3.5 0 1 0 7 0 a3.5 3.5 0 1 0 -7 0zM770.58 451.65 a3.5 3.5 0 1 0 7 0 a3.5 3.5 0 1 0 -7 0zM770.58 416.65 a3.5 3.5 0 1 0 7 0 a3.5 3.5 0 1 0 -7 0zM861.52 469.15 a3.5 3.5 0 1 0 7 0 a3.5 3.5 0 1 0 -7 0zM861.52 504.15 a3.5 3.5 0 1 0 7 0 a3.5 3.5 0 1 0 -7 0zM831.21 521.65 a3.5 3.5 0 1 0 7 0 a3.5 3.5 0 1 0 -7 0zM800.9 504.15 a3.5 3.5 0 1 0 7 0 a3.5 3.5 0 1 0 -7 0zM800.9 609.15 a3.5 3.5 0 1 0 7 0 a3.5 3.5 0 1 0 -7 0zM831.21 626.65 a3.5 3.5 0 1 0 7 0 a3.5 3.5 0 1 0 -7 0zM831.21 661.65 a3.5 3.5 0 1 0 7 0 a3.5 3.5 0 1 0 -7 0zM800.9 679.15 a3.5 3.5 0 1 0 7 0 a3.5 3.5 0 1 0 -7 0zM770.58 661.65 a3.5 3.5 0 1 0 7 0 a3.5 3.5 0 1 0 -7 0zM770.58 626.65 a3.5 3.5 0 1 0 7 0 a3.5 3.5 0 1 0 -7 0zM831.21 871.65 a3.5 3.5 0 1 0 7 0 a3.5 3.5 0 1 0 -7 0zM861.52 889.15 a3.5 3.5 0 1 0 7 0 a3.5 3.5 0 1 0 -7 0zM861.52 924.15 a3.5 3.5 0 1 0 7 0 a3.5 3.5 0 1 0 -7 0zM831.21 941.65 a3.5 3.5 0 1 0 7 0 a3.5 3.5 0 1 0 -7 0zM800.9 924.15 a3.5 3.5 0 1 0 7 0 a3.5 3.5 0 1 0 -7 0zM800.9 889.15 a3.5 3.5 0 1 0 7 0 a3.5 3.5 0 1 0 -7 0zM831.21 976.65 a3.5 3.5 0 1 0 7 0 a3.5 3.5 0 1 0 -7 0zM800.9 994.15 a3.5 3.5 0 1 0 7 0 a3.5 3.5 0 1 0 -7 0zM770.58 976.65 a3.5 3.5 0 1 0 7 0 a3.5 3.5 0 1 0 -7 0zM770.58 941.65 a3.5 3.5 0 1 0 7 0 a3.5 3.5 0 1 0 -7 0zM861.52 994.15 a3.5 3.5 0 1 0 7 0 a3.5 3.5 0 1 0 -7 0zM861.52 1029.15 a3.5 3.5 0 1 0 7 0 a3.5 3.5 0 1 0 -7 0zM831.21 1046.65 a3.5 3.5 0 1 0 7 0 a3.5 3.5 0 1 0 -7 0zM800.9 1029.15 a3.5 3.5 0 1 0 7 0 a3.5 3.5 0 1 0 -7 0zM831.21 1081.65 a3.5 3.5 0 1 0 7 0 a3.5 3.5 0 1 0 -7 0zM861.52 1099.15 a3.5 3.5 0 1 0 7 0 a3.5 3.5 0 1 0 -7 0zM861.52 1134.15 a3.5 3.5 0 1 0 7 0 a3.5 3.5 0 1 0 -7 0zM831.21 1151.65 a3.5 3.5 0 1 0 7 0 a3.5 3.5 0 1 0 -7 0zM800.9 1134.15 a3.5 3.5 0 1 0 7 0 a3.5 3.5 0 1 0 -7 0zM800.9 1099.15 a3.5 3.5 0 1 0 7 0 a3.5 3.5 0 1 0 -7 0zM891.83 136.65 a3.5 3.5 0 1 0 7 0 a3.5 3.5 0 1 0 -7 0zM922.14 154.15 a3.5 3.5 0 1 0 7 0 a3.5 3.5 0 1 0 -7 0zM922.14 189.15 a3.5 3.5 0 1 0 7 0 a3.5 3.5 0 1 0 -7 0zM891.83 206.65 a3.5 3.5 0 1 0 7 0 a3.5 3.5 0 1 0 -7 0zM861.52 189.15 a3.5 3.5 0 1 0 7 0 a3.5 3.5 0 1 0 -7 0zM861.52 154.15 a3.5 3.5 0 1 0 7 0 a3.5 3.5 0 1 0 -7 0zM891.83 241.65 a3.5 3.5 0 1 0 7 0 a3.5 3.5 0 1 0 -7 0zM922.14 259.15 a3.5 3.5 0 1 0 7 0 a3.5 3.5 0 1 0 -7 0zM922.14 294.15 a3.5 3.5 0 1 0 7 0 a3.5 3.5 0 1 0 -7 0zM891.83 311.65 a3.5 3.5 0 1 0 7 0 a3.5 3.5 0 1 0 -7 0zM891.83 416.65 a3.5 3.5 0 1 0 7 0 a3.5 3.5 0 1 0 -7 0zM891.83 451.65 a3.5 3.5 0 1 0 7 0 a3.5 3.5 0 1 0 -7 0zM891.83 556.65 a3.5 3.5 0 1 0 7 0 a3.5 3.5 0 1 0 -7 0zM922.14 574.15 a3.5 3.5 0 1 0 7 0 a3.5 3.5 0 1 0 -7 0zM922.14 609.15 a3.5 3.5 0 1 0 7 0 a3.5 3.5 0 1 0 -7 0zM891.83 626.65 a3.5 3.5 0 1 0 7 0 a3.5 3.5 0 1 0 -7 0zM861.52 609.15 a3.5 3.5 0 1 0 7 0 a3.5 3.5 0 1 0 -7 0zM861.52 574.15 a3.5 3.5 0 1 0 7 0 a3.5 3.5 0 1 0 -7 0zM891.83 976.65 a3.5 3.5 0 1 0 7 0 a3.5 3.5 0 1 0 -7 0zM922.14 994.15 a3.5 3.5 0 1 0 7 0 a3.5 3.5 0 1 0 -7 0zM922.14 1029.15 a3.5 3.5 0 1 0 7 0 a3.5 3.5 0 1 0 -7 0zM891.83 1046.65 a3.5 3.5 0 1 0 7 0 a3.5 3.5 0 1 0 -7 0zM952.45 31.65 a3.5 3.5 0 1 0 7 0 a3.5 3.5 0 1 0 -7 0zM982.77 49.15 a3.5 3.5 0 1 0 7 0 a3.5 3.5 0 1 0 -7 0zM982.77 84.15 a3.5 3.5 0 1 0 7 0 a3.5 3.5 0 1 0 -7 0zM952.45 101.65 a3.5 3.5 0 1 0 7 0 a3.5 3.5 0 1 0 -7 0zM922.14 84.15 a3.5 3.5 0 1 0 7 0 a3.5 3.5 0 1 0 -7 0zM922.14 49.15 a3.5 3.5 0 1 0 7 0 a3.5 3.5 0 1 0 -7 0zM952.45 346.65 a3.5 3.5 0 1 0 7 0 a3.5 3.5 0 1 0 -7 0zM982.77 364.15 a3.5 3.5 0 1 0 7 0 a3.5 3.5 0 1 0 -7 0zM982.77 399.15 a3.5 3.5 0 1 0 7 0 a3.5 3.5 0 1 0 -7 0zM952.45 416.65 a3.5 3.5 0 1 0 7 0 a3.5 3.5 0 1 0 -7 0zM922.14 399.15 a3.5 3.5 0 1 0 7 0 a3.5 3.5 0 1 0 -7 0zM922.14 364.15 a3.5 3.5 0 1 0 7 0 a3.5 3.5 0 1 0 -7 0zM952.45 451.65 a3.5 3.5 0 1 0 7 0 a3.5 3.5 0 1 0 -7 0zM982.77 469.15 a3.5 3.5 0 1 0 7 0 a3.5 3.5 0 1 0 -7 0zM982.77 504.15 a3.5 3.5 0 1 0 7 0 a3.5 3.5 0 1 0 -7 0zM952.45 521.65 a3.5 3.5 0 1 0 7 0 a3.5 3.5 0 1 0 -7 0zM922.14 504.15 a3.5 3.5 0 1 0 7 0 a3.5 3.5 0 1 0 -7 0zM922.14 469.15 a3.5 3.5 0 1 0 7 0 a3.5 3.5 0 1 0 -7 0zM952.45 661.65 a3.5 3.5 0 1 0 7 0 a3.5 3.5 0 1 0 -7 0zM982.77 679.15 a3.5 3.5 0 1 0 7 0 a3.5 3.5 0 1 0 -7 0zM982.77 714.15 a3.5 3.5 0 1 0 7 0 a3.5 3.5 0 1 0 -7 0zM952.45 731.65 a3.5 3.5 0 1 0 7 0 a3.5 3.5 0 1 0 -7 0zM922.14 714.15 a3.5 3.5 0 1 0 7 0 a3.5 3.5 0 1 0 -7 0zM922.14 679.15 a3.5 3.5 0 1 0 7 0 a3.5 3.5 0 1 0 -7 0zM952.45 1081.65 a3.5 3.5 0 1 0 7 0 a3.5 3.5 0 1 0 -7 0zM982.77 1099.15 a3.5 3.5 0 1 0 7 0 a3.5 3.5 0 1 0 -7 0zM982.77 1134.15 a3.5 3.5 0 1 0 7 0 a3.5 3.5 0 1 0 -7 0zM952.45 1151.65 a3.5 3.5 0 1 0 7 0 a3.5 3.5 0 1 0 -7 0zM922.14 1134.15 a3.5 3.5 0 1 0 7 0 a3.5 3.5 0 1 0 -7 0zM922.14 1099.15 a3.5 3.5 0 1 0 7 0 a3.5 3.5 0 1 0 -7 0zM1013.08 346.65 a3.5 3.5 0 1 0 7 0 a3.5 3.5 0 1 0 -7 0zM1043.39 364.15 a3.5 3.5 0 1 0 7 0 a3.5 3.5 0 1 0 -7 0zM1043.39 399.15 a3.5 3.5 0 1 0 7 0 a3.5 3.5 0 1 0 -7 0zM1013.08 416.65 a3.5 3.5 0 1 0 7 0 a3.5 3.5 0 1 0 -7 0zM1013.08 521.65 a3.5 3.5 0 1 0 7 0 a3.5 3.5 0 1 0 -7 0zM1013.08 556.65 a3.5 3.5 0 1 0 7 0 a3.5 3.5 0 1 0 -7 0zM982.77 574.15 a3.5 3.5 0 1 0 7 0 a3.5 3.5 0 1 0 -7 0zM952.45 556.65 a3.5 3.5 0 1 0 7 0 a3.5 3.5 0 1 0 -7 0zM1013.08 766.65 a3.5 3.5 0 1 0 7 0 a3.5 3.5 0 1 0 -7 0zM1043.39 784.15 a3.5 3.5 0 1 0 7 0 a3.5 3.5 0 1 0 -7 0zM1043.39 819.15 a3.5 3.5 0 1 0 7 0 a3.5 3.5 0 1 0 -7 0zM1013.08 836.65 a3.5 3.5 0 1 0 7 0 a3.5 3.5 0 1 0 -7 0zM982.77 819.15 a3.5 3.5 0 1 0 7 0 a3.5 3.5 0 1 0 -7 0zM982.77 784.15 a3.5 3.5 0 1 0 7 0 a3.5 3.5 0 1 0 -7 0zM1013.08 871.65 a3.5 3.5 0 1 0 7 0 a3.5 3.5 0 1 0 -7 0zM1043.39 889.15 a3.5 3.5 0 1 0 7 0 a3.5 3.5 0 1 0 -7 0zM1043.39 924.15 a3.5 3.5 0 1 0 7 0 a3.5 3.5 0 1 0 -7 0zM1013.08 941.65 a3.5 3.5 0 1 0 7 0 a3.5 3.5 0 1 0 -7 0zM982.77 924.15 a3.5 3.5 0 1 0 7 0 a3.5 3.5 0 1 0 -7 0zM982.77 889.15 a3.5 3.5 0 1 0 7 0 a3.5 3.5 0 1 0 -7 0zM1013.08 976.65 a3.5 3.5 0 1 0 7 0 a3.5 3.5 0 1 0 -7 0zM982.77 994.15 a3.5 3.5 0 1 0 7 0 a3.5 3.5 0 1 0 -7 0zM952.45 976.65 a3.5 3.5 0 1 0 7 0 a3.5 3.5 0 1 0 -7 0zM952.45 941.65 a3.5 3.5 0 1 0 7 0 a3.5 3.5 0 1 0 -7 0zM1043.39 84.15 a3.5 3.5 0 1 0 7 0 a3.5 3.5 0 1 0 -7 0zM1073.7 101.65 a3.5 3.5 0 1 0 7 0 a3.5 3.5 0 1 0 -7 0zM1073.7 136.65 a3.5 3.5 0 1 0 7 0 a3.5 3.5 0 1 0 -7 0zM1043.39 154.15 a3.5 3.5 0 1 0 7 0 a3.5 3.5 0 1 0 -7 0zM1013.08 136.65 a3.5 3.5 0 1 0 7 0 a3.5 3.5 0 1 0 -7 0zM1013.08 101.65 a3.5 3.5 0 1 0 7 0 a3.5 3.5 0 1 0 -7 0zM1104.01 154.15 a3.5 3.5 0 1 0 7 0 a3.5 3.5 0 1 0 -7 0zM1104.01 189.15 a3.5 3.5 0 1 0 7 0 a3.5 3.5 0 1 0 -7 0zM1073.7 206.65 a3.5 3.5 0 1 0 7 0 a3.5 3.5 0 1 0 -7 0zM1043.39 189.15 a3.5 3.5 0 1 0 7 0 a3.5 3.5 0 1 0 -7 0zM1073.7 346.65 a3.5 3.5 0 1 0 7 0 a3.5 3.5 0 1 0 -7 0zM1104.01 364.15 a3.5 3.5 0 1 0 7 0 a3.5 3.5 0 1 0 -7 0zM1104.01 399.15 a3.5 3.5 0 1 0 7 0 a3.5 3.5 0 1 0 -7 0zM1073.7 416.65 a3.5 3.5 0 1 0 7 0 a3.5 3.5 0 1 0 -7 0zM1134.32 346.65 a3.5 3.5 0 1 0 7 0 a3.5 3.5 0 1 0 -7 0zM1164.64 364.15 a3.5 3.5 0 1 0 7 0 a3.5 3.5 0 1 0 -7 0zM1164.64 399.15 a3.5 3.5 0 1 0 7 0 a3.5 3.5 0 1 0 -7 0zM1134.32 416.65 a3.5 3.5 0 1 0 7 0 a3.5 3.5 0 1 0 -7 0zM1134.32 451.65 a3.5 3.5 0 1 0 7 0 a3.5 3.5 0 1 0 -7 0zM1104.01 469.15 a3.5 3.5 0 1 0 7 0 a3.5 3.5 0 1 0 -7 0zM1073.7 451.65 a3.5 3.5 0 1 0 7 0 a3.5 3.5 0 1 0 -7 0zM1164.64 469.15 a3.5 3.5 0 1 0 7 0 a3.5 3.5 0 1 0 -7 0zM1164.64 504.15 a3.5 3.5 0 1 0 7 0 a3.5 3.5 0 1 0 -7 0zM1134.32 521.65 a3.5 3.5 0 1 0 7 0 a3.5 3.5 0 1 0 -7 0zM1104.01 504.15 a3.5 3.5 0 1 0 7 0 a3.5 3.5 0 1 0 -7 0zM1134.32 556.65 a3.5 3.5 0 1 0 7 0 a3.5 3.5 0 1 0 -7 0zM1104.01 574.15 a3.5 3.5 0 1 0 7 0 a3.5 3.5 0 1 0 -7 0zM1073.7 556.65 a3.5 3.5 0 1 0 7 0 a3.5 3.5 0 1 0 -7 0zM1073.7 521.65 a3.5 3.5 0 1 0 7 0 a3.5 3.5 0 1 0 -7 0zM1194.95 241.65 a3.5 3.5 0 1 0 7 0 a3.5 3.5 0 1 0 -7 0zM1225.26 259.15 a3.5 3.5 0 1 0 7 0 a3.5 3.5 0 1 0 -7 0zM1225.26 294.15 a3.5 3.5 0 1 0 7 0 a3.5 3.5 0 1 0 -7 0zM1194.95 311.65 a3.5 3.5 0 1 0 7 0 a3.5 3.5 0 1 0 -7 0zM1164.64 294.15 a3.5 3.5 0 1 0 7 0 a3.5 3.5 0 1 0 -7 0zM1164.64 259.15 a3.5 3.5 0 1 0 7 0 a3.5 3.5 0 1 0 -7 0zM1194.95 346.65 a3.5 3.5 0 1 0 7 0 a3.5 3.5 0 1 0 -7 0zM1134.32 311.65 a3.5 3.5 0 1 0 7 0 a3.5 3.5 0 1 0 -7 0zM1194.95 521.65 a3.5 3.5 0 1 0 7 0 a3.5 3.5 0 1 0 -7 0zM1194.95 556.65 a3.5 3.5 0 1 0 7 0 a3.5 3.5 0 1 0 -7 0zM1164.64 574.15 a3.5 3.5 0 1 0 7 0 a3.5 3.5 0 1 0 -7 0zM1164.64 714.15 a3.5 3.5 0 1 0 7 0 a3.5 3.5 0 1 0 -7 0zM1194.95 731.65 a3.5 3.5 0 1 0 7 0 a3.5 3.5 0 1 0 -7 0zM1194.95 766.65 a3.5 3.5 0 1 0 7 0 a3.5 3.5 0 1 0 -7 0zM1164.64 784.15 a3.5 3.5 0 1 0 7 0 a3.5 3.5 0 1 0 -7 0zM1134.32 766.65 a3.5 3.5 0 1 0 7 0 a3.5 3.5 0 1 0 -7 0zM1134.32 731.65 a3.5 3.5 0 1 0 7 0 a3.5 3.5 0 1 0 -7 0zM1164.64 1029.15 a3.5 3.5 0 1 0 7 0 a3.5 3.5 0 1 0 -7 0zM1194.95 1046.65 a3.5 3.5 0 1 0 7 0 a3.5 3.5 0 1 0 -7 0zM1194.95 1081.65 a3.5 3.5 0 1 0 7 0 a3.5 3.5 0 1 0 -7 0zM1164.64 1099.15 a3.5 3.5 0 1 0 7 0 a3.5 3.5 0 1 0 -7 0zM1134.32 1081.65 a3.5 3.5 0 1 0 7 0 a3.5 3.5 0 1 0 -7 0zM1134.32 1046.65 a3.5 3.5 0 1 0 7 0 a3.5 3.5 0 1 0 -7 0zM1255.57 451.65 a3.5 3.5 0 1 0 7 0 a3.5 3.5 0 1 0 -7 0zM1285.88 469.15 a3.5 3.5 0 1 0 7 0 a3.5 3.5 0 1 0 -7 0zM1285.88 504.15 a3.5 3.5 0 1 0 7 0 a3.5 3.5 0 1 0 -7 0zM1255.57 521.65 a3.5 3.5 0 1 0 7 0 a3.5 3.5 0 1 0 -7 0zM1225.26 504.15 a3.5 3.5 0 1 0 7 0 a3.5 3.5 0 1 0 -7 0zM1225.26 469.15 a3.5 3.5 0 1 0 7 0 a3.5 3.5 0 1 0 -7 0zM1225.26 609.15 a3.5 3.5 0 1 0 7 0 a3.5 3.5 0 1 0 -7 0zM1255.57 626.65 a3.5 3.5 0 1 0 7 0 a3.5 3.5 0 1 0 -7 0zM1255.57 661.65 a3.5 3.5 0 1 0 7 0 a3.5 3.5 0 1 0 -7 0zM1225.26 679.15 a3.5 3.5 0 1 0 7 0 a3.5 3.5 0 1 0 -7 0zM1194.95 661.65 a3.5 3.5 0 1 0 7 0 a3.5 3.5 0 1 0 -7 0zM1194.95 626.65 a3.5 3.5 0 1 0 7 0 a3.5 3.5 0 1 0 -7 0zM1285.88 679.15 a3.5 3.5 0 1 0 7 0 a3.5 3.5 0 1 0 -7 0zM1285.88 714.15 a3.5 3.5 0 1 0 7 0 a3.5 3.5 0 1 0 -7 0zM1255.57 731.65 a3.5 3.5 0 1 0 7 0 a3.5 3.5 0 1 0 -7 0zM1225.26 714.15 a3.5 3.5 0 1 0 7 0 a3.5 3.5 0 1 0 -7 0zM1255.57 766.65 a3.5 3.5 0 1 0 7 0 a3.5 3.5 0 1 0 -7 0zM1225.26 784.15 a3.5 3.5 0 1 0 7 0 a3.5 3.5 0 1 0 -7 0zM1225.26 819.15 a3.5 3.5 0 1 0 7 0 a3.5 3.5 0 1 0 -7 0zM1255.57 836.65 a3.5 3.5 0 1 0 7 0 a3.5 3.5 0 1 0 -7 0zM1255.57 871.65 a3.5 3.5 0 1 0 7 0 a3.5 3.5 0 1 0 -7 0zM1225.26 889.15 a3.5 3.5 0 1 0 7 0 a3.5 3.5 0 1 0 -7 0zM1194.95 871.65 a3.5 3.5 0 1 0 7 0 a3.5 3.5 0 1 0 -7 0zM1194.95 836.65 a3.5 3.5 0 1 0 7 0 a3.5 3.5 0 1 0 -7 0zM1316.2 31.65 a3.5 3.5 0 1 0 7 0 a3.5 3.5 0 1 0 -7 0zM1346.51 49.15 a3.5 3.5 0 1 0 7 0 a3.5 3.5 0 1 0 -7 0zM1346.51 84.15 a3.5 3.5 0 1 0 7 0 a3.5 3.5 0 1 0 -7 0zM1316.2 101.65 a3.5 3.5 0 1 0 7 0 a3.5 3.5 0 1 0 -7 0zM1285.88 84.15 a3.5 3.5 0 1 0 7 0 a3.5 3.5 0 1 0 -7 0zM1285.88 49.15 a3.5 3.5 0 1 0 7 0 a3.5 3.5 0 1 0 -7 0zM1316.2 241.65 a3.5 3.5 0 1 0 7 0 a3.5 3.5 0 1 0 -7 0zM1346.51 259.15 a3.5 3.5 0 1 0 7 0 a3.5 3.5 0 1 0 -7 0zM1346.51 294.15 a3.5 3.5 0 1 0 7 0 a3.5 3.5 0 1 0 -7 0zM1316.2 311.65 a3.5 3.5 0 1 0 7 0 a3.5 3.5 0 1 0 -7 0zM1285.88 294.15 a3.5 3.5 0 1 0 7 0 a3.5 3.5 0 1 0 -7 0zM1285.88 259.15 a3.5 3.5 0 1 0 7 0 a3.5 3.5 0 1 0 -7 0zM1316.2 346.65 a3.5 3.5 0 1 0 7 0 a3.5 3.5 0 1 0 -7 0zM1285.88 364.15 a3.5 3.5 0 1 0 7 0 a3.5 3.5 0 1 0 -7 0zM1255.57 346.65 a3.5 3.5 0 1 0 7 0 a3.5 3.5 0 1 0 -7 0zM1255.57 311.65 a3.5 3.5 0 1 0 7 0 a3.5 3.5 0 1 0 -7 0zM1285.88 399.15 a3.5 3.5 0 1 0 7 0 a3.5 3.5 0 1 0 -7 0zM1316.2 416.65 a3.5 3.5 0 1 0 7 0 a3.5 3.5 0 1 0 -7 0zM1316.2 451.65 a3.5 3.5 0 1 0 7 0 a3.5 3.5 0 1 0 -7 0zM1255.57 416.65 a3.5 3.5 0 1 0 7 0 a3.5 3.5 0 1 0 -7 0zM1346.51 469.15 a3.5 3.5 0 1 0 7 0 a3.5 3.5 0 1 0 -7 0zM1346.51 504.15 a3.5 3.5 0 1 0 7 0 a3.5 3.5 0 1 0 -7 0zM1316.2 521.65 a3.5 3.5 0 1 0 7 0 a3.5 3.5 0 1 0 -7 0zM1285.88 924.15 a3.5 3.5 0 1 0 7 0 a3.5 3.5 0 1 0 -7 0zM1316.2 941.65 a3.5 3.5 0 1 0 7 0 a3.5 3.5 0 1 0 -7 0zM1316.2 976.65 a3.5 3.5 0 1 0 7 0 a3.5 3.5 0 1 0 -7 0zM1285.88 994.15 a3.5 3.5 0 1 0 7 0 a3.5 3.5 0 1 0 -7 0zM1255.57 976.65 a3.5 3.5 0 1 0 7 0 a3.5 3.5 0 1 0 -7 0zM1255.57 941.65 a3.5 3.5 0 1 0 7 0 a3.5 3.5 0 1 0 -7 0zM1376.82 521.65 a3.5 3.5 0 1 0 7 0 a3.5 3.5 0 1 0 -7 0zM1376.82 556.65 a3.5 3.5 0 1 0 7 0 a3.5 3.5 0 1 0 -7 0zM1346.51 574.15 a3.5 3.5 0 1 0 7 0 a3.5 3.5 0 1 0 -7 0zM1316.2 556.65 a3.5 3.5 0 1 0 7 0 a3.5 3.5 0 1 0 -7 0zM1346.51 819.15 a3.5 3.5 0 1 0 7 0 a3.5 3.5 0 1 0 -7 0zM1376.82 836.65 a3.5 3.5 0 1 0 7 0 a3.5 3.5 0 1 0 -7 0zM1376.82 871.65 a3.5 3.5 0 1 0 7 0 a3.5 3.5 0 1 0 -7 0zM1346.51 889.15 a3.5 3.5 0 1 0 7 0 a3.5 3.5 0 1 0 -7 0zM1316.2 871.65 a3.5 3.5 0 1 0 7 0 a3.5 3.5 0 1 0 -7 0zM1316.2 836.65 a3.5 3.5 0 1 0 7 0 a3.5 3.5 0 1 0 -7 0zM1407.13 889.15 a3.5 3.5 0 1 0 7 0 a3.5 3.5 0 1 0 -7 0zM1407.13 924.15 a3.5 3.5 0 1 0 7 0 a3.5 3.5 0 1 0 -7 0zM1376.82 941.65 a3.5 3.5 0 1 0 7 0 a3.5 3.5 0 1 0 -7 0zM1346.51 924.15 a3.5 3.5 0 1 0 7 0 a3.5 3.5 0 1 0 -7 0zM1407.13 399.15 a3.5 3.5 0 1 0 7 0 a3.5 3.5 0 1 0 -7 0zM1437.44 416.65 a3.5 3.5 0 1 0 7 0 a3.5 3.5 0 1 0 -7 0zM1437.44 451.65 a3.5 3.5 0 1 0 7 0 a3.5 3.5 0 1 0 -7 0zM1407.13 469.15 a3.5 3.5 0 1 0 7 0 a3.5 3.5 0 1 0 -7 0zM1376.82 451.65 a3.5 3.5 0 1 0 7 0 a3.5 3.5 0 1 0 -7 0zM1376.82 416.65 a3.5 3.5 0 1 0 7 0 a3.5 3.5 0 1 0 -7 0zM1437.44 661.65 a3.5 3.5 0 1 0 7 0 a3.5 3.5 0 1 0 -7 0zM1467.75 679.15 a3.5 3.5 0 1 0 7 0 a3.5 3.5 0 1 0 -7 0zM1467.75 714.15 a3.5 3.5 0 1 0 7 0 a3.5 3.5 0 1 0 -7 0zM1437.44 731.65 a3.5 3.5 0 1 0 7 0 a3.5 3.5 0 1 0 -7 0zM1407.13 714.15 a3.5 3.5 0 1 0 7 0 a3.5 3.5 0 1 0 -7 0zM1407.13 679.15 a3.5 3.5 0 1 0 7 0 a3.5 3.5 0 1 0 -7 0zM1437.44 766.65 a3.5 3.5 0 1 0 7 0 a3.5 3.5 0 1 0 -7 0zM1467.75 784.15 a3.5 3.5 0 1 0 7 0 a3.5 3.5 0 1 0 -7 0zM1467.75 819.15 a3.5 3.5 0 1 0 7 0 a3.5 3.5 0 1 0 -7 0zM1437.44 836.65 a3.5 3.5 0 1 0 7 0 a3.5 3.5 0 1 0 -7 0zM1407.13 819.15 a3.5 3.5 0 1 0 7 0 a3.5 3.5 0 1 0 -7 0zM1407.13 784.15 a3.5 3.5 0 1 0 7 0 a3.5 3.5 0 1 0 -7 0zM1498.07 136.65 a3.5 3.5 0 1 0 7 0 a3.5 3.5 0 1 0 -7 0zM1528.38 154.15 a3.5 3.5 0 1 0 7 0 a3.5 3.5 0 1 0 -7 0zM1528.38 189.15 a3.5 3.5 0 1 0 7 0 a3.5 3.5 0 1 0 -7 0zM1498.07 206.65 a3.5 3.5 0 1 0 7 0 a3.5 3.5 0 1 0 -7 0zM1467.75 189.15 a3.5 3.5 0 1 0 7 0 a3.5 3.5 0 1 0 -7 0zM1467.75 154.15 a3.5 3.5 0 1 0 7 0 a3.5 3.5 0 1 0 -7 0zM1498.07 766.65 a3.5 3.5 0 1 0 7 0 a3.5 3.5 0 1 0 -7 0zM1528.38 784.15 a3.5 3.5 0 1 0 7 0 a3.5 3.5 0 1 0 -7 0zM1528.38 819.15 a3.5 3.5 0 1 0 7 0 a3.5 3.5 0 1 0 -7 0zM1498.07 836.65 a3.5 3.5 0 1 0 7 0 a3.5 3.5 0 1 0 -7 0zM1498.07 871.65 a3.5 3.5 0 1 0 7 0 a3.5 3.5 0 1 0 -7 0zM1528.38 889.15 a3.5 3.5 0 1 0 7 0 a3.5 3.5 0 1 0 -7 0zM1528.38 924.15 a3.5 3.5 0 1 0 7 0 a3.5 3.5 0 1 0 -7 0zM1498.07 941.65 a3.5 3.5 0 1 0 7 0 a3.5 3.5 0 1 0 -7 0zM1467.75 924.15 a3.5 3.5 0 1 0 7 0 a3.5 3.5 0 1 0 -7 0zM1467.75 889.15 a3.5 3.5 0 1 0 7 0 a3.5 3.5 0 1 0 -7 0zM1498.07 976.65 a3.5 3.5 0 1 0 7 0 a3.5 3.5 0 1 0 -7 0zM1467.75 994.15 a3.5 3.5 0 1 0 7 0 a3.5 3.5 0 1 0 -7 0zM1437.44 976.65 a3.5 3.5 0 1 0 7 0 a3.5 3.5 0 1 0 -7 0zM1437.44 941.65 a3.5 3.5 0 1 0 7 0 a3.5 3.5 0 1 0 -7 0zM1467.75 1029.15 a3.5 3.5 0 1 0 7 0 a3.5 3.5 0 1 0 -7 0zM1498.07 1046.65 a3.5 3.5 0 1 0 7 0 a3.5 3.5 0 1 0 -7 0zM1498.07 1081.65 a3.5 3.5 0 1 0 7 0 a3.5 3.5 0 1 0 -7 0zM1467.75 1099.15 a3.5 3.5 0 1 0 7 0 a3.5 3.5 0 1 0 -7 0zM1437.44 1081.65 a3.5 3.5 0 1 0 7 0 a3.5 3.5 0 1 0 -7 0zM1437.44 1046.65 a3.5 3.5 0 1 0 7 0 a3.5 3.5 0 1 0 -7 0zM1528.38 1099.15 a3.5 3.5 0 1 0 7 0 a3.5 3.5 0 1 0 -7 0zM1528.38 1134.15 a3.5 3.5 0 1 0 7 0 a3.5 3.5 0 1 0 -7 0zM1498.07 1151.65 a3.5 3.5 0 1 0 7 0 a3.5 3.5 0 1 0 -7 0zM1467.75 1134.15 a3.5 3.5 0 1 0 7 0 a3.5 3.5 0 1 0 -7 0zM1528.38 84.15 a3.5 3.5 0 1 0 7 0 a3.5 3.5 0 1 0 -7 0zM1558.69 101.65 a3.5 3.5 0 1 0 7 0 a3.5 3.5 0 1 0 -7 0zM1558.69 136.65 a3.5 3.5 0 1 0 7 0 a3.5 3.5 0 1 0 -7 0zM1498.07 101.65 a3.5 3.5 0 1 0 7 0 a3.5 3.5 0 1 0 -7 0zM1558.69 976.65 a3.5 3.5 0 1 0 7 0 a3.5 3.5 0 1 0 -7 0zM1589 994.15 a3.5 3.5 0 1 0 7 0 a3.5 3.5 0 1 0 -7 0zM1589 1029.15 a3.5 3.5 0 1 0 7 0 a3.5 3.5 0 1 0 -7 0zM1558.69 1046.65 a3.5 3.5 0 1 0 7 0 a3.5 3.5 0 1 0 -7 0zM1528.38 1029.15 a3.5 3.5 0 1 0 7 0 a3.5 3.5 0 1 0 -7 0zM1528.38 994.15 a3.5 3.5 0 1 0 7 0 a3.5 3.5 0 1 0 -7 0zM1558.69 1081.65 a3.5 3.5 0 1 0 7 0 a3.5 3.5 0 1 0 -7 0zM1589 -20.85 a3.5 3.5 0 1 0 7 0 a3.5 3.5 0 1 0 -7 0zM1619.31 -3.35 a3.5 3.5 0 1 0 7 0 a3.5 3.5 0 1 0 -7 0zM1619.31 31.65 a3.5 3.5 0 1 0 7 0 a3.5 3.5 0 1 0 -7 0zM1589 49.15 a3.5 3.5 0 1 0 7 0 a3.5 3.5 0 1 0 -7 0zM1558.69 31.65 a3.5 3.5 0 1 0 7 0 a3.5 3.5 0 1 0 -7 0zM1558.69 -3.35 a3.5 3.5 0 1 0 7 0 a3.5 3.5 0 1 0 -7 0zM1619.31 346.65 a3.5 3.5 0 1 0 7 0 a3.5 3.5 0 1 0 -7 0zM1649.62 364.15 a3.5 3.5 0 1 0 7 0 a3.5 3.5 0 1 0 -7 0zM1649.62 399.15 a3.5 3.5 0 1 0 7 0 a3.5 3.5 0 1 0 -7 0zM1619.31 416.65 a3.5 3.5 0 1 0 7 0 a3.5 3.5 0 1 0 -7 0zM1589 399.15 a3.5 3.5 0 1 0 7 0 a3.5 3.5 0 1 0 -7 0zM1589 364.15 a3.5 3.5 0 1 0 7 0 a3.5 3.5 0 1 0 -7 0zM1589 504.15 a3.5 3.5 0 1 0 7 0 a3.5 3.5 0 1 0 -7 0zM1619.31 521.65 a3.5 3.5 0 1 0 7 0 a3.5 3.5 0 1 0 -7 0zM1619.31 556.65 a3.5 3.5 0 1 0 7 0 a3.5 3.5 0 1 0 -7 0zM1589 574.15 a3.5 3.5 0 1 0 7 0 a3.5 3.5 0 1 0 -7 0zM1558.69 556.65 a3.5 3.5 0 1 0 7 0 a3.5 3.5 0 1 0 -7 0zM1558.69 521.65 a3.5 3.5 0 1 0 7 0 a3.5 3.5 0 1 0 -7 0zM1649.62 574.15 a3.5 3.5 0 1 0 7 0 a3.5 3.5 0 1 0 -7 0zM1649.62 609.15 a3.5 3.5 0 1 0 7 0 a3.5 3.5 0 1 0 -7 0zM1619.31 626.65 a3.5 3.5 0 1 0 7 0 a3.5 3.5 0 1 0 -7 0zM1589 609.15 a3.5 3.5 0 1 0 7 0 a3.5 3.5 0 1 0 -7 0zM1619.31 661.65 a3.5 3.5 0 1 0 7 0 a3.5 3.5 0 1 0 -7 0zM1649.62 679.15 a3.5 3.5 0 1 0 7 0 a3.5 3.5 0 1 0 -7 0zM1649.62 714.15 a3.5 3.5 0 1 0 7 0 a3.5 3.5 0 1 0 -7 0zM1619.31 731.65 a3.5 3.5 0 1 0 7 0 a3.5 3.5 0 1 0 -7 0zM1589 714.15 a3.5 3.5 0 1 0 7 0 a3.5 3.5 0 1 0 -7 0zM1589 679.15 a3.5 3.5 0 1 0 7 0 a3.5 3.5 0 1 0 -7 0zM1619.31 766.65 a3.5 3.5 0 1 0 7 0 a3.5 3.5 0 1 0 -7 0zM1589 784.15 a3.5 3.5 0 1 0 7 0 a3.5 3.5 0 1 0 -7 0zM1558.69 766.65 a3.5 3.5 0 1 0 7 0 a3.5 3.5 0 1 0 -7 0zM1558.69 731.65 a3.5 3.5 0 1 0 7 0 a3.5 3.5 0 1 0 -7 0zM1589 819.15 a3.5 3.5 0 1 0 7 0 a3.5 3.5 0 1 0 -7 0zM1619.31 836.65 a3.5 3.5 0 1 0 7 0 a3.5 3.5 0 1 0 -7 0zM1619.31 871.65 a3.5 3.5 0 1 0 7 0 a3.5 3.5 0 1 0 -7 0zM1589 889.15 a3.5 3.5 0 1 0 7 0 a3.5 3.5 0 1 0 -7 0zM1558.69 871.65 a3.5 3.5 0 1 0 7 0 a3.5 3.5 0 1 0 -7 0zM1558.69 836.65 a3.5 3.5 0 1 0 7 0 a3.5 3.5 0 1 0 -7 0zM1619.31 1046.65 a3.5 3.5 0 1 0 7 0 a3.5 3.5 0 1 0 -7 0zM1619.31 1081.65 a3.5 3.5 0 1 0 7 0 a3.5 3.5 0 1 0 -7 0zM1589 1099.15 a3.5 3.5 0 1 0 7 0 a3.5 3.5 0 1 0 -7 0zM1649.62 -20.85 a3.5 3.5 0 1 0 7 0 a3.5 3.5 0 1 0 -7 0zM1679.94 -3.35 a3.5 3.5 0 1 0 7 0 a3.5 3.5 0 1 0 -7 0zM1679.94 31.65 a3.5 3.5 0 1 0 7 0 a3.5 3.5 0 1 0 -7 0zM1649.62 49.15 a3.5 3.5 0 1 0 7 0 a3.5 3.5 0 1 0 -7 0zM1649.62 189.15 a3.5 3.5 0 1 0 7 0 a3.5 3.5 0 1 0 -7 0zM1679.94 206.65 a3.5 3.5 0 1 0 7 0 a3.5 3.5 0 1 0 -7 0zM1679.94 241.65 a3.5 3.5 0 1 0 7 0 a3.5 3.5 0 1 0 -7 0zM1649.62 259.15 a3.5 3.5 0 1 0 7 0 a3.5 3.5 0 1 0 -7 0zM1619.31 241.65 a3.5 3.5 0 1 0 7 0 a3.5 3.5 0 1 0 -7 0zM1619.31 206.65 a3.5 3.5 0 1 0 7 0 a3.5 3.5 0 1 0 -7 0zM1649.62 294.15 a3.5 3.5 0 1 0 7 0 a3.5 3.5 0 1 0 -7 0zM1679.94 311.65 a3.5 3.5 0 1 0 7 0 a3.5 3.5 0 1 0 -7 0zM1679.94 346.65 a3.5 3.5 0 1 0 7 0 a3.5 3.5 0 1 0 -7 0zM1619.31 311.65 a3.5 3.5 0 1 0 7 0 a3.5 3.5 0 1 0 -7 0zM1679.94 451.65 a3.5 3.5 0 1 0 7 0 a3.5 3.5 0 1 0 -7 0zM1710.25 469.15 a3.5 3.5 0 1 0 7 0 a3.5 3.5 0 1 0 -7 0zM1710.25 504.15 a3.5 3.5 0 1 0 7 0 a3.5 3.5 0 1 0 -7 0zM1679.94 521.65 a3.5 3.5 0 1 0 7 0 a3.5 3.5 0 1 0 -7 0zM1649.62 504.15 a3.5 3.5 0 1 0 7 0 a3.5 3.5 0 1 0 -7 0zM1649.62 469.15 a3.5 3.5 0 1 0 7 0 a3.5 3.5 0 1 0 -7 0zM1679.94 626.65 a3.5 3.5 0 1 0 7 0 a3.5 3.5 0 1 0 -7 0zM1679.94 661.65 a3.5 3.5 0 1 0 7 0 a3.5 3.5 0 1 0 -7 0zM1710.25 679.15 a3.5 3.5 0 1 0 7 0 a3.5 3.5 0 1 0 -7 0zM1710.25 714.15 a3.5 3.5 0 1 0 7 0 a3.5 3.5 0 1 0 -7 0zM1679.94 731.65 a3.5 3.5 0 1 0 7 0 a3.5 3.5 0 1 0 -7 0zM1710.25 84.15 a3.5 3.5 0 1 0 7 0 a3.5 3.5 0 1 0 -7 0zM1740.56 101.65 a3.5 3.5 0 1 0 7 0 a3.5 3.5 0 1 0 -7 0zM1740.56 136.65 a3.5 3.5 0 1 0 7 0 a3.5 3.5 0 1 0 -7 0zM1710.25 154.15 a3.5 3.5 0 1 0 7 0 a3.5 3.5 0 1 0 -7 0zM1679.94 136.65 a3.5 3.5 0 1 0 7 0 a3.5 3.5 0 1 0 -7 0zM1679.94 101.65 a3.5 3.5 0 1 0 7 0 a3.5 3.5 0 1 0 -7 0zM1710.25 294.15 a3.5 3.5 0 1 0 7 0 a3.5 3.5 0 1 0 -7 0zM1740.56 311.65 a3.5 3.5 0 1 0 7 0 a3.5 3.5 0 1 0 -7 0zM1740.56 346.65 a3.5 3.5 0 1 0 7 0 a3.5 3.5 0 1 0 -7 0zM1710.25 364.15 a3.5 3.5 0 1 0 7 0 a3.5 3.5 0 1 0 -7 0zM1740.56 731.65 a3.5 3.5 0 1 0 7 0 a3.5 3.5 0 1 0 -7 0zM1740.56 766.65 a3.5 3.5 0 1 0 7 0 a3.5 3.5 0 1 0 -7 0zM1710.25 784.15 a3.5 3.5 0 1 0 7 0 a3.5 3.5 0 1 0 -7 0zM1679.94 766.65 a3.5 3.5 0 1 0 7 0 a3.5 3.5 0 1 0 -7 0zM1770.87 784.15 a3.5 3.5 0 1 0 7 0 a3.5 3.5 0 1 0 -7 0zM1770.87 819.15 a3.5 3.5 0 1 0 7 0 a3.5 3.5 0 1 0 -7 0zM1740.56 836.65 a3.5 3.5 0 1 0 7 0 a3.5 3.5 0 1 0 -7 0zM1710.25 819.15 a3.5 3.5 0 1 0 7 0 a3.5 3.5 0 1 0 -7 0zM1740.56 871.65 a3.5 3.5 0 1 0 7 0 a3.5 3.5 0 1 0 -7 0zM1770.87 889.15 a3.5 3.5 0 1 0 7 0 a3.5 3.5 0 1 0 -7 0zM1770.87 924.15 a3.5 3.5 0 1 0 7 0 a3.5 3.5 0 1 0 -7 0zM1740.56 941.65 a3.5 3.5 0 1 0 7 0 a3.5 3.5 0 1 0 -7 0zM1710.25 924.15 a3.5 3.5 0 1 0 7 0 a3.5 3.5 0 1 0 -7 0zM1710.25 889.15 a3.5 3.5 0 1 0 7 0 a3.5 3.5 0 1 0 -7 0zM1770.87 84.15 a3.5 3.5 0 1 0 7 0 a3.5 3.5 0 1 0 -7 0zM1801.18 101.65 a3.5 3.5 0 1 0 7 0 a3.5 3.5 0 1 0 -7 0zM1801.18 136.65 a3.5 3.5 0 1 0 7 0 a3.5 3.5 0 1 0 -7 0zM1770.87 154.15 a3.5 3.5 0 1 0 7 0 a3.5 3.5 0 1 0 -7 0zM1770.87 294.15 a3.5 3.5 0 1 0 7 0 a3.5 3.5 0 1 0 -7 0zM1801.18 311.65 a3.5 3.5 0 1 0 7 0 a3.5 3.5 0 1 0 -7 0zM1801.18 346.65 a3.5 3.5 0 1 0 7 0 a3.5 3.5 0 1 0 -7 0zM1770.87 364.15 a3.5 3.5 0 1 0 7 0 a3.5 3.5 0 1 0 -7 0zM1770.87 399.15 a3.5 3.5 0 1 0 7 0 a3.5 3.5 0 1 0 -7 0zM1801.18 416.65 a3.5 3.5 0 1 0 7 0 a3.5 3.5 0 1 0 -7 0zM1801.18 451.65 a3.5 3.5 0 1 0 7 0 a3.5 3.5 0 1 0 -7 0zM1770.87 469.15 a3.5 3.5 0 1 0 7 0 a3.5 3.5 0 1 0 -7 0zM1740.56 451.65 a3.5 3.5 0 1 0 7 0 a3.5 3.5 0 1 0 -7 0zM1740.56 416.65 a3.5 3.5 0 1 0 7 0 a3.5 3.5 0 1 0 -7 0zM1801.18 976.65 a3.5 3.5 0 1 0 7 0 a3.5 3.5 0 1 0 -7 0zM1831.5 994.15 a3.5 3.5 0 1 0 7 0 a3.5 3.5 0 1 0 -7 0zM1831.5 1029.15 a3.5 3.5 0 1 0 7 0 a3.5 3.5 0 1 0 -7 0zM1801.18 1046.65 a3.5 3.5 0 1 0 7 0 a3.5 3.5 0 1 0 -7 0zM1770.87 1029.15 a3.5 3.5 0 1 0 7 0 a3.5 3.5 0 1 0 -7 0zM1770.87 994.15 a3.5 3.5 0 1 0 7 0 a3.5 3.5 0 1 0 -7 0zM1831.49 -20.85 a3.5 3.5 0 1 0 7 0 a3.5 3.5 0 1 0 -7 0zM1861.81 -3.35 a3.5 3.5 0 1 0 7 0 a3.5 3.5 0 1 0 -7 0zM1861.81 31.65 a3.5 3.5 0 1 0 7 0 a3.5 3.5 0 1 0 -7 0zM1831.49 49.15 a3.5 3.5 0 1 0 7 0 a3.5 3.5 0 1 0 -7 0zM1801.18 31.65 a3.5 3.5 0 1 0 7 0 a3.5 3.5 0 1 0 -7 0zM1801.18 -3.35 a3.5 3.5 0 1 0 7 0 a3.5 3.5 0 1 0 -7 0zM1892.12 49.15 a3.5 3.5 0 1 0 7 0 a3.5 3.5 0 1 0 -7 0zM1892.12 84.15 a3.5 3.5 0 1 0 7 0 a3.5 3.5 0 1 0 -7 0zM1861.81 101.65 a3.5 3.5 0 1 0 7 0 a3.5 3.5 0 1 0 -7 0zM1831.49 84.15 a3.5 3.5 0 1 0 7 0 a3.5 3.5 0 1 0 -7 0zM1831.49 189.15 a3.5 3.5 0 1 0 7 0 a3.5 3.5 0 1 0 -7 0zM1861.81 206.65 a3.5 3.5 0 1 0 7 0 a3.5 3.5 0 1 0 -7 0zM1861.81 241.65 a3.5 3.5 0 1 0 7 0 a3.5 3.5 0 1 0 -7 0zM1831.49 259.15 a3.5 3.5 0 1 0 7 0 a3.5 3.5 0 1 0 -7 0zM1801.18 241.65 a3.5 3.5 0 1 0 7 0 a3.5 3.5 0 1 0 -7 0zM1801.18 206.65 a3.5 3.5 0 1 0 7 0 a3.5 3.5 0 1 0 -7 0zM1831.49 294.15 a3.5 3.5 0 1 0 7 0 a3.5 3.5 0 1 0 -7 0zM1861.81 311.65 a3.5 3.5 0 1 0 7 0 a3.5 3.5 0 1 0 -7 0zM1861.81 346.65 a3.5 3.5 0 1 0 7 0 a3.5 3.5 0 1 0 -7 0zM1831.49 364.15 a3.5 3.5 0 1 0 7 0 a3.5 3.5 0 1 0 -7 0zM1892.12 364.15 a3.5 3.5 0 1 0 7 0 a3.5 3.5 0 1 0 -7 0zM1892.12 399.15 a3.5 3.5 0 1 0 7 0 a3.5 3.5 0 1 0 -7 0zM1861.81 416.65 a3.5 3.5 0 1 0 7 0 a3.5 3.5 0 1 0 -7 0zM1831.49 399.15 a3.5 3.5 0 1 0 7 0 a3.5 3.5 0 1 0 -7 0zM1861.81 766.65 a3.5 3.5 0 1 0 7 0 a3.5 3.5 0 1 0 -7 0zM1892.12 784.15 a3.5 3.5 0 1 0 7 0 a3.5 3.5 0 1 0 -7 0zM1892.12 819.15 a3.5 3.5 0 1 0 7 0 a3.5 3.5 0 1 0 -7 0zM1861.81 836.65 a3.5 3.5 0 1 0 7 0 a3.5 3.5 0 1 0 -7 0zM1831.49 819.15 a3.5 3.5 0 1 0 7 0 a3.5 3.5 0 1 0 -7 0zM1831.49 784.15 a3.5 3.5 0 1 0 7 0 a3.5 3.5 0 1 0 -7 0zM1922.43 101.65 a3.5 3.5 0 1 0 7 0 a3.5 3.5 0 1 0 -7 0zM1922.43 136.65 a3.5 3.5 0 1 0 7 0 a3.5 3.5 0 1 0 -7 0zM1892.12 154.15 a3.5 3.5 0 1 0 7 0 a3.5 3.5 0 1 0 -7 0zM1861.81 136.65 a3.5 3.5 0 1 0 7 0 a3.5 3.5 0 1 0 -7 0zM1952.74 154.15 a3.5 3.5 0 1 0 7 0 a3.5 3.5 0 1 0 -7 0zM1952.74 189.15 a3.5 3.5 0 1 0 7 0 a3.5 3.5 0 1 0 -7 0zM1922.43 206.65 a3.5 3.5 0 1 0 7 0 a3.5 3.5 0 1 0 -7 0zM1892.12 189.15 a3.5 3.5 0 1 0 7 0 a3.5 3.5 0 1 0 -7 0zM1892.12 504.15 a3.5 3.5 0 1 0 7 0 a3.5 3.5 0 1 0 -7 0zM1922.43 521.65 a3.5 3.5 0 1 0 7 0 a3.5 3.5 0 1 0 -7 0zM1922.43 556.65 a3.5 3.5 0 1 0 7 0 a3.5 3.5 0 1 0 -7 0zM1892.12 574.15 a3.5 3.5 0 1 0 7 0 a3.5 3.5 0 1 0 -7 0zM1861.81 556.65 a3.5 3.5 0 1 0 7 0 a3.5 3.5 0 1 0 -7 0zM1861.81 521.65 a3.5 3.5 0 1 0 7 0 a3.5 3.5 0 1 0 -7 0zM1952.74 574.15 a3.5 3.5 0 1 0 7 0 a3.5 3.5 0 1 0 -7 0zM1952.74 609.15 a3.5 3.5 0 1 0 7 0 a3.5 3.5 0 1 0 -7 0zM1922.43 626.65 a3.5 3.5 0 1 0 7 0 a3.5 3.5 0 1 0 -7 0zM1892.12 609.15 a3.5 3.5 0 1 0 7 0 a3.5 3.5 0 1 0 -7 0zM1922.43 976.65 a3.5 3.5 0 1 0 7 0 a3.5 3.5 0 1 0 -7 0zM1952.74 994.15 a3.5 3.5 0 1 0 7 0 a3.5 3.5 0 1 0 -7 0zM1952.74 1029.15 a3.5 3.5 0 1 0 7 0 a3.5 3.5 0 1 0 -7 0zM1922.43 1046.65 a3.5 3.5 0 1 0 7 0 a3.5 3.5 0 1 0 -7 0zM1892.12 1029.15 a3.5 3.5 0 1 0 7 0 a3.5 3.5 0 1 0 -7 0zM1892.12 994.15 a3.5 3.5 0 1 0 7 0 a3.5 3.5 0 1 0 -7 0zM1922.43 1081.65 a3.5 3.5 0 1 0 7 0 a3.5 3.5 0 1 0 -7 0zM1952.74 1099.15 a3.5 3.5 0 1 0 7 0 a3.5 3.5 0 1 0 -7 0zM1952.74 1134.15 a3.5 3.5 0 1 0 7 0 a3.5 3.5 0 1 0 -7 0zM1922.43 1151.65 a3.5 3.5 0 1 0 7 0 a3.5 3.5 0 1 0 -7 0zM1892.12 1134.15 a3.5 3.5 0 1 0 7 0 a3.5 3.5 0 1 0 -7 0zM1892.12 1099.15 a3.5 3.5 0 1 0 7 0 a3.5 3.5 0 1 0 -7 0zM1983.05 31.65 a3.5 3.5 0 1 0 7 0 a3.5 3.5 0 1 0 -7 0zM2013.37 49.15 a3.5 3.5 0 1 0 7 0 a3.5 3.5 0 1 0 -7 0zM2013.37 84.15 a3.5 3.5 0 1 0 7 0 a3.5 3.5 0 1 0 -7 0zM1983.05 101.65 a3.5 3.5 0 1 0 7 0 a3.5 3.5 0 1 0 -7 0zM1952.74 84.15 a3.5 3.5 0 1 0 7 0 a3.5 3.5 0 1 0 -7 0zM1952.74 49.15 a3.5 3.5 0 1 0 7 0 a3.5 3.5 0 1 0 -7 0zM1983.05 626.65 a3.5 3.5 0 1 0 7 0 a3.5 3.5 0 1 0 -7 0zM1983.05 661.65 a3.5 3.5 0 1 0 7 0 a3.5 3.5 0 1 0 -7 0zM1952.74 679.15 a3.5 3.5 0 1 0 7 0 a3.5 3.5 0 1 0 -7 0zM1922.43 661.65 a3.5 3.5 0 1 0 7 0 a3.5 3.5 0 1 0 -7 0zM1952.74 819.15 a3.5 3.5 0 1 0 7 0 a3.5 3.5 0 1 0 -7 0zM1983.05 836.65 a3.5 3.5 0 1 0 7 0 a3.5 3.5 0 1 0 -7 0zM1983.05 871.65 a3.5 3.5 0 1 0 7 0 a3.5 3.5 0 1 0 -7 0zM1952.74 889.15 a3.5 3.5 0 1 0 7 0 a3.5 3.5 0 1 0 -7 0zM1922.43 871.65 a3.5 3.5 0 1 0 7 0 a3.5 3.5 0 1 0 -7 0zM1922.43 836.65 a3.5 3.5 0 1 0 7 0 a3.5 3.5 0 1 0 -7 0zM2043.68 101.65 a3.5 3.5 0 1 0 7 0 a3.5 3.5 0 1 0 -7 0zM2043.68 136.65 a3.5 3.5 0 1 0 7 0 a3.5 3.5 0 1 0 -7 0zM2013.37 154.15 a3.5 3.5 0 1 0 7 0 a3.5 3.5 0 1 0 -7 0zM1983.05 136.65 a3.5 3.5 0 1 0 7 0 a3.5 3.5 0 1 0 -7 0zM2013.37 714.15 a3.5 3.5 0 1 0 7 0 a3.5 3.5 0 1 0 -7 0zM2043.68 731.65 a3.5 3.5 0 1 0 7 0 a3.5 3.5 0 1 0 -7 0zM2043.68 766.65 a3.5 3.5 0 1 0 7 0 a3.5 3.5 0 1 0 -7 0zM2013.37 784.15 a3.5 3.5 0 1 0 7 0 a3.5 3.5 0 1 0 -7 0zM1983.05 766.65 a3.5 3.5 0 1 0 7 0 a3.5 3.5 0 1 0 -7 0zM1983.05 731.65 a3.5 3.5 0 1 0 7 0 a3.5 3.5 0 1 0 -7 0zM2043.68 871.65 a3.5 3.5 0 1 0 7 0 a3.5 3.5 0 1 0 -7 0zM2073.99 889.15 a3.5 3.5 0 1 0 7 0 a3.5 3.5 0 1 0 -7 0zM2073.99 924.15 a3.5 3.5 0 1 0 7 0 a3.5 3.5 0 1 0 -7 0zM2043.68 941.65 a3.5 3.5 0 1 0 7 0 a3.5 3.5 0 1 0 -7 0zM2013.37 924.15 a3.5 3.5 0 1 0 7 0 a3.5 3.5 0 1 0 -7 0zM2013.37 889.15 a3.5 3.5 0 1 0 7 0 a3.5 3.5 0 1 0 -7 0zM2013.37 1029.15 a3.5 3.5 0 1 0 7 0 a3.5 3.5 0 1 0 -7 0zM2043.68 1046.65 a3.5 3.5 0 1 0 7 0 a3.5 3.5 0 1 0 -7 0zM2043.68 1081.65 a3.5 3.5 0 1 0 7 0 a3.5 3.5 0 1 0 -7 0zM2013.37 1099.15 a3.5 3.5 0 1 0 7 0 a3.5 3.5 0 1 0 -7 0zM1983.05 1081.65 a3.5 3.5 0 1 0 7 0 a3.5 3.5 0 1 0 -7 0zM1983.05 1046.65 a3.5 3.5 0 1 0 7 0 a3.5 3.5 0 1 0 -7 0zM2073.99 84.15 a3.5 3.5 0 1 0 7 0 a3.5 3.5 0 1 0 -7 0zM2104.3 101.65 a3.5 3.5 0 1 0 7 0 a3.5 3.5 0 1 0 -7 0zM2104.3 136.65 a3.5 3.5 0 1 0 7 0 a3.5 3.5 0 1 0 -7 0zM2073.99 154.15 a3.5 3.5 0 1 0 7 0 a3.5 3.5 0 1 0 -7 0zM2104.3 346.65 a3.5 3.5 0 1 0 7 0 a3.5 3.5 0 1 0 -7 0zM2134.61 364.15 a3.5 3.5 0 1 0 7 0 a3.5 3.5 0 1 0 -7 0zM2134.61 399.15 a3.5 3.5 0 1 0 7 0 a3.5 3.5 0 1 0 -7 0zM2104.3 416.65 a3.5 3.5 0 1 0 7 0 a3.5 3.5 0 1 0 -7 0zM2073.99 399.15 a3.5 3.5 0 1 0 7 0 a3.5 3.5 0 1 0 -7 0zM2073.99 364.15 a3.5 3.5 0 1 0 7 0 a3.5 3.5 0 1 0 -7 0zM2073.99 609.15 a3.5 3.5 0 1 0 7 0 a3.5 3.5 0 1 0 -7 0zM2104.3 626.65 a3.5 3.5 0 1 0 7 0 a3.5 3.5 0 1 0 -7 0zM2104.3 661.65 a3.5 3.5 0 1 0 7 0 a3.5 3.5 0 1 0 -7 0zM2073.99 679.15 a3.5 3.5 0 1 0 7 0 a3.5 3.5 0 1 0 -7 0zM2043.68 661.65 a3.5 3.5 0 1 0 7 0 a3.5 3.5 0 1 0 -7 0zM2043.68 626.65 a3.5 3.5 0 1 0 7 0 a3.5 3.5 0 1 0 -7 0zM2104.3 871.65 a3.5 3.5 0 1 0 7 0 a3.5 3.5 0 1 0 -7 0zM2134.61 889.15 a3.5 3.5 0 1 0 7 0 a3.5 3.5 0 1 0 -7 0zM2134.61 924.15 a3.5 3.5 0 1 0 7 0 a3.5 3.5 0 1 0 -7 0zM2104.3 941.65 a3.5 3.5 0 1 0 7 0 a3.5 3.5 0 1 0 -7 0zM2104.3 976.65 a3.5 3.5 0 1 0 7 0 a3.5 3.5 0 1 0 -7 0zM2073.99 994.15 a3.5 3.5 0 1 0 7 0 a3.5 3.5 0 1 0 -7 0zM2043.68 976.65 a3.5 3.5 0 1 0 7 0 a3.5 3.5 0 1 0 -7 0zM2134.61 294.15 a3.5 3.5 0 1 0 7 0 a3.5 3.5 0 1 0 -7 0zM2164.92 311.65 a3.5 3.5 0 1 0 7 0 a3.5 3.5 0 1 0 -7 0zM2164.92 346.65 a3.5 3.5 0 1 0 7 0 a3.5 3.5 0 1 0 -7 0zM2104.3 311.65 a3.5 3.5 0 1 0 7 0 a3.5 3.5 0 1 0 -7 0zM2164.92 661.65 a3.5 3.5 0 1 0 7 0 a3.5 3.5 0 1 0 -7 0zM2195.24 679.15 a3.5 3.5 0 1 0 7 0 a3.5 3.5 0 1 0 -7 0zM2195.24 714.15 a3.5 3.5 0 1 0 7 0 a3.5 3.5 0 1 0 -7 0zM2164.92 731.65 a3.5 3.5 0 1 0 7 0 a3.5 3.5 0 1 0 -7 0zM2134.61 714.15 a3.5 3.5 0 1 0 7 0 a3.5 3.5 0 1 0 -7 0zM2134.61 679.15 a3.5 3.5 0 1 0 7 0 a3.5 3.5 0 1 0 -7 0zM2134.61 1029.15 a3.5 3.5 0 1 0 7 0 a3.5 3.5 0 1 0 -7 0zM2164.92 1046.65 a3.5 3.5 0 1 0 7 0 a3.5 3.5 0 1 0 -7 0zM2164.92 1081.65 a3.5 3.5 0 1 0 7 0 a3.5 3.5 0 1 0 -7 0zM2134.61 1099.15 a3.5 3.5 0 1 0 7 0 a3.5 3.5 0 1 0 -7 0zM2104.3 1081.65 a3.5 3.5 0 1 0 7 0 a3.5 3.5 0 1 0 -7 0zM2104.3 1046.65 a3.5 3.5 0 1 0 7 0 a3.5 3.5 0 1 0 -7 0zM2225.55 241.65 a3.5 3.5 0 1 0 7 0 a3.5 3.5 0 1 0 -7 0zM2255.86 259.15 a3.5 3.5 0 1 0 7 0 a3.5 3.5 0 1 0 -7 0zM2255.86 294.15 a3.5 3.5 0 1 0 7 0 a3.5 3.5 0 1 0 -7 0zM2225.55 311.65 a3.5 3.5 0 1 0 7 0 a3.5 3.5 0 1 0 -7 0zM2195.24 294.15 a3.5 3.5 0 1 0 7 0 a3.5 3.5 0 1 0 -7 0zM2195.24 259.15 a3.5 3.5 0 1 0 7 0 a3.5 3.5 0 1 0 -7 0zM2225.55 346.65 a3.5 3.5 0 1 0 7 0 a3.5 3.5 0 1 0 -7 0zM2255.86 364.15 a3.5 3.5 0 1 0 7 0 a3.5 3.5 0 1 0 -7 0zM2255.86 399.15 a3.5 3.5 0 1 0 7 0 a3.5 3.5 0 1 0 -7 0zM2225.55 416.65 a3.5 3.5 0 1 0 7 0 a3.5 3.5 0 1 0 -7 0zM2195.24 399.15 a3.5 3.5 0 1 0 7 0 a3.5 3.5 0 1 0 -7 0zM2195.24 364.15 a3.5 3.5 0 1 0 7 0 a3.5 3.5 0 1 0 -7 0zM2286.17 346.65 a3.5 3.5 0 1 0 7 0 a3.5 3.5 0 1 0 -7 0zM2316.48 364.15 a3.5 3.5 0 1 0 7 0 a3.5 3.5 0 1 0 -7 0zM2316.48 399.15 a3.5 3.5 0 1 0 7 0 a3.5 3.5 0 1 0 -7 0zM2286.17 416.65 a3.5 3.5 0 1 0 7 0 a3.5 3.5 0 1 0 -7 0zM2286.17 451.65 a3.5 3.5 0 1 0 7 0 a3.5 3.5 0 1 0 -7 0zM2316.48 469.15 a3.5 3.5 0 1 0 7 0 a3.5 3.5 0 1 0 -7 0zM2316.48 504.15 a3.5 3.5 0 1 0 7 0 a3.5 3.5 0 1 0 -7 0zM2286.17 521.65 a3.5 3.5 0 1 0 7 0 a3.5 3.5 0 1 0 -7 0zM2255.86 504.15 a3.5 3.5 0 1 0 7 0 a3.5 3.5 0 1 0 -7 0zM2255.86 469.15 a3.5 3.5 0 1 0 7 0 a3.5 3.5 0 1 0 -7 0zM2286.17 556.65 a3.5 3.5 0 1 0 7 0 a3.5 3.5 0 1 0 -7 0zM2255.86 574.15 a3.5 3.5 0 1 0 7 0 a3.5 3.5 0 1 0 -7 0zM2225.55 556.65 a3.5 3.5 0 1 0 7 0 a3.5 3.5 0 1 0 -7 0zM2225.55 521.65 a3.5 3.5 0 1 0 7 0 a3.5 3.5 0 1 0 -7 0zM2316.48 574.15 a3.5 3.5 0 1 0 7 0 a3.5 3.5 0 1 0 -7 0zM2316.48 609.15 a3.5 3.5 0 1 0 7 0 a3.5 3.5 0 1 0 -7 0zM2286.17 626.65 a3.5 3.5 0 1 0 7 0 a3.5 3.5 0 1 0 -7 0zM2255.86 609.15 a3.5 3.5 0 1 0 7 0 a3.5 3.5 0 1 0 -7 0zM2286.17 976.65 a3.5 3.5 0 1 0 7 0 a3.5 3.5 0 1 0 -7 0zM2316.48 994.15 a3.5 3.5 0 1 0 7 0 a3.5 3.5 0 1 0 -7 0zM2316.48 1029.15 a3.5 3.5 0 1 0 7 0 a3.5 3.5 0 1 0 -7 0zM2286.17 1046.65 a3.5 3.5 0 1 0 7 0 a3.5 3.5 0 1 0 -7 0zM2255.86 1029.15 a3.5 3.5 0 1 0 7 0 a3.5 3.5 0 1 0 -7 0zM2255.86 994.15 a3.5 3.5 0 1 0 7 0 a3.5 3.5 0 1 0 -7 0zM2286.17 1081.65 a3.5 3.5 0 1 0 7 0 a3.5 3.5 0 1 0 -7 0zM2316.48 1099.15 a3.5 3.5 0 1 0 7 0 a3.5 3.5 0 1 0 -7 0zM2316.48 1134.15 a3.5 3.5 0 1 0 7 0 a3.5 3.5 0 1 0 -7 0zM2286.17 1151.65 a3.5 3.5 0 1 0 7 0 a3.5 3.5 0 1 0 -7 0zM2255.86 1134.15 a3.5 3.5 0 1 0 7 0 a3.5 3.5 0 1 0 -7 0zM2255.86 1099.15 a3.5 3.5 0 1 0 7 0 a3.5 3.5 0 1 0 -7 0zM2316.48 189.15 a3.5 3.5 0 1 0 7 0 a3.5 3.5 0 1 0 -7 0zM2346.79 206.65 a3.5 3.5 0 1 0 7 0 a3.5 3.5 0 1 0 -7 0zM2346.79 241.65 a3.5 3.5 0 1 0 7 0 a3.5 3.5 0 1 0 -7 0zM2316.48 259.15 a3.5 3.5 0 1 0 7 0 a3.5 3.5 0 1 0 -7 0zM2286.17 241.65 a3.5 3.5 0 1 0 7 0 a3.5 3.5 0 1 0 -7 0zM2286.17 206.65 a3.5 3.5 0 1 0 7 0 a3.5 3.5 0 1 0 -7 0zM2316.48 294.15 a3.5 3.5 0 1 0 7 0 a3.5 3.5 0 1 0 -7 0zM2346.79 311.65 a3.5 3.5 0 1 0 7 0 a3.5 3.5 0 1 0 -7 0zM2346.79 346.65 a3.5 3.5 0 1 0 7 0 a3.5 3.5 0 1 0 -7 0zM2286.17 311.65 a3.5 3.5 0 1 0 7 0 a3.5 3.5 0 1 0 -7 0zM2346.79 661.65 a3.5 3.5 0 1 0 7 0 a3.5 3.5 0 1 0 -7 0zM2377.11 679.15 a3.5 3.5 0 1 0 7 0 a3.5 3.5 0 1 0 -7 0zM2377.11 714.15 a3.5 3.5 0 1 0 7 0 a3.5 3.5 0 1 0 -7 0zM2346.79 731.65 a3.5 3.5 0 1 0 7 0 a3.5 3.5 0 1 0 -7 0zM2316.48 714.15 a3.5 3.5 0 1 0 7 0 a3.5 3.5 0 1 0 -7 0zM2316.48 679.15 a3.5 3.5 0 1 0 7 0 a3.5 3.5 0 1 0 -7 0zM2316.48 924.15 a3.5 3.5 0 1 0 7 0 a3.5 3.5 0 1 0 -7 0zM2346.79 941.65 a3.5 3.5 0 1 0 7 0 a3.5 3.5 0 1 0 -7 0zM2346.79 976.65 a3.5 3.5 0 1 0 7 0 a3.5 3.5 0 1 0 -7 0zM2286.17 941.65 a3.5 3.5 0 1 0 7 0 a3.5 3.5 0 1 0 -7 0zM2377.11 609.15 a3.5 3.5 0 1 0 7 0 a3.5 3.5 0 1 0 -7 0zM2407.42 626.65 a3.5 3.5 0 1 0 7 0 a3.5 3.5 0 1 0 -7 0zM2407.42 661.65 a3.5 3.5 0 1 0 7 0 a3.5 3.5 0 1 0 -7 0zM2346.79 626.65 a3.5 3.5 0 1 0 7 0 a3.5 3.5 0 1 0 -7 0zM2437.73 679.15 a3.5 3.5 0 1 0 7 0 a3.5 3.5 0 1 0 -7 0zM2437.73 714.15 a3.5 3.5 0 1 0 7 0 a3.5 3.5 0 1 0 -7 0zM2407.42 731.65 a3.5 3.5 0 1 0 7 0 a3.5 3.5 0 1 0 -7 0zM2437.73 -20.85 a3.5 3.5 0 1 0 7 0 a3.5 3.5 0 1 0 -7 0zM2468.04 -3.35 a3.5 3.5 0 1 0 7 0 a3.5 3.5 0 1 0 -7 0zM2468.04 31.65 a3.5 3.5 0 1 0 7 0 a3.5 3.5 0 1 0 -7 0zM2437.73 49.15 a3.5 3.5 0 1 0 7 0 a3.5 3.5 0 1 0 -7 0zM2407.42 31.65 a3.5 3.5 0 1 0 7 0 a3.5 3.5 0 1 0 -7 0zM2407.42 -3.35 a3.5 3.5 0 1 0 7 0 a3.5 3.5 0 1 0 -7 0zM2468.04 346.65 a3.5 3.5 0 1 0 7 0 a3.5 3.5 0 1 0 -7 0zM2498.35 364.15 a3.5 3.5 0 1 0 7 0 a3.5 3.5 0 1 0 -7 0zM2498.35 399.15 a3.5 3.5 0 1 0 7 0 a3.5 3.5 0 1 0 -7 0zM2468.04 416.65 a3.5 3.5 0 1 0 7 0 a3.5 3.5 0 1 0 -7 0zM2437.73 399.15 a3.5 3.5 0 1 0 7 0 a3.5 3.5 0 1 0 -7 0zM2437.73 364.15 a3.5 3.5 0 1 0 7 0 a3.5 3.5 0 1 0 -7 0zM2468.04 661.65 a3.5 3.5 0 1 0 7 0 a3.5 3.5 0 1 0 -7 0zM2498.35 679.15 a3.5 3.5 0 1 0 7 0 a3.5 3.5 0 1 0 -7 0zM2498.35 714.15 a3.5 3.5 0 1 0 7 0 a3.5 3.5 0 1 0 -7 0zM2468.04 731.65 a3.5 3.5 0 1 0 7 0 a3.5 3.5 0 1 0 -7 0zM2468.04 766.65 a3.5 3.5 0 1 0 7 0 a3.5 3.5 0 1 0 -7 0zM2437.73 784.15 a3.5 3.5 0 1 0 7 0 a3.5 3.5 0 1 0 -7 0zM2407.42 766.65 a3.5 3.5 0 1 0 7 0 a3.5 3.5 0 1 0 -7 0zM2558.98 504.15 a3.5 3.5 0 1 0 7 0 a3.5 3.5 0 1 0 -7 0zM2589.29 521.65 a3.5 3.5 0 1 0 7 0 a3.5 3.5 0 1 0 -7 0zM2589.29 556.65 a3.5 3.5 0 1 0 7 0 a3.5 3.5 0 1 0 -7 0zM2558.98 574.15 a3.5 3.5 0 1 0 7 0 a3.5 3.5 0 1 0 -7 0zM2528.67 556.65 a3.5 3.5 0 1 0 7 0 a3.5 3.5 0 1 0 -7 0zM2528.67 521.65 a3.5 3.5 0 1 0 7 0 a3.5 3.5 0 1 0 -7 0zM2619.6 574.15 a3.5 3.5 0 1 0 7 0 a3.5 3.5 0 1 0 -7 0zM2619.6 609.15 a3.5 3.5 0 1 0 7 0 a3.5 3.5 0 1 0 -7 0zM2589.29 626.65 a3.5 3.5 0 1 0 7 0 a3.5 3.5 0 1 0 -7 0zM2558.98 609.15 a3.5 3.5 0 1 0 7 0 a3.5 3.5 0 1 0 -7 0zM2589.29 976.65 a3.5 3.5 0 1 0 7 0 a3.5 3.5 0 1 0 -7 0zM2619.6 994.15 a3.5 3.5 0 1 0 7 0 a3.5 3.5 0 1 0 -7 0zM2619.6 1029.15 a3.5 3.5 0 1 0 7 0 a3.5 3.5 0 1 0 -7 0zM2589.29 1046.65 a3.5 3.5 0 1 0 7 0 a3.5 3.5 0 1 0 -7 0zM2558.98 1029.15 a3.5 3.5 0 1 0 7 0 a3.5 3.5 0 1 0 -7 0zM2558.98 994.15 a3.5 3.5 0 1 0 7 0 a3.5 3.5 0 1 0 -7 0zM2589.29 1081.65 a3.5 3.5 0 1 0 7 0 a3.5 3.5 0 1 0 -7 0zM2619.6 1099.15 a3.5 3.5 0 1 0 7 0 a3.5 3.5 0 1 0 -7 0zM2619.6 1134.15 a3.5 3.5 0 1 0 7 0 a3.5 3.5 0 1 0 -7 0zM2589.29 1151.65 a3.5 3.5 0 1 0 7 0 a3.5 3.5 0 1 0 -7 0zM2558.98 1134.15 a3.5 3.5 0 1 0 7 0 a3.5 3.5 0 1 0 -7 0zM2558.98 1099.15 a3.5 3.5 0 1 0 7 0 a3.5 3.5 0 1 0 -7 0zM2619.6 84.15 a3.5 3.5 0 1 0 7 0 a3.5 3.5 0 1 0 -7 0zM2649.91 101.65 a3.5 3.5 0 1 0 7 0 a3.5 3.5 0 1 0 -7 0zM2649.91 136.65 a3.5 3.5 0 1 0 7 0 a3.5 3.5 0 1 0 -7 0zM2619.6 154.15 a3.5 3.5 0 1 0 7 0 a3.5 3.5 0 1 0 -7 0zM2589.29 136.65 a3.5 3.5 0 1 0 7 0 a3.5 3.5 0 1 0 -7 0zM2589.29 101.65 a3.5 3.5 0 1 0 7 0 a3.5 3.5 0 1 0 -7 0zM2619.6 294.15 a3.5 3.5 0 1 0 7 0 a3.5 3.5 0 1 0 -7 0zM2649.91 311.65 a3.5 3.5 0 1 0 7 0 a3.5 3.5 0 1 0 -7 0zM2649.91 346.65 a3.5 3.5 0 1 0 7 0 a3.5 3.5 0 1 0 -7 0zM2619.6 364.15 a3.5 3.5 0 1 0 7 0 a3.5 3.5 0 1 0 -7 0zM2589.29 346.65 a3.5 3.5 0 1 0 7 0 a3.5 3.5 0 1 0 -7 0zM2589.29 311.65 a3.5 3.5 0 1 0 7 0 a3.5 3.5 0 1 0 -7 0zM2649.91 451.65 a3.5 3.5 0 1 0 7 0 a3.5 3.5 0 1 0 -7 0zM2680.22 469.15 a3.5 3.5 0 1 0 7 0 a3.5 3.5 0 1 0 -7 0zM2680.22 504.15 a3.5 3.5 0 1 0 7 0 a3.5 3.5 0 1 0 -7 0zM2649.91 521.65 a3.5 3.5 0 1 0 7 0 a3.5 3.5 0 1 0 -7 0zM2619.6 504.15 a3.5 3.5 0 1 0 7 0 a3.5 3.5 0 1 0 -7 0zM2619.6 469.15 a3.5 3.5 0 1 0 7 0 a3.5 3.5 0 1 0 -7 0zM2619.6 714.15 a3.5 3.5 0 1 0 7 0 a3.5 3.5 0 1 0 -7 0zM2649.91 731.65 a3.5 3.5 0 1 0 7 0 a3.5 3.5 0 1 0 -7 0zM2649.91 766.65 a3.5 3.5 0 1 0 7 0 a3.5 3.5 0 1 0 -7 0zM2619.6 784.15 a3.5 3.5 0 1 0 7 0 a3.5 3.5 0 1 0 -7 0zM2589.29 766.65 a3.5 3.5 0 1 0 7 0 a3.5 3.5 0 1 0 -7 0zM2589.29 731.65 a3.5 3.5 0 1 0 7 0 a3.5 3.5 0 1 0 -7 0zM2649.91 871.65 a3.5 3.5 0 1 0 7 0 a3.5 3.5 0 1 0 -7 0zM2680.22 889.15 a3.5 3.5 0 1 0 7 0 a3.5 3.5 0 1 0 -7 0zM2680.22 924.15 a3.5 3.5 0 1 0 7 0 a3.5 3.5 0 1 0 -7 0zM2649.91 941.65 a3.5 3.5 0 1 0 7 0 a3.5 3.5 0 1 0 -7 0zM2619.6 924.15 a3.5 3.5 0 1 0 7 0 a3.5 3.5 0 1 0 -7 0zM2619.6 889.15 a3.5 3.5 0 1 0 7 0 a3.5 3.5 0 1 0 -7 0zM2649.91 976.65 a3.5 3.5 0 1 0 7 0 a3.5 3.5 0 1 0 -7 0zM2680.22 994.15 a3.5 3.5 0 1 0 7 0 a3.5 3.5 0 1 0 -7 0zM2680.22 1029.15 a3.5 3.5 0 1 0 7 0 a3.5 3.5 0 1 0 -7 0zM2649.91 1046.65 a3.5 3.5 0 1 0 7 0 a3.5 3.5 0 1 0 -7 0zM2649.91 1081.65 a3.5 3.5 0 1 0 7 0 a3.5 3.5 0 1 0 -7 0zM2680.22 1099.15 a3.5 3.5 0 1 0 7 0 a3.5 3.5 0 1 0 -7 0zM2680.22 1134.15 a3.5 3.5 0 1 0 7 0 a3.5 3.5 0 1 0 -7 0zM2649.91 1151.65 a3.5 3.5 0 1 0 7 0 a3.5 3.5 0 1 0 -7 0zM2710.54 136.65 a3.5 3.5 0 1 0 7 0 a3.5 3.5 0 1 0 -7 0zM2740.85 154.15 a3.5 3.5 0 1 0 7 0 a3.5 3.5 0 1 0 -7 0zM2740.85 189.15 a3.5 3.5 0 1 0 7 0 a3.5 3.5 0 1 0 -7 0zM2710.54 206.65 a3.5 3.5 0 1 0 7 0 a3.5 3.5 0 1 0 -7 0zM2680.22 189.15 a3.5 3.5 0 1 0 7 0 a3.5 3.5 0 1 0 -7 0zM2680.22 154.15 a3.5 3.5 0 1 0 7 0 a3.5 3.5 0 1 0 -7 0zM2680.22 399.15 a3.5 3.5 0 1 0 7 0 a3.5 3.5 0 1 0 -7 0zM2710.54 416.65 a3.5 3.5 0 1 0 7 0 a3.5 3.5 0 1 0 -7 0zM2710.54 451.65 a3.5 3.5 0 1 0 7 0 a3.5 3.5 0 1 0 -7 0zM2649.91 416.65 a3.5 3.5 0 1 0 7 0 a3.5 3.5 0 1 0 -7 0zM2710.54 521.65 a3.5 3.5 0 1 0 7 0 a3.5 3.5 0 1 0 -7 0zM2710.54 556.65 a3.5 3.5 0 1 0 7 0 a3.5 3.5 0 1 0 -7 0zM2680.22 574.15 a3.5 3.5 0 1 0 7 0 a3.5 3.5 0 1 0 -7 0zM2649.91 556.65 a3.5 3.5 0 1 0 7 0 a3.5 3.5 0 1 0 -7 0zM2710.54 1081.65 a3.5 3.5 0 1 0 7 0 a3.5 3.5 0 1 0 -7 0zM2740.85 1099.15 a3.5 3.5 0 1 0 7 0 a3.5 3.5 0 1 0 -7 0zM2740.85 1134.15 a3.5 3.5 0 1 0 7 0 a3.5 3.5 0 1 0 -7 0zM2710.54 1151.65 a3.5 3.5 0 1 0 7 0 a3.5 3.5 0 1 0 -7 0zM2771.16 31.65 a3.5 3.5 0 1 0 7 0 a3.5 3.5 0 1 0 -7 0zM2801.47 49.15 a3.5 3.5 0 1 0 7 0 a3.5 3.5 0 1 0 -7 0zM2801.47 84.15 a3.5 3.5 0 1 0 7 0 a3.5 3.5 0 1 0 -7 0zM2771.16 101.65 a3.5 3.5 0 1 0 7 0 a3.5 3.5 0 1 0 -7 0zM2740.85 84.15 a3.5 3.5 0 1 0 7 0 a3.5 3.5 0 1 0 -7 0zM2740.85 49.15 a3.5 3.5 0 1 0 7 0 a3.5 3.5 0 1 0 -7 0zM2771.16 451.65 a3.5 3.5 0 1 0 7 0 a3.5 3.5 0 1 0 -7 0zM2801.47 469.15 a3.5 3.5 0 1 0 7 0 a3.5 3.5 0 1 0 -7 0zM2801.47 504.15 a3.5 3.5 0 1 0 7 0 a3.5 3.5 0 1 0 -7 0zM2771.16 521.65 a3.5 3.5 0 1 0 7 0 a3.5 3.5 0 1 0 -7 0zM2740.85 504.15 a3.5 3.5 0 1 0 7 0 a3.5 3.5 0 1 0 -7 0zM2740.85 469.15 a3.5 3.5 0 1 0 7 0 a3.5 3.5 0 1 0 -7 0zM2771.16 871.65 a3.5 3.5 0 1 0 7 0 a3.5 3.5 0 1 0 -7 0zM2801.47 889.15 a3.5 3.5 0 1 0 7 0 a3.5 3.5 0 1 0 -7 0zM2801.47 924.15 a3.5 3.5 0 1 0 7 0 a3.5 3.5 0 1 0 -7 0zM2771.16 941.65 a3.5 3.5 0 1 0 7 0 a3.5 3.5 0 1 0 -7 0zM2740.85 924.15 a3.5 3.5 0 1 0 7 0 a3.5 3.5 0 1 0 -7 0zM2740.85 889.15 a3.5 3.5 0 1 0 7 0 a3.5 3.5 0 1 0 -7 0zM2831.78 241.65 a3.5 3.5 0 1 0 7 0 a3.5 3.5 0 1 0 -7 0zM2862.09 259.15 a3.5 3.5 0 1 0 7 0 a3.5 3.5 0 1 0 -7 0zM2862.09 294.15 a3.5 3.5 0 1 0 7 0 a3.5 3.5 0 1 0 -7 0zM2831.78 311.65 a3.5 3.5 0 1 0 7 0 a3.5 3.5 0 1 0 -7 0zM2801.47 294.15 a3.5 3.5 0 1 0 7 0 a3.5 3.5 0 1 0 -7 0zM2801.47 259.15 a3.5 3.5 0 1 0 7 0 a3.5 3.5 0 1 0 -7 0zM2831.78 556.65 a3.5 3.5 0 1 0 7 0 a3.5 3.5 0 1 0 -7 0zM2862.09 574.15 a3.5 3.5 0 1 0 7 0 a3.5 3.5 0 1 0 -7 0zM2862.09 609.15 a3.5 3.5 0 1 0 7 0 a3.5 3.5 0 1 0 -7 0zM2831.78 626.65 a3.5 3.5 0 1 0 7 0 a3.5 3.5 0 1 0 -7 0zM2801.47 609.15 a3.5 3.5 0 1 0 7 0 a3.5 3.5 0 1 0 -7 0zM2801.47 574.15 a3.5 3.5 0 1 0 7 0 a3.5 3.5 0 1 0 -7 0zM2831.78 871.65 a3.5 3.5 0 1 0 7 0 a3.5 3.5 0 1 0 -7 0zM2862.09 889.15 a3.5 3.5 0 1 0 7 0 a3.5 3.5 0 1 0 -7 0zM2862.09 924.15 a3.5 3.5 0 1 0 7 0 a3.5 3.5 0 1 0 -7 0zM2831.78 941.65 a3.5 3.5 0 1 0 7 0 a3.5 3.5 0 1 0 -7 0zM2831.78 976.65 a3.5 3.5 0 1 0 7 0 a3.5 3.5 0 1 0 -7 0zM2801.47 994.15 a3.5 3.5 0 1 0 7 0 a3.5 3.5 0 1 0 -7 0zM2771.16 976.65 a3.5 3.5 0 1 0 7 0 a3.5 3.5 0 1 0 -7 0zM2801.47 1029.15 a3.5 3.5 0 1 0 7 0 a3.5 3.5 0 1 0 -7 0zM2831.78 1046.65 a3.5 3.5 0 1 0 7 0 a3.5 3.5 0 1 0 -7 0zM2831.78 1081.65 a3.5 3.5 0 1 0 7 0 a3.5 3.5 0 1 0 -7 0zM2801.47 1099.15 a3.5 3.5 0 1 0 7 0 a3.5 3.5 0 1 0 -7 0zM2771.16 1081.65 a3.5 3.5 0 1 0 7 0 a3.5 3.5 0 1 0 -7 0zM2771.16 1046.65 a3.5 3.5 0 1 0 7 0 a3.5 3.5 0 1 0 -7 0zM2862.09 1099.15 a3.5 3.5 0 1 0 7 0 a3.5 3.5 0 1 0 -7 0zM2862.09 1134.15 a3.5 3.5 0 1 0 7 0 a3.5 3.5 0 1 0 -7 0zM2831.78 1151.65 a3.5 3.5 0 1 0 7 0 a3.5 3.5 0 1 0 -7 0zM2801.47 1134.15 a3.5 3.5 0 1 0 7 0 a3.5 3.5 0 1 0 -7 0zM2862.09 84.15 a3.5 3.5 0 1 0 7 0 a3.5 3.5 0 1 0 -7 0zM2892.41 101.65 a3.5 3.5 0 1 0 7 0 a3.5 3.5 0 1 0 -7 0zM2892.41 136.65 a3.5 3.5 0 1 0 7 0 a3.5 3.5 0 1 0 -7 0zM2862.09 154.15 a3.5 3.5 0 1 0 7 0 a3.5 3.5 0 1 0 -7 0zM2831.78 136.65 a3.5 3.5 0 1 0 7 0 a3.5 3.5 0 1 0 -7 0zM2831.78 101.65 a3.5 3.5 0 1 0 7 0 a3.5 3.5 0 1 0 -7 0zM2922.72 154.15 a3.5 3.5 0 1 0 7 0 a3.5 3.5 0 1 0 -7 0zM2922.72 189.15 a3.5 3.5 0 1 0 7 0 a3.5 3.5 0 1 0 -7 0zM2892.41 206.65 a3.5 3.5 0 1 0 7 0 a3.5 3.5 0 1 0 -7 0zM2862.09 189.15 a3.5 3.5 0 1 0 7 0 a3.5 3.5 0 1 0 -7 0zM2892.41 451.65 a3.5 3.5 0 1 0 7 0 a3.5 3.5 0 1 0 -7 0zM2922.72 469.15 a3.5 3.5 0 1 0 7 0 a3.5 3.5 0 1 0 -7 0zM2922.72 504.15 a3.5 3.5 0 1 0 7 0 a3.5 3.5 0 1 0 -7 0zM2892.41 521.65 a3.5 3.5 0 1 0 7 0 a3.5 3.5 0 1 0 -7 0zM2862.09 504.15 a3.5 3.5 0 1 0 7 0 a3.5 3.5 0 1 0 -7 0zM2862.09 469.15 a3.5 3.5 0 1 0 7 0 a3.5 3.5 0 1 0 -7 0zM2892.41 766.65 a3.5 3.5 0 1 0 7 0 a3.5 3.5 0 1 0 -7 0zM2922.72 784.15 a3.5 3.5 0 1 0 7 0 a3.5 3.5 0 1 0 -7 0zM2922.72 819.15 a3.5 3.5 0 1 0 7 0 a3.5 3.5 0 1 0 -7 0zM2892.41 836.65 a3.5 3.5 0 1 0 7 0 a3.5 3.5 0 1 0 -7 0zM2862.09 819.15 a3.5 3.5 0 1 0 7 0 a3.5 3.5 0 1 0 -7 0zM2862.09 784.15 a3.5 3.5 0 1 0 7 0 a3.5 3.5 0 1 0 -7 0zM2953.03 451.65 a3.5 3.5 0 1 0 7 0 a3.5 3.5 0 1 0 -7 0zM2983.34 469.15 a3.5 3.5 0 1 0 7 0 a3.5 3.5 0 1 0 -7 0zM2983.34 504.15 a3.5 3.5 0 1 0 7 0 a3.5 3.5 0 1 0 -7 0zM2953.03 521.65 a3.5 3.5 0 1 0 7 0 a3.5 3.5 0 1 0 -7 0zM2983.34 189.15 a3.5 3.5 0 1 0 7 0 a3.5 3.5 0 1 0 -7 0zM3013.65 206.65 a3.5 3.5 0 1 0 7 0 a3.5 3.5 0 1 0 -7 0zM3013.65 241.65 a3.5 3.5 0 1 0 7 0 a3.5 3.5 0 1 0 -7 0zM2983.34 259.15 a3.5 3.5 0 1 0 7 0 a3.5 3.5 0 1 0 -7 0zM2953.03 241.65 a3.5 3.5 0 1 0 7 0 a3.5 3.5 0 1 0 -7 0zM2953.03 206.65 a3.5 3.5 0 1 0 7 0 a3.5 3.5 0 1 0 -7 0zM2983.34 714.15 a3.5 3.5 0 1 0 7 0 a3.5 3.5 0 1 0 -7 0zM3013.65 731.65 a3.5 3.5 0 1 0 7 0 a3.5 3.5 0 1 0 -7 0zM3013.65 766.65 a3.5 3.5 0 1 0 7 0 a3.5 3.5 0 1 0 -7 0zM2983.34 784.15 a3.5 3.5 0 1 0 7 0 a3.5 3.5 0 1 0 -7 0zM2953.03 766.65 a3.5 3.5 0 1 0 7 0 a3.5 3.5 0 1 0 -7 0zM2953.03 731.65 a3.5 3.5 0 1 0 7 0 a3.5 3.5 0 1 0 -7 0zM3013.65 871.65 a3.5 3.5 0 1 0 7 0 a3.5 3.5 0 1 0 -7 0zM3043.96 889.15 a3.5 3.5 0 1 0 7 0 a3.5 3.5 0 1 0 -7 0zM3043.96 924.15 a3.5 3.5 0 1 0 7 0 a3.5 3.5 0 1 0 -7 0zM3013.65 941.65 a3.5 3.5 0 1 0 7 0 a3.5 3.5 0 1 0 -7 0zM2983.34 924.15 a3.5 3.5 0 1 0 7 0 a3.5 3.5 0 1 0 -7 0zM2983.34 889.15 a3.5 3.5 0 1 0 7 0 a3.5 3.5 0 1 0 -7 0zM3013.65 1081.65 a3.5 3.5 0 1 0 7 0 a3.5 3.5 0 1 0 -7 0zM3043.96 1099.15 a3.5 3.5 0 1 0 7 0 a3.5 3.5 0 1 0 -7 0zM3043.96 1134.15 a3.5 3.5 0 1 0 7 0 a3.5 3.5 0 1 0 -7 0zM3013.65 1151.65 a3.5 3.5 0 1 0 7 0 a3.5 3.5 0 1 0 -7 0zM2983.34 1134.15 a3.5 3.5 0 1 0 7 0 a3.5 3.5 0 1 0 -7 0zM2983.34 1099.15 a3.5 3.5 0 1 0 7 0 a3.5 3.5 0 1 0 -7 0z" fill="#03305d"></path><path d="M20.63 200.1L41.42 212.1L41.42 236.1L20.63 248.1L-0.16 236.1L-0.16 212.1zM20.63 416.1L41.42 428.1L41.42 452.1L20.63 464.1L-0.16 452.1L-0.16 428.1zM20.63 704.1L41.42 716.1L41.42 740.1L20.63 752.1L-0.16 740.1L-0.16 716.1zM20.63 920.1L41.42 932.1L41.42 956.1L20.63 968.1L-0.16 956.1L-0.16 932.1zM62.2 -15.9L82.99 -3.9L82.99 20.1L62.2 32.1L41.42 20.1L41.42 -3.9zM62.2 200.1L82.99 212.1L82.99 236.1L62.2 248.1L41.42 236.1L41.42 212.1zM103.77 776.1L124.56 788.1L124.56 812.1L103.77 824.1L82.99 812.1L82.99 788.1zM166.13 308.1L186.91 320.1L186.91 344.1L166.13 356.1L145.34 344.1L145.34 320.1zM145.34 344.1L166.13 356.1L166.13 380.1L145.34 392.1L124.56 380.1L124.56 356.1zM166.13 956.1L186.91 968.1L186.91 992.1L166.13 1004.1L145.34 992.1L145.34 968.1zM145.34 1064.1L166.13 1076.1L166.13 1100.1L145.34 1112.1L124.56 1100.1L124.56 1076.1zM186.91 344.1L207.7 356.1L207.7 380.1L186.91 392.1L166.13 380.1L166.13 356.1zM186.91 776.1L207.7 788.1L207.7 812.1L186.91 824.1L166.13 812.1L166.13 788.1zM186.91 848.1L207.7 860.1L207.7 884.1L186.91 896.1L166.13 884.1L166.13 860.1zM207.7 956.1L228.48 968.1L228.48 992.1L207.7 1004.1L186.91 992.1L186.91 968.1zM228.48 56.1L249.27 68.1L249.27 92.1L228.48 104.1L207.7 92.1L207.7 68.1zM249.27 308.1L270.05 320.1L270.05 344.1L249.27 356.1L228.48 344.1L228.48 320.1zM249.27 668.1L270.05 680.1L270.05 704.1L249.27 716.1L228.48 704.1L228.48 680.1zM228.48 704.1L249.27 716.1L249.27 740.1L228.48 752.1L207.7 740.1L207.7 716.1zM249.27 740.1L270.05 752.1L270.05 776.1L249.27 788.1L228.48 776.1L228.48 752.1zM228.48 920.1L249.27 932.1L249.27 956.1L228.48 968.1L207.7 956.1L207.7 932.1zM228.48 992.1L249.27 1004.1L249.27 1028.1L228.48 1040.1L207.7 1028.1L207.7 1004.1zM270.05 560.1L290.84 572.1L290.84 596.1L270.05 608.1L249.27 596.1L249.27 572.1zM270.05 632.1L290.84 644.1L290.84 668.1L270.05 680.1L249.27 668.1L249.27 644.1zM290.84 812.1L311.62 824.1L311.62 848.1L290.84 860.1L270.05 848.1L270.05 824.1zM270.05 1064.1L290.84 1076.1L290.84 1100.1L270.05 1112.1L249.27 1100.1L249.27 1076.1zM373.98 236.1L394.76 248.1L394.76 272.1L373.98 284.1L353.19 272.1L353.19 248.1zM353.19 344.1L373.98 356.1L373.98 380.1L353.19 392.1L332.41 380.1L332.41 356.1zM373.98 380.1L394.76 392.1L394.76 416.1L373.98 428.1L353.19 416.1L353.19 392.1zM353.19 560.1L373.98 572.1L373.98 596.1L353.19 608.1L332.41 596.1L332.41 572.1zM394.76 488.1L415.55 500.1L415.55 524.1L394.76 536.1L373.98 524.1L373.98 500.1zM394.76 848.1L415.55 860.1L415.55 884.1L394.76 896.1L373.98 884.1L373.98 860.1zM436.33 -15.9L457.12 -3.9L457.12 20.1L436.33 32.1L415.55 20.1L415.55 -3.9zM436.33 272.1L457.12 284.1L457.12 308.1L436.33 320.1L415.55 308.1L415.55 284.1zM436.33 488.1L457.12 500.1L457.12 524.1L436.33 536.1L415.55 524.1L415.55 500.1zM457.12 596.1L477.9 608.1L477.9 632.1L457.12 644.1L436.33 632.1L436.33 608.1zM457.12 740.1L477.9 752.1L477.9 776.1L457.12 788.1L436.33 776.1L436.33 752.1zM457.12 956.1L477.9 968.1L477.9 992.1L457.12 1004.1L436.33 992.1L436.33 968.1zM477.9 56.1L498.69 68.1L498.69 92.1L477.9 104.1L457.12 92.1L457.12 68.1zM498.69 380.1L519.47 392.1L519.47 416.1L498.69 428.1L477.9 416.1L477.9 392.1zM477.9 920.1L498.69 932.1L498.69 956.1L477.9 968.1L457.12 956.1L457.12 932.1zM519.47 416.1L540.26 428.1L540.26 452.1L519.47 464.1L498.69 452.1L498.69 428.1zM519.47 488.1L540.26 500.1L540.26 524.1L519.47 536.1L498.69 524.1L498.69 500.1zM540.26 884.1L561.05 896.1L561.05 920.1L540.26 932.1L519.47 920.1L519.47 896.1zM561.05 56.1L581.83 68.1L581.83 92.1L561.05 104.1L540.26 92.1L540.26 68.1zM561.05 344.1L581.83 356.1L581.83 380.1L561.05 392.1L540.26 380.1L540.26 356.1zM581.83 380.1L602.62 392.1L602.62 416.1L581.83 428.1L561.05 416.1L561.05 392.1zM581.83 596.1L602.62 608.1L602.62 632.1L581.83 644.1L561.05 632.1L561.05 608.1zM561.05 632.1L581.83 644.1L581.83 668.1L561.05 680.1L540.26 668.1L540.26 644.1zM602.62 -15.9L623.4 -3.9L623.4 20.1L602.62 32.1L581.83 20.1L581.83 -3.9zM602.62 344.1L623.4 356.1L623.4 380.1L602.62 392.1L581.83 380.1L581.83 356.1zM602.62 704.1L623.4 716.1L623.4 740.1L602.62 752.1L581.83 740.1L581.83 716.1zM644.19 56.1L664.97 68.1L664.97 92.1L644.19 104.1L623.4 92.1L623.4 68.1zM644.19 1064.1L664.97 1076.1L664.97 1100.1L644.19 1112.1L623.4 1100.1L623.4 1076.1zM706.54 20.1L727.33 32.1L727.33 56.1L706.54 68.1L685.76 56.1L685.76 32.1zM685.76 776.1L706.54 788.1L706.54 812.1L685.76 824.1L664.97 812.1L664.97 788.1zM706.54 1028.1L727.33 1040.1L727.33 1064.1L706.54 1076.1L685.76 1064.1L685.76 1040.1zM727.33 56.1L748.11 68.1L748.11 92.1L727.33 104.1L706.54 92.1L706.54 68.1zM727.33 560.1L748.11 572.1L748.11 596.1L727.33 608.1L706.54 596.1L706.54 572.1zM748.11 740.1L768.9 752.1L768.9 776.1L748.11 788.1L727.33 776.1L727.33 752.1zM727.33 848.1L748.11 860.1L748.11 884.1L727.33 896.1L706.54 884.1L706.54 860.1zM789.68 164.1L810.47 176.1L810.47 200.1L789.68 212.1L768.9 200.1L768.9 176.1zM789.68 812.1L810.47 824.1L810.47 848.1L789.68 860.1L768.9 848.1L768.9 824.1zM768.9 848.1L789.68 860.1L789.68 884.1L768.9 896.1L748.11 884.1L748.11 860.1zM831.25 92.1L852.04 104.1L852.04 128.1L831.25 140.1L810.47 128.1L810.47 104.1zM810.47 128.1L831.25 140.1L831.25 164.1L810.47 176.1L789.68 164.1L789.68 140.1zM831.25 236.1L852.04 248.1L852.04 272.1L831.25 284.1L810.47 272.1L810.47 248.1zM831.25 524.1L852.04 536.1L852.04 560.1L831.25 572.1L810.47 560.1L810.47 536.1zM872.82 20.1L893.61 32.1L893.61 56.1L872.82 68.1L852.04 56.1L852.04 32.1zM852.04 776.1L872.82 788.1L872.82 812.1L852.04 824.1L831.25 812.1L831.25 788.1zM852.04 920.1L872.82 932.1L872.82 956.1L852.04 968.1L831.25 956.1L831.25 932.1zM893.61 200.1L914.39 212.1L914.39 236.1L893.61 248.1L872.82 236.1L872.82 212.1zM914.39 740.1L935.18 752.1L935.18 776.1L914.39 788.1L893.61 776.1L893.61 752.1zM935.18 488.1L955.96 500.1L955.96 524.1L935.18 536.1L914.39 524.1L914.39 500.1zM955.96 524.1L976.75 536.1L976.75 560.1L955.96 572.1L935.18 560.1L935.18 536.1zM935.18 1064.1L955.96 1076.1L955.96 1100.1L935.18 1112.1L914.39 1100.1L914.39 1076.1zM976.75 56.1L997.53 68.1L997.53 92.1L976.75 104.1L955.96 92.1L955.96 68.1zM976.75 632.1L997.53 644.1L997.53 668.1L976.75 680.1L955.96 668.1L955.96 644.1zM976.75 704.1L997.53 716.1L997.53 740.1L976.75 752.1L955.96 740.1L955.96 716.1zM976.75 848.1L997.53 860.1L997.53 884.1L976.75 896.1L955.96 884.1L955.96 860.1zM997.53 884.1L1018.32 896.1L1018.32 920.1L997.53 932.1L976.75 920.1L976.75 896.1zM1018.32 344.1L1039.1 356.1L1039.1 380.1L1018.32 392.1L997.53 380.1L997.53 356.1zM1059.89 632.1L1080.68 644.1L1080.68 668.1L1059.89 680.1L1039.1 668.1L1039.1 644.1zM1101.46 -15.9L1122.25 -3.9L1122.25 20.1L1101.46 32.1L1080.68 20.1L1080.68 -3.9zM1101.46 128.1L1122.25 140.1L1122.25 164.1L1101.46 176.1L1080.68 164.1L1080.68 140.1zM1101.46 272.1L1122.25 284.1L1122.25 308.1L1101.46 320.1L1080.68 308.1L1080.68 284.1zM1101.46 560.1L1122.25 572.1L1122.25 596.1L1101.46 608.1L1080.68 596.1L1080.68 572.1zM1163.82 524.1L1184.6 536.1L1184.6 560.1L1163.82 572.1L1143.03 560.1L1143.03 536.1zM1143.03 632.1L1163.82 644.1L1163.82 668.1L1143.03 680.1L1122.25 668.1L1122.25 644.1zM1184.6 -15.9L1205.39 -3.9L1205.39 20.1L1184.6 32.1L1163.82 20.1L1163.82 -3.9zM1205.39 164.1L1226.17 176.1L1226.17 200.1L1205.39 212.1L1184.6 200.1L1184.6 176.1zM1184.6 200.1L1205.39 212.1L1205.39 236.1L1184.6 248.1L1163.82 236.1L1163.82 212.1zM1226.17 -15.9L1246.96 -3.9L1246.96 20.1L1226.17 32.1L1205.39 20.1L1205.39 -3.9zM1226.17 200.1L1246.96 212.1L1246.96 236.1L1226.17 248.1L1205.39 236.1L1205.39 212.1zM1246.96 380.1L1267.74 392.1L1267.74 416.1L1246.96 428.1L1226.17 416.1L1226.17 392.1zM1267.74 416.1L1288.53 428.1L1288.53 452.1L1267.74 464.1L1246.96 452.1L1246.96 428.1zM1267.74 1064.1L1288.53 1076.1L1288.53 1100.1L1267.74 1112.1L1246.96 1100.1L1246.96 1076.1zM1309.31 200.1L1330.1 212.1L1330.1 236.1L1309.31 248.1L1288.53 236.1L1288.53 212.1zM1309.31 776.1L1330.1 788.1L1330.1 812.1L1309.31 824.1L1288.53 812.1L1288.53 788.1zM1330.1 1028.1L1350.88 1040.1L1350.88 1064.1L1330.1 1076.1L1309.31 1064.1L1309.31 1040.1zM1309.31 1064.1L1330.1 1076.1L1330.1 1100.1L1309.31 1112.1L1288.53 1100.1L1288.53 1076.1zM1350.88 -15.9L1371.67 -3.9L1371.67 20.1L1350.88 32.1L1330.1 20.1L1330.1 -3.9zM1350.88 776.1L1371.67 788.1L1371.67 812.1L1350.88 824.1L1330.1 812.1L1330.1 788.1zM1392.45 -15.9L1413.24 -3.9L1413.24 20.1L1392.45 32.1L1371.67 20.1L1371.67 -3.9zM1413.24 20.1L1434.02 32.1L1434.02 56.1L1413.24 68.1L1392.45 56.1L1392.45 32.1zM1413.24 236.1L1434.02 248.1L1434.02 272.1L1413.24 284.1L1392.45 272.1L1392.45 248.1zM1413.24 452.1L1434.02 464.1L1434.02 488.1L1413.24 500.1L1392.45 488.1L1392.45 464.1zM1413.24 1028.1L1434.02 1040.1L1434.02 1064.1L1413.24 1076.1L1392.45 1064.1L1392.45 1040.1zM1434.02 272.1L1454.81 284.1L1454.81 308.1L1434.02 320.1L1413.24 308.1L1413.24 284.1zM1434.02 488.1L1454.81 500.1L1454.81 524.1L1434.02 536.1L1413.24 524.1L1413.24 500.1zM1496.38 308.1L1517.16 320.1L1517.16 344.1L1496.38 356.1L1475.59 344.1L1475.59 320.1zM1475.59 416.1L1496.38 428.1L1496.38 452.1L1475.59 464.1L1454.81 452.1L1454.81 428.1zM1496.38 812.1L1517.16 824.1L1517.16 848.1L1496.38 860.1L1475.59 848.1L1475.59 824.1zM1496.38 884.1L1517.16 896.1L1517.16 920.1L1496.38 932.1L1475.59 920.1L1475.59 896.1zM1537.95 308.1L1558.73 320.1L1558.73 344.1L1537.95 356.1L1517.16 344.1L1517.16 320.1zM1517.16 488.1L1537.95 500.1L1537.95 524.1L1517.16 536.1L1496.38 524.1L1496.38 500.1zM1517.16 560.1L1537.95 572.1L1537.95 596.1L1517.16 608.1L1496.38 596.1L1496.38 572.1zM1579.52 380.1L1600.31 392.1L1600.31 416.1L1579.52 428.1L1558.73 416.1L1558.73 392.1zM1621.09 20.1L1641.88 32.1L1641.88 56.1L1621.09 68.1L1600.31 56.1L1600.31 32.1zM1600.31 56.1L1621.09 68.1L1621.09 92.1L1600.31 104.1L1579.52 92.1L1579.52 68.1zM1600.31 344.1L1621.09 356.1L1621.09 380.1L1600.31 392.1L1579.52 380.1L1579.52 356.1zM1600.31 488.1L1621.09 500.1L1621.09 524.1L1600.31 536.1L1579.52 524.1L1579.52 500.1zM1600.31 560.1L1621.09 572.1L1621.09 596.1L1600.31 608.1L1579.52 596.1L1579.52 572.1zM1621.09 668.1L1641.88 680.1L1641.88 704.1L1621.09 716.1L1600.31 704.1L1600.31 680.1zM1621.09 1028.1L1641.88 1040.1L1641.88 1064.1L1621.09 1076.1L1600.31 1064.1L1600.31 1040.1zM1662.66 164.1L1683.45 176.1L1683.45 200.1L1662.66 212.1L1641.88 200.1L1641.88 176.1zM1662.66 380.1L1683.45 392.1L1683.45 416.1L1662.66 428.1L1641.88 416.1L1641.88 392.1zM1641.88 1064.1L1662.66 1076.1L1662.66 1100.1L1641.88 1112.1L1621.09 1100.1L1621.09 1076.1zM1683.45 56.1L1704.23 68.1L1704.23 92.1L1683.45 104.1L1662.66 92.1L1662.66 68.1zM1683.45 200.1L1704.23 212.1L1704.23 236.1L1683.45 248.1L1662.66 236.1L1662.66 212.1zM1725.02 272.1L1745.8 284.1L1745.8 308.1L1725.02 320.1L1704.23 308.1L1704.23 284.1zM1725.02 488.1L1745.8 500.1L1745.8 524.1L1725.02 536.1L1704.23 524.1L1704.23 500.1zM1745.8 740.1L1766.59 752.1L1766.59 776.1L1745.8 788.1L1725.02 776.1L1725.02 752.1zM1745.8 1028.1L1766.59 1040.1L1766.59 1064.1L1745.8 1076.1L1725.02 1064.1L1725.02 1040.1zM1828.94 452.1L1849.73 464.1L1849.73 488.1L1828.94 500.1L1808.16 488.1L1808.16 464.1zM1808.16 632.1L1828.94 644.1L1828.94 668.1L1808.16 680.1L1787.37 668.1L1787.37 644.1zM1870.51 236.1L1891.3 248.1L1891.3 272.1L1870.51 284.1L1849.73 272.1L1849.73 248.1zM1849.73 848.1L1870.51 860.1L1870.51 884.1L1849.73 896.1L1828.94 884.1L1828.94 860.1zM1891.3 200.1L1912.08 212.1L1912.08 236.1L1891.3 248.1L1870.51 236.1L1870.51 212.1zM1912.08 524.1L1932.87 536.1L1932.87 560.1L1912.08 572.1L1891.3 560.1L1891.3 536.1zM1912.08 1028.1L1932.87 1040.1L1932.87 1064.1L1912.08 1076.1L1891.3 1064.1L1891.3 1040.1zM1891.3 1064.1L1912.08 1076.1L1912.08 1100.1L1891.3 1112.1L1870.51 1100.1L1870.51 1076.1zM1953.65 164.1L1974.44 176.1L1974.44 200.1L1953.65 212.1L1932.87 200.1L1932.87 176.1zM1953.65 812.1L1974.44 824.1L1974.44 848.1L1953.65 860.1L1932.87 848.1L1932.87 824.1zM1974.44 -15.9L1995.22 -3.9L1995.22 20.1L1974.44 32.1L1953.65 20.1L1953.65 -3.9zM1995.22 956.1L2016.01 968.1L2016.01 992.1L1995.22 1004.1L1974.44 992.1L1974.44 968.1zM2036.79 92.1L2057.58 104.1L2057.58 128.1L2036.79 140.1L2016.01 128.1L2016.01 104.1zM2016.01 200.1L2036.79 212.1L2036.79 236.1L2016.01 248.1L1995.22 236.1L1995.22 212.1zM2036.79 884.1L2057.58 896.1L2057.58 920.1L2036.79 932.1L2016.01 920.1L2016.01 896.1zM2078.36 596.1L2099.15 608.1L2099.15 632.1L2078.36 644.1L2057.58 632.1L2057.58 608.1zM2057.58 848.1L2078.36 860.1L2078.36 884.1L2057.58 896.1L2036.79 884.1L2036.79 860.1zM2057.58 1064.1L2078.36 1076.1L2078.36 1100.1L2057.58 1112.1L2036.79 1100.1L2036.79 1076.1zM2099.15 200.1L2119.94 212.1L2119.94 236.1L2099.15 248.1L2078.36 236.1L2078.36 212.1zM2119.94 740.1L2140.72 752.1L2140.72 776.1L2119.94 788.1L2099.15 776.1L2099.15 752.1zM2119.94 884.1L2140.72 896.1L2140.72 920.1L2119.94 932.1L2099.15 920.1L2099.15 896.1zM2161.51 308.1L2182.29 320.1L2182.29 344.1L2161.51 356.1L2140.72 344.1L2140.72 320.1zM2161.51 596.1L2182.29 608.1L2182.29 632.1L2161.51 644.1L2140.72 632.1L2140.72 608.1zM2140.72 632.1L2161.51 644.1L2161.51 668.1L2140.72 680.1L2119.94 668.1L2119.94 644.1zM2140.72 776.1L2161.51 788.1L2161.51 812.1L2140.72 824.1L2119.94 812.1L2119.94 788.1zM2161.51 884.1L2182.29 896.1L2182.29 920.1L2161.51 932.1L2140.72 920.1L2140.72 896.1zM2182.29 992.1L2203.08 1004.1L2203.08 1028.1L2182.29 1040.1L2161.51 1028.1L2161.51 1004.1zM2244.65 596.1L2265.43 608.1L2265.43 632.1L2244.65 644.1L2223.86 632.1L2223.86 608.1zM2223.86 1064.1L2244.65 1076.1L2244.65 1100.1L2223.86 1112.1L2203.08 1100.1L2203.08 1076.1zM2286.22 524.1L2307 536.1L2307 560.1L2286.22 572.1L2265.43 560.1L2265.43 536.1zM2286.22 596.1L2307 608.1L2307 632.1L2286.22 644.1L2265.43 632.1L2265.43 608.1zM2307 272.1L2327.79 284.1L2327.79 308.1L2307 320.1L2286.22 308.1L2286.22 284.1zM2327.79 308.1L2348.57 320.1L2348.57 344.1L2327.79 356.1L2307 344.1L2307 320.1zM2327.79 524.1L2348.57 536.1L2348.57 560.1L2327.79 572.1L2307 560.1L2307 536.1zM2307 704.1L2327.79 716.1L2327.79 740.1L2307 752.1L2286.22 740.1L2286.22 716.1zM2307 920.1L2327.79 932.1L2327.79 956.1L2307 968.1L2286.22 956.1L2286.22 932.1zM2348.57 200.1L2369.36 212.1L2369.36 236.1L2348.57 248.1L2327.79 236.1L2327.79 212.1zM2348.57 344.1L2369.36 356.1L2369.36 380.1L2348.57 392.1L2327.79 380.1L2327.79 356.1zM2369.36 380.1L2390.14 392.1L2390.14 416.1L2369.36 428.1L2348.57 416.1L2348.57 392.1zM2369.36 668.1L2390.14 680.1L2390.14 704.1L2369.36 716.1L2348.57 704.1L2348.57 680.1zM2390.14 344.1L2410.93 356.1L2410.93 380.1L2390.14 392.1L2369.36 380.1L2369.36 356.1zM2410.93 956.1L2431.71 968.1L2431.71 992.1L2410.93 1004.1L2390.14 992.1L2390.14 968.1zM2452.5 164.1L2473.28 176.1L2473.28 200.1L2452.5 212.1L2431.71 200.1L2431.71 176.1zM2431.71 200.1L2452.5 212.1L2452.5 236.1L2431.71 248.1L2410.93 236.1L2410.93 212.1zM2431.71 416.1L2452.5 428.1L2452.5 452.1L2431.71 464.1L2410.93 452.1L2410.93 428.1zM2431.71 632.1L2452.5 644.1L2452.5 668.1L2431.71 680.1L2410.93 668.1L2410.93 644.1zM2431.71 1064.1L2452.5 1076.1L2452.5 1100.1L2431.71 1112.1L2410.93 1100.1L2410.93 1076.1zM2494.07 380.1L2514.85 392.1L2514.85 416.1L2494.07 428.1L2473.28 416.1L2473.28 392.1zM2494.07 596.1L2514.85 608.1L2514.85 632.1L2494.07 644.1L2473.28 632.1L2473.28 608.1zM2473.28 920.1L2494.07 932.1L2494.07 956.1L2473.28 968.1L2452.5 956.1L2452.5 932.1zM2535.64 20.1L2556.42 32.1L2556.42 56.1L2535.64 68.1L2514.85 56.1L2514.85 32.1zM2535.64 236.1L2556.42 248.1L2556.42 272.1L2535.64 284.1L2514.85 272.1L2514.85 248.1zM2514.85 344.1L2535.64 356.1L2535.64 380.1L2514.85 392.1L2494.07 380.1L2494.07 356.1zM2514.85 488.1L2535.64 500.1L2535.64 524.1L2514.85 536.1L2494.07 524.1L2494.07 500.1zM2535.64 668.1L2556.42 680.1L2556.42 704.1L2535.64 716.1L2514.85 704.1L2514.85 680.1zM2514.85 848.1L2535.64 860.1L2535.64 884.1L2514.85 896.1L2494.07 884.1L2494.07 860.1zM2577.21 20.1L2597.99 32.1L2597.99 56.1L2577.21 68.1L2556.42 56.1L2556.42 32.1zM2556.42 344.1L2577.21 356.1L2577.21 380.1L2556.42 392.1L2535.64 380.1L2535.64 356.1zM2597.99 -15.9L2618.78 -3.9L2618.78 20.1L2597.99 32.1L2577.21 20.1L2577.21 -3.9zM2618.78 20.1L2639.57 32.1L2639.57 56.1L2618.78 68.1L2597.99 56.1L2597.99 32.1zM2618.78 452.1L2639.57 464.1L2639.57 488.1L2618.78 500.1L2597.99 488.1L2597.99 464.1zM2660.35 92.1L2681.14 104.1L2681.14 128.1L2660.35 140.1L2639.57 128.1L2639.57 104.1zM2660.35 236.1L2681.14 248.1L2681.14 272.1L2660.35 284.1L2639.57 272.1L2639.57 248.1zM2660.35 884.1L2681.14 896.1L2681.14 920.1L2660.35 932.1L2639.57 920.1L2639.57 896.1zM2660.35 956.1L2681.14 968.1L2681.14 992.1L2660.35 1004.1L2639.57 992.1L2639.57 968.1zM2660.35 1028.1L2681.14 1040.1L2681.14 1064.1L2660.35 1076.1L2639.57 1064.1L2639.57 1040.1zM2701.92 92.1L2722.71 104.1L2722.71 128.1L2701.92 140.1L2681.14 128.1L2681.14 104.1zM2681.14 416.1L2701.92 428.1L2701.92 452.1L2681.14 464.1L2660.35 452.1L2660.35 428.1zM2681.14 776.1L2701.92 788.1L2701.92 812.1L2681.14 824.1L2660.35 812.1L2660.35 788.1zM2722.71 200.1L2743.49 212.1L2743.49 236.1L2722.71 248.1L2701.92 236.1L2701.92 212.1zM2722.71 272.1L2743.49 284.1L2743.49 308.1L2722.71 320.1L2701.92 308.1L2701.92 284.1zM2743.49 884.1L2764.28 896.1L2764.28 920.1L2743.49 932.1L2722.71 920.1L2722.71 896.1zM2764.28 56.1L2785.06 68.1L2785.06 92.1L2764.28 104.1L2743.49 92.1L2743.49 68.1zM2785.06 92.1L2805.85 104.1L2805.85 128.1L2785.06 140.1L2764.28 128.1L2764.28 104.1zM2764.28 200.1L2785.06 212.1L2785.06 236.1L2764.28 248.1L2743.49 236.1L2743.49 212.1zM2764.28 272.1L2785.06 284.1L2785.06 308.1L2764.28 320.1L2743.49 308.1L2743.49 284.1zM2764.28 632.1L2785.06 644.1L2785.06 668.1L2764.28 680.1L2743.49 668.1L2743.49 644.1zM2826.63 380.1L2847.42 392.1L2847.42 416.1L2826.63 428.1L2805.85 416.1L2805.85 392.1zM2826.63 1028.1L2847.42 1040.1L2847.42 1064.1L2826.63 1076.1L2805.85 1064.1L2805.85 1040.1zM2868.2 668.1L2888.99 680.1L2888.99 704.1L2868.2 716.1L2847.42 704.1L2847.42 680.1zM2868.2 884.1L2888.99 896.1L2888.99 920.1L2868.2 932.1L2847.42 920.1L2847.42 896.1zM2868.2 956.1L2888.99 968.1L2888.99 992.1L2868.2 1004.1L2847.42 992.1L2847.42 968.1zM2888.99 200.1L2909.77 212.1L2909.77 236.1L2888.99 248.1L2868.2 236.1L2868.2 212.1zM2909.77 452.1L2930.56 464.1L2930.56 488.1L2909.77 500.1L2888.99 488.1L2888.99 464.1zM2909.77 1028.1L2930.56 1040.1L2930.56 1064.1L2909.77 1076.1L2888.99 1064.1L2888.99 1040.1zM2951.34 20.1L2972.13 32.1L2972.13 56.1L2951.34 68.1L2930.56 56.1L2930.56 32.1zM2992.91 20.1L3013.7 32.1L3013.7 56.1L2992.91 68.1L2972.13 56.1L2972.13 32.1zM2972.13 416.1L2992.91 428.1L2992.91 452.1L2972.13 464.1L2951.34 452.1L2951.34 428.1zM2972.13 488.1L2992.91 500.1L2992.91 524.1L2972.13 536.1L2951.34 524.1L2951.34 500.1zM2972.13 704.1L2992.91 716.1L2992.91 740.1L2972.13 752.1L2951.34 740.1L2951.34 716.1zM3013.7 272.1L3034.48 284.1L3034.48 308.1L3013.7 320.1L2992.91 308.1L2992.91 284.1zM3034.48 740.1L3055.27 752.1L3055.27 776.1L3034.48 788.1L3013.7 776.1L3013.7 752.1zM3013.7 776.1L3034.48 788.1L3034.48 812.1L3013.7 824.1L2992.91 812.1L2992.91 788.1zM3013.7 848.1L3034.48 860.1L3034.48 884.1L3013.7 896.1L2992.91 884.1L2992.91 860.1z" stroke="rgba(6, 80, 156, 0.93)" stroke-width="2"></path></g><defs><mask id="SvgjsMask1057"><rect width="3000" height="1080" fill="#ffffff"></rect></mask></defs></svg>