<svg id="Capa_1" data-name="Capa 1" xmlns="http://www.w3.org/2000/svg" viewBox="0 0 256 129.94"><defs><style>.cls-1,.cls-3{fill:#44ad4d;}.cls-1,.cls-4,.cls-6{stroke:#fff;stroke-miterlimit:10;stroke-width:6px;}.cls-2{fill:#009e3d;}.cls-4,.cls-5{fill:#0090d0;}.cls-6,.cls-7{fill:#878787;}</style></defs><path class="cls-1" d="M255,105.74a4.5,4.5,0,0,0-1.23.48c-5.82,3.15-10.07,8.49-14.16,13.68.72-.89,1.09-2.73,1.58-3.81q1-2.16,2-4.31c1.42-2.89,2.9-5.75,4.33-8.64A85.67,85.67,0,0,0,254.45,86,2,2,0,0,0,252,83.4a1.35,1.35,0,0,0-.18,0,2.42,2.42,0,0,0-.74.28l-.18.11a2.45,2.45,0,0,0-.47.38c-8.79,15.43-46.83,16-67.2,15.51-25.07.6-50.12.71-75.19.56-13.05-.08-28-1-42.87-1.27-14.59-.4-29.06-.21-41.52,2a79.5,79.5,0,0,0-16.27,4.3s.49,0,1,0c-.06,0,2,0,2,.05,31.54-7.93,62.54-4.21,99.23-3,25.07.84,50.13.13,75.19-.59,23,1.2,51.54-1.58,60.19-8.84l.07,0c.47-.36,1-.66,1.48-1a17.64,17.64,0,0,1,2.77-2.18c-3.75,9.23-8.36,18.14-12.29,27.3-1.65,3.86-3.3,7.74-4.69,11.71a2,2,0,0,0-.06.28c-.34,1.06,1.37,4.52,2.33,3.12,5-7.3,10.26-15.7,17.61-20.82a7.79,7.79,0,0,1,3.69-1.58,2.26,2.26,0,0,0,1-.19c.68-.39.6-1.38.38-2.12a2.48,2.48,0,0,0-1-1.53A1.63,1.63,0,0,0,255,105.74Z" transform="translate(-4.35 -5.5)"/><path class="cls-2" d="M255.05,105.81c-5.46,2.63-8.56,7.54-17.23,18.75C242.45,110.9,251.19,99,254.45,86c.65-2.69-2.47-3.4-4-1.8-8.78,16.28-45.78,17-66.15,16.41-25.07.63-50.1.13-75.18,0-31.85-.22-75.14-6-100.77,4.74-.06,0,2,0,2,.05,31.54-7.93,62.54-4.21,99.23-3,25.07.84,50.13.13,75.19-.59,23,1.2,51.54-1.58,60.19-8.84,8.65-6.56,0,0,0,0a25.39,25.39,0,0,0,6.91-6.31c-.7,1.58-16,31.19-19.61,42.35-.34,1.06,1.37,4.52,2.33,3.12,4.18-6.1,15.84-23.24,22.23-22.44C258.17,108.79,256.88,104.93,255.05,105.81Z" transform="translate(-4.35 -5.5)"/><path class="cls-3" d="M254.53,106c-5.46,2.49-8.33,5.84-17,16.45,4.63-12.93,12.6-24.19,15.87-36.53.64-2.56-1.42-3.18-3-1.67-8.79,15.43-46.83,16-67.2,15.51-25.07.6-50.12.71-75.19.56-31.85-.2-75-5.14-100.66,5-.06,0,1.79,0,1.74,0,31.55-7.51,62.69-5.08,99.38-3.92,25.06.79,50.12.12,75.18-.56,23,1.14,51.55-1.5,60.2-8.38,8.65-6.21,0,0,0,0a24.92,24.92,0,0,0,6.92-6c-.7,1.5-14.86,31.66-18.5,42.24-.35,1,.61,3.68,1.57,2.35,4.18-5.78,15.9-23,22.3-22.26C257.54,108,256.36,105.11,254.53,106Z" transform="translate(-4.35 -5.5)"/><path class="cls-4" d="M67.52,10.35c-5.42-.06-9.56-.52-9.56,3,0,1.85-.17,47.4-.21,53.35-.06,11.3-.44,14.87-14.29,15-3.8,0-20.69,0-21.19,0-4.92.15-4.92,4.25-4.92,8.15s.72,6.69,4.67,6.69H59.74l.07,0c6-.22,17.2-2,17.65-11.76V12.24C77,10.31,75.44,10.35,67.52,10.35Z" transform="translate(-4.35 -5.5)"/><path class="cls-4" d="M144.66,26.48" transform="translate(-4.35 -5.5)"/><path class="cls-4" d="M132.78,67.59c-2.75,0-19.75-.17-29.5-.17-3.66-.55-1.63-2.82-.91-4.69,3-7.68,13.48-29.95,16.71-37.39.94-2.18,4.27-1.72,5-.11L146.62,77a5.38,5.38,0,0,0,5.6,2.7h7.87c4.31-.73,1.41-5.83-1.5-12.5-1.46-3.47-16.15-38.74-21.9-48.5C132.07,9,124.43,8.47,122,8.55c-2-.19-11.06-.42-16.18,9.84-6,9.77-24.68,47.92-24.68,47.92s-4.28,10.47,7.74,13.43c0,0,41.11,0,42.75,0,3.14,0,3.6-2.65,4-6.11C135.59,67.64,134.92,67.58,132.78,67.59Z" transform="translate(-4.35 -5.5)"/><path class="cls-4" d="M219.6,65.73c-5.44-.15-26.29,0-26.29,0-15.9,0-18.07-10.12-18.22-21C175.24,33.52,177.41,23,193.31,23c0,0,20.85.15,26.29,0,4.11.3,5.06.18,5.36-1.47,0-3.14.36-4.7,0-6.78s.53-4.47-5.1-4.47H176.67c-9.17,0-17.95,13.71-18.51,33.84h0c0,.21,0,.42,0,.63s0,.42,0,.64h0C158.73,64.79,167.5,78,176.67,78h43.19c5.63,0,4.71-2.3,5.1-4.31s0-3.51,0-6.54C224.66,65.55,223.71,65.44,219.6,65.73Z" transform="translate(-4.35 -5.5)"/><path class="cls-5" d="M67.52,10.35c-5.42-.06-9.56-.52-9.56,3,0,1.85-.17,47.4-.21,53.35-.06,11.3-.44,14.87-14.29,15-3.8,0-20.69,0-21.19,0-4.92.15-4.92,4.25-4.92,8.15s.72,6.69,4.67,6.69H59.74l.07,0c6-.22,17.2-2,17.65-11.76V12.24C77,10.31,75.44,10.35,67.52,10.35Z" transform="translate(-4.35 -5.5)"/><path class="cls-5" d="M144.66,26.48" transform="translate(-4.35 -5.5)"/><path class="cls-5" d="M132.78,67.59c-2.75,0-19.75-.17-29.5-.17-3.66-.55-1.63-2.82-.91-4.69,3-7.68,13.48-29.95,16.71-37.39.94-2.18,4.27-1.72,5-.11L146.62,77a5.38,5.38,0,0,0,5.6,2.7h7.87c4.31-.73,1.41-5.83-1.5-12.5-1.46-3.47-16.15-38.74-21.9-48.5C132.07,9,124.43,8.47,122,8.55c-2-.19-11.06-.42-16.18,9.84-6,9.77-24.68,47.92-24.68,47.92s-4.28,10.47,7.74,13.43c0,0,41.11,0,42.75,0,3.14,0,3.6-2.65,4-6.11C135.59,67.64,134.92,67.58,132.78,67.59Z" transform="translate(-4.35 -5.5)"/><path class="cls-5" d="M219.6,65.73c-5.44-.15-26.29,0-26.29,0-15.9,0-18.07-10.12-18.22-21C175.24,33.52,177.41,23,193.31,23c0,0,20.85.15,26.29,0,4.11.3,5.06.18,5.36-1.47,0-3.14.36-4.7,0-6.78s.53-4.47-5.1-4.47H176.67c-9.17,0-17.95,13.71-18.51,33.84h0c0,.21,0,.42,0,.63s0,.42,0,.64h0C158.73,64.79,167.5,78,176.67,78h43.19c5.63,0,4.71-2.3,5.1-4.31s0-3.51,0-6.54C224.66,65.55,223.71,65.44,219.6,65.73Z" transform="translate(-4.35 -5.5)"/><path class="cls-6" d="M83.27,92.11a2.77,2.77,0,0,0,.48,1.65,1.4,1.4,0,0,0,1.16.69h6.57V91.9h-6.9V90.84h6.9V88.62H83.27Zm1.64-7a1.38,1.38,0,0,0-1.16.68,2.82,2.82,0,0,0-.48,1.65v.14h8.21V85.09H84.91Zm18.29,0a1.36,1.36,0,0,0-1.16.68,2.82,2.82,0,0,0-.48,1.65v.14h8.21V85.09H103.2Zm-1.64,7a2.77,2.77,0,0,0,.48,1.65,1.37,1.37,0,0,0,1.16.69h6.57V91.9h-6.91V90.84h6.91V88.62h-8.21Zm15.71-7H110.7v2.47h6.85v1.06H110.7v5.83H112V90.84h3.83l1.66,3.61h1.42l-1.65-3.61a1.5,1.5,0,0,0,1.24-.5,2.76,2.76,0,0,0,.41-1.72V87.56a3,3,0,0,0-.47-1.85A1.36,1.36,0,0,0,117.27,85.1Zm3,.67a2.82,2.82,0,0,0-.48,1.65v4.69a2.77,2.77,0,0,0,.48,1.65,1.4,1.4,0,0,0,1.17.69h4.92a1.4,1.4,0,0,0,1.17-.69,2.77,2.77,0,0,0,.48-1.65V88.62h-5.69v2.19h4.33a1.31,1.31,0,0,1-.32.77.9.9,0,0,1-.71.32h-3.43a1,1,0,0,1-.78-.38,1.39,1.39,0,0,1-.31-.9v-1.8a1.39,1.39,0,0,1,.33-.89,1,1,0,0,1,.77-.37h5.81V85.09h-6.57A1.39,1.39,0,0,0,120.32,85.77ZM129,87.56h1.3V85.09H129Zm0,6.89h1.3V88.59H129Zm5.69-9.36-.94,2.47h1.6l.46,1.16h-2.44l-2.12,5.73h1.3l1.52-3.61h2.61l1.48,3.61h1.3L136,85.09Zm17.78,3.53H147V85.09H145.6v3.53a2.69,2.69,0,0,0,.42,1.72,1.47,1.47,0,0,0,1.23.5H149v3.61h1.3V90.84h1.83a1.49,1.49,0,0,0,1.24-.5,2.69,2.69,0,0,0,.41-1.72V85.09h-1.35Zm9.15-3.53a1.39,1.39,0,0,0-1.17.68,2.82,2.82,0,0,0-.48,1.65v4.69a2.77,2.77,0,0,0,.48,1.65,1.4,1.4,0,0,0,1.17.69h6.57V91.9h-5.81a1,1,0,0,1-.79-.38,1.39,1.39,0,0,1-.31-.9v-1.8a1.39,1.39,0,0,1,.33-.89,1,1,0,0,1,.77-.37h5.81V85.09h-6.57Zm14.06,0h-4.92a1.36,1.36,0,0,0-1.16.68,2.82,2.82,0,0,0-.48,1.65v4.69a2.77,2.77,0,0,0,.48,1.65,1.37,1.37,0,0,0,1.16.69h4.92a1.4,1.4,0,0,0,1.17-.69,2.77,2.77,0,0,0,.48-1.65V87.43a2.76,2.76,0,0,0-.48-1.64A1.4,1.4,0,0,0,175.67,85.1Zm.35,5.49a1.39,1.39,0,0,1-.33.92,1,1,0,0,1-.76.39h-3.42a1,1,0,0,1-.79-.38,1.44,1.44,0,0,1-.31-.9v-1.8a1.39,1.39,0,0,1,.33-.89,1,1,0,0,1,.78-.37h3.37a1,1,0,0,1,.77.37,1.66,1.66,0,0,1,.36.86Zm13-5.5h-1.65v2.47h3.43v6.89h1.3V87.56h3.49V85.09H189Zm14.06,0h-6.56v2.47h6.85v1.06h-6.85v5.83h1.3V90.84h3.83l1.65,3.61h1.43l-1.65-3.61a1.47,1.47,0,0,0,1.23-.5,2.69,2.69,0,0,0,.42-1.72V87.56a3.05,3.05,0,0,0-.47-1.85A1.38,1.38,0,0,0,203.1,85.1Zm9.15,0h-4.93a1.37,1.37,0,0,0-1.16.68,2.82,2.82,0,0,0-.48,1.65v4.69a2.77,2.77,0,0,0,.48,1.65,1.38,1.38,0,0,0,1.16.69h4.93a1.38,1.38,0,0,0,1.16-.69,2.77,2.77,0,0,0,.48-1.65V87.43a2.76,2.76,0,0,0-.48-1.64A1.38,1.38,0,0,0,212.25,85.1Zm.34,5.49a1.39,1.39,0,0,1-.33.92,1,1,0,0,1-.75.39h-3.43a1,1,0,0,1-.78-.38,1.4,1.4,0,0,1-.32-.9v-1.8a1.45,1.45,0,0,1,.33-.89,1,1,0,0,1,.78-.37h3.37a1,1,0,0,1,.77.37,1.66,1.66,0,0,1,.36.86Zm4.63,1.31a1,1,0,0,1-.78-.38,1.39,1.39,0,0,1-.31-.9V85.09h-1.31v7a2.77,2.77,0,0,0,.48,1.65,1.4,1.4,0,0,0,1.17.69H223V91.9ZM92.33,94.45H93.7V88.71H92.33Zm7-2.61-5.58-6.75h-1.4v2.49H93.7l5.57,6.87h1.39V85.09H99.31Zm85.9,0-5.59-6.76h-1.39v2.5h1.36l5.57,6.86h1.39V85.05h-1.34Zm-7,2.6h1.36V88.68h-1.36Z" transform="translate(-4.35 -5.5)"/><path class="cls-7" d="M83.27,92.11a2.77,2.77,0,0,0,.48,1.65,1.4,1.4,0,0,0,1.16.69h6.57V91.9h-6.9V90.84h6.9V88.62H83.27Zm1.64-7a1.38,1.38,0,0,0-1.16.68,2.82,2.82,0,0,0-.48,1.65v.14h8.21V85.09H84.91Zm18.29,0a1.36,1.36,0,0,0-1.16.68,2.82,2.82,0,0,0-.48,1.65v.14h8.21V85.09H103.2Zm-1.64,7a2.77,2.77,0,0,0,.48,1.65,1.37,1.37,0,0,0,1.16.69h6.57V91.9h-6.91V90.84h6.91V88.62h-8.21Zm15.71-7H110.7v2.47h6.85v1.06H110.7v5.83H112V90.84h3.83l1.66,3.61h1.42l-1.65-3.61a1.5,1.5,0,0,0,1.24-.5,2.76,2.76,0,0,0,.41-1.72V87.56a3,3,0,0,0-.47-1.85A1.36,1.36,0,0,0,117.27,85.1Zm3,.67a2.82,2.82,0,0,0-.48,1.65v4.69a2.77,2.77,0,0,0,.48,1.65,1.4,1.4,0,0,0,1.17.69h4.92a1.4,1.4,0,0,0,1.17-.69,2.77,2.77,0,0,0,.48-1.65V88.62h-5.69v2.19h4.33a1.31,1.31,0,0,1-.32.77.9.9,0,0,1-.71.32h-3.43a1,1,0,0,1-.78-.38,1.39,1.39,0,0,1-.31-.9v-1.8a1.39,1.39,0,0,1,.33-.89,1,1,0,0,1,.77-.37h5.81V85.09h-6.57A1.39,1.39,0,0,0,120.32,85.77ZM129,87.56h1.3V85.09H129Zm0,6.89h1.3V88.59H129Zm5.69-9.36-.94,2.47h1.6l.46,1.16h-2.44l-2.12,5.73h1.3l1.52-3.61h2.61l1.48,3.61h1.3L136,85.09Zm17.78,3.53H147V85.09H145.6v3.53a2.69,2.69,0,0,0,.42,1.72,1.47,1.47,0,0,0,1.23.5H149v3.61h1.3V90.84h1.83a1.49,1.49,0,0,0,1.24-.5,2.69,2.69,0,0,0,.41-1.72V85.09h-1.35Zm9.15-3.53a1.39,1.39,0,0,0-1.17.68,2.82,2.82,0,0,0-.48,1.65v4.69a2.77,2.77,0,0,0,.48,1.65,1.4,1.4,0,0,0,1.17.69h6.57V91.9h-5.81a1,1,0,0,1-.79-.38,1.39,1.39,0,0,1-.31-.9v-1.8a1.39,1.39,0,0,1,.33-.89,1,1,0,0,1,.77-.37h5.81V85.09h-6.57Zm14.06,0h-4.92a1.36,1.36,0,0,0-1.16.68,2.82,2.82,0,0,0-.48,1.65v4.69a2.77,2.77,0,0,0,.48,1.65,1.37,1.37,0,0,0,1.16.69h4.92a1.4,1.4,0,0,0,1.17-.69,2.77,2.77,0,0,0,.48-1.65V87.43a2.76,2.76,0,0,0-.48-1.64A1.4,1.4,0,0,0,175.67,85.1Zm.35,5.49a1.39,1.39,0,0,1-.33.92,1,1,0,0,1-.76.39h-3.42a1,1,0,0,1-.79-.38,1.44,1.44,0,0,1-.31-.9v-1.8a1.39,1.39,0,0,1,.33-.89,1,1,0,0,1,.78-.37h3.37a1,1,0,0,1,.77.37,1.66,1.66,0,0,1,.36.86Zm13-5.5h-1.65v2.47h3.43v6.89h1.3V87.56h3.49V85.09H189Zm14.06,0h-6.56v2.47h6.85v1.06h-6.85v5.83h1.3V90.84h3.83l1.65,3.61h1.43l-1.65-3.61a1.47,1.47,0,0,0,1.23-.5,2.69,2.69,0,0,0,.42-1.72V87.56a3.05,3.05,0,0,0-.47-1.85A1.38,1.38,0,0,0,203.1,85.1Zm9.15,0h-4.93a1.37,1.37,0,0,0-1.16.68,2.82,2.82,0,0,0-.48,1.65v4.69a2.77,2.77,0,0,0,.48,1.65,1.38,1.38,0,0,0,1.16.69h4.93a1.38,1.38,0,0,0,1.16-.69,2.77,2.77,0,0,0,.48-1.65V87.43a2.76,2.76,0,0,0-.48-1.64A1.38,1.38,0,0,0,212.25,85.1Zm.34,5.49a1.39,1.39,0,0,1-.33.92,1,1,0,0,1-.75.39h-3.43a1,1,0,0,1-.78-.38,1.4,1.4,0,0,1-.32-.9v-1.8a1.45,1.45,0,0,1,.33-.89,1,1,0,0,1,.78-.37h3.37a1,1,0,0,1,.77.37,1.66,1.66,0,0,1,.36.86Zm4.63,1.31a1,1,0,0,1-.78-.38,1.39,1.39,0,0,1-.31-.9V85.09h-1.31v7a2.77,2.77,0,0,0,.48,1.65,1.4,1.4,0,0,0,1.17.69H223V91.9ZM92.33,94.45H93.7V88.71H92.33Zm7-2.61-5.58-6.75h-1.4v2.49H93.7l5.57,6.87h1.39V85.09H99.31Zm85.9,0-5.59-6.76h-1.39v2.5h1.36l5.57,6.86h1.39V85.05h-1.34Zm-7,2.6h1.36V88.68h-1.36Z" transform="translate(-4.35 -5.5)"/></svg>